<?xml version="1.0" encoding="UTF-8" standalone="no"?>
<!-- Generator: Adobe Illustrator 17.1.0, SVG Export Plug-In . SVG Version: 6.00 Build 0)  -->

<svg
   xmlns:dc="http://purl.org/dc/elements/1.1/"
   xmlns:cc="http://creativecommons.org/ns#"
   xmlns:rdf="http://www.w3.org/1999/02/22-rdf-syntax-ns#"
   xmlns:svg="http://www.w3.org/2000/svg"
   xmlns="http://www.w3.org/2000/svg"
   xmlns:sodipodi="http://sodipodi.sourceforge.net/DTD/sodipodi-0.dtd"
   xmlns:inkscape="http://www.inkscape.org/namespaces/inkscape"
   version="1.1"
   id="Capa_1"
   x="0px"
   y="0px"
   viewBox="0 0 13.333257 29.999999"
   xml:space="preserve"
   inkscape:version="0.91 r13725"
   sodipodi:docname="girl4.svg"
   width="13.333258"
   height="30"><metadata
     id="metadata43"><rdf:RDF><cc:Work
         rdf:about=""><dc:format>image/svg+xml</dc:format><dc:type
           rdf:resource="http://purl.org/dc/dcmitype/StillImage" /><dc:title></dc:title></cc:Work></rdf:RDF></metadata><defs
     id="defs41" /><sodipodi:namedview
     pagecolor="#ffffff"
     bordercolor="#666666"
     borderopacity="1"
     objecttolerance="10"
     gridtolerance="10"
     guidetolerance="10"
     inkscape:pageopacity="0"
     inkscape:pageshadow="2"
     inkscape:window-width="1282"
     inkscape:window-height="662"
     id="namedview39"
     showgrid="false"
     fit-margin-top="0"
     fit-margin-left="0"
     fit-margin-right="0"
     fit-margin-bottom="0"
     inkscape:zoom="6.1638578"
     inkscape:cx="-33.809549"
     inkscape:cy="14.999999"
     inkscape:window-x="0"
     inkscape:window-y="0"
     inkscape:window-maximized="0"
     inkscape:current-layer="Capa_1" /><g
     id="g3"
     transform="matrix(0.30241021,0,0,0.30241021,-8.3335225,0)"><filePath
       d="m 49.437,19.672 c 5.424,0 9.836,-4.413 9.836,-9.836 C 59.273,4.413 54.861,0 49.437,0 c -5.423,0 -9.835,4.413 -9.835,9.836 0,5.423 4.411,9.836 9.835,9.836 z"
       id="path5"
       inkscape:connector-curvature="0" /><filePath
       d="M 71.508,52.416 62.73,25.217 c -0.47,-1.456 -2.037,-2.596 -3.566,-2.596 l -2.127,0 c -0.031,0 -0.059,0.009 -0.09,0.01 -0.032,-0.001 -0.062,-0.01 -0.094,-0.01 l -14.83,0 c -0.058,0 -0.112,0.014 -0.169,0.017 -0.055,-0.003 -0.106,-0.017 -0.161,-0.017 l -1.654,0 c -1.53,0 -3.096,1.14 -3.566,2.596 l -8.777,27.198 c -0.26,0.807 -0.152,1.623 0.297,2.24 0.449,0.617 1.193,0.971 2.041,0.971 l 1.38,0 c 1.526,0 3.098,-1.135 3.579,-2.584 l 4.031,-12.159 0,6.562 c -0.678,0.403 -1.265,0.954 -1.616,1.572 l -6.617,11.684 c -0.414,0.73 -0.478,1.553 -0.175,2.258 0.302,0.705 0.942,1.226 1.757,1.43 l 7.232,1.809 0,29.005 c 0,2.206 1.794,4 4,4 l 0.976,0 c 2.206,0 4,-1.794 4,-4 l 0,-26.855 c 0.34,0.033 0.699,0.052 1.069,0.052 0.472,0 0.925,-0.03 1.344,-0.083 l 0,26.886 c 0,2.206 1.794,4 4,4 l 0.976,0 c 2.206,0 4,-1.794 4,-4 l 0,-29.123 6.542,-1.68 c 0.812,-0.208 1.45,-0.733 1.75,-1.44 0.3,-0.707 0.236,-1.53 -0.177,-2.259 L 61.468,49.017 c -0.35,-0.619 -0.938,-1.169 -1.616,-1.572 l 0,-6.885 4.336,12.505 c 0.499,1.437 2.08,2.562 3.6,2.562 l 1.382,0 c 0.848,0 1.591,-0.354 2.041,-0.971 0.449,-0.617 0.557,-1.434 0.297,-2.24 z"
       id="path7"
       inkscape:connector-curvature="0" /></g><g
     id="g9"
     transform="translate(-42.935371,-34.6015)" /><g
     id="g11"
     transform="translate(-42.935371,-34.6015)" /><g
     id="g13"
     transform="translate(-42.935371,-34.6015)" /><g
     id="g15"
     transform="translate(-42.935371,-34.6015)" /><g
     id="g17"
     transform="translate(-42.935371,-34.6015)" /><g
     id="g19"
     transform="translate(-42.935371,-34.6015)" /><g
     id="g21"
     transform="translate(-42.935371,-34.6015)" /><g
     id="g23"
     transform="translate(-42.935371,-34.6015)" /><g
     id="g25"
     transform="translate(-42.935371,-34.6015)" /><g
     id="g27"
     transform="translate(-42.935371,-34.6015)" /><g
     id="g29"
     transform="translate(-42.935371,-34.6015)" /><g
     id="g31"
     transform="translate(-42.935371,-34.6015)" /><g
     id="g33"
     transform="translate(-42.935371,-34.6015)" /><g
     id="g35"
     transform="translate(-42.935371,-34.6015)" /><g
     id="g37"
     transform="translate(-42.935371,-34.6015)" /></svg>