<?xml version="1.0" encoding="UTF-8" standalone="no"?>
<!-- Generator: Adobe Illustrator 18.1.1, SVG Export Plug-In . SVG Version: 6.00 Build 0)  -->

<svg
   xmlns:dc="http://purl.org/dc/elements/1.1/"
   xmlns:cc="http://creativecommons.org/ns#"
   xmlns:rdf="http://www.w3.org/1999/02/22-rdf-syntax-ns#"
   xmlns:svg="http://www.w3.org/2000/svg"
   xmlns="http://www.w3.org/2000/svg"
   xmlns:sodipodi="http://sodipodi.sourceforge.net/DTD/sodipodi-0.dtd"
   xmlns:inkscape="http://www.inkscape.org/namespaces/inkscape"
   version="1.1"
   id="Capa_1"
   x="0px"
   y="0px"
   viewBox="0 0 30.000183 27.452999"
   xml:space="preserve"
   inkscape:version="0.91 r13725"
   sodipodi:docname="menu62.svg"
   width="30.000183"
   height="27.452999"><metadata
     id="metadata47"><rdf:RDF><cc:Work
         rdf:about=""><dc:format>image/svg+xml</dc:format><dc:type
           rdf:resource="http://purl.org/dc/dcmitype/StillImage" /><dc:title></dc:title></cc:Work></rdf:RDF></metadata><defs
     id="defs45" /><sodipodi:namedview
     pagecolor="#ffffff"
     bordercolor="#666666"
     borderopacity="1"
     objecttolerance="10"
     gridtolerance="10"
     guidetolerance="10"
     inkscape:pageopacity="0"
     inkscape:pageshadow="2"
     inkscape:window-width="1920"
     inkscape:window-height="1018"
     id="namedview43"
     showgrid="false"
     fit-margin-top="0"
     fit-margin-left="0"
     fit-margin-right="0"
     fit-margin-bottom="0"
     inkscape:zoom="19.543573"
     inkscape:cx="12.555193"
     inkscape:cy="13.937336"
     inkscape:window-x="-8"
     inkscape:window-y="-8"
     inkscape:window-maximized="1"
     inkscape:current-layer="Capa_1" /><g
     id="g3"
     transform="matrix(0.07075515,0,0,0.07075515,0,-1.2735927)"><g
       id="g5"><filePath
         style="fill:#010002"
         d="M 35,89 C 15,89 0,74 0,54 0,34 15,18 35,18 l 353,0 c 20,0 36,16 36,36 0,20 -16,35 -36,35 L 35,89 Z"
         id="path7"
         inkscape:connector-curvature="0" /><filePath
         style="fill:#010002"
         d="m 388,176 c 20,0 36,16 36,36 0,20 -16,35 -36,35 L 35,247 C 15,247 0,232 0,212 0,192 15,176 35,176 l 353,0 z"
         id="path9"
         inkscape:connector-curvature="0" /><filePath
         style="fill:#010002"
         d="m 388,335 c 20,0 36,15 36,35 0,20 -16,36 -36,36 L 35,406 C 15,406 0,390 0,370 0,350 15,335 35,335 l 353,0 z"
         id="path11"
         inkscape:connector-curvature="0" /></g></g><g
     id="g13"
     transform="translate(-196.99991,-198.2735)" /><g
     id="g15"
     transform="translate(-196.99991,-198.2735)" /><g
     id="g17"
     transform="translate(-196.99991,-198.2735)" /><g
     id="g19"
     transform="translate(-196.99991,-198.2735)" /><g
     id="g21"
     transform="translate(-196.99991,-198.2735)" /><g
     id="g23"
     transform="translate(-196.99991,-198.2735)" /><g
     id="g25"
     transform="translate(-196.99991,-198.2735)" /><g
     id="g27"
     transform="translate(-196.99991,-198.2735)" /><g
     id="g29"
     transform="translate(-196.99991,-198.2735)" /><g
     id="g31"
     transform="translate(-196.99991,-198.2735)" /><g
     id="g33"
     transform="translate(-196.99991,-198.2735)" /><g
     id="g35"
     transform="translate(-196.99991,-198.2735)" /><g
     id="g37"
     transform="translate(-196.99991,-198.2735)" /><g
     id="g39"
     transform="translate(-196.99991,-198.2735)" /><g
     id="g41"
     transform="translate(-196.99991,-198.2735)" /></svg>