<?xml version="1.0" encoding="UTF-8" standalone="no"?>
<!-- Generator: Adobe Illustrator 17.1.0, SVG Export Plug-In . SVG Version: 6.00 Build 0)  -->

<svg
   xmlns:dc="http://purl.org/dc/elements/1.1/"
   xmlns:cc="http://creativecommons.org/ns#"
   xmlns:rdf="http://www.w3.org/1999/02/22-rdf-syntax-ns#"
   xmlns:svg="http://www.w3.org/2000/svg"
   xmlns="http://www.w3.org/2000/svg"
   xmlns:sodipodi="http://sodipodi.sourceforge.net/DTD/sodipodi-0.dtd"
   xmlns:inkscape="http://www.inkscape.org/namespaces/inkscape"
   version="1.1"
   id="Capa_1"
   x="0px"
   y="0px"
   viewBox="0 0 14.483037 29.999999"
   xml:space="preserve"
   inkscape:version="0.91 r13725"
   sodipodi:docname="boy3.svg"
   width="14.483038"
   height="30"><metadata
     id="metadata43"><rdf:RDF><cc:Work
         rdf:about=""><dc:format>image/svg+xml</dc:format><dc:type
           rdf:resource="http://purl.org/dc/dcmitype/StillImage" /><dc:title></dc:title></cc:Work></rdf:RDF></metadata><defs
     id="defs41" /><sodipodi:namedview
     pagecolor="#ffffff"
     bordercolor="#666666"
     borderopacity="1"
     objecttolerance="10"
     gridtolerance="10"
     guidetolerance="10"
     inkscape:pageopacity="0"
     inkscape:pageshadow="2"
     inkscape:window-width="757"
     inkscape:window-height="480"
     id="namedview39"
     showgrid="false"
     fit-margin-top="0"
     fit-margin-left="0"
     fit-margin-right="0"
     fit-margin-bottom="0"
     inkscape:zoom="3.3164574"
     inkscape:cx="-30.298806"
     inkscape:cy="14.999998"
     inkscape:window-x="0"
     inkscape:window-y="0"
     inkscape:window-maximized="0"
     inkscape:current-layer="Capa_1" /><g
     id="g3"
     transform="matrix(0.3260586,0,0,0.3260586,-7.758569,0)"><filePath
       d="m 46.004,21.672 c 5.975,0 10.836,-4.861 10.836,-10.836 C 56.84,4.861 51.979,0 46.004,0 40.029,0 35.169,4.861 35.169,10.836 c 0,5.975 4.86,10.836 10.835,10.836 z"
       id="path5"
       inkscape:connector-curvature="0" /><filePath
       d="M 68.074,54.008 59.296,26.81 C 58.826,25.354 57.26,24.214 55.73,24.214 l -1.312,0 -0.938,0 -14.954,0 -0.938,0 -1.312,0 c -1.53,0 -3.096,1.14 -3.566,2.596 l -8.776,27.198 c -0.26,0.807 -0.152,1.623 0.297,2.24 0.449,0.617 1.193,0.971 2.041,0.971 l 2.25,0 c 1.53,0 3.096,-1.14 3.566,-2.596 l 2.5,-7.75 0,10.466 0,0.503 0,29.166 c 0,2.757 2.243,5 5,5 l 0.352,0 c 2.757,0 5,-2.243 5,-5 l 0,-26.166 2.127,0 0,26.166 c 0,2.757 2.243,5 5,5 l 0.352,0 c 2.757,0 5,-2.243 5,-5 l 0,-29.166 0,-0.503 0,-10.47 2.502,7.754 c 0.47,1.456 2.036,2.596 3.566,2.596 l 2.25,0 c 0.848,0 1.591,-0.354 2.041,-0.971 0.45,-0.617 0.556,-1.433 0.296,-2.24 z"
       id="path7"
       inkscape:connector-curvature="0" /></g><g
     id="g9"
     transform="translate(-38.762751,-31.004)" /><g
     id="g11"
     transform="translate(-38.762751,-31.004)" /><g
     id="g13"
     transform="translate(-38.762751,-31.004)" /><g
     id="g15"
     transform="translate(-38.762751,-31.004)" /><g
     id="g17"
     transform="translate(-38.762751,-31.004)" /><g
     id="g19"
     transform="translate(-38.762751,-31.004)" /><g
     id="g21"
     transform="translate(-38.762751,-31.004)" /><g
     id="g23"
     transform="translate(-38.762751,-31.004)" /><g
     id="g25"
     transform="translate(-38.762751,-31.004)" /><g
     id="g27"
     transform="translate(-38.762751,-31.004)" /><g
     id="g29"
     transform="translate(-38.762751,-31.004)" /><g
     id="g31"
     transform="translate(-38.762751,-31.004)" /><g
     id="g33"
     transform="translate(-38.762751,-31.004)" /><g
     id="g35"
     transform="translate(-38.762751,-31.004)" /><g
     id="g37"
     transform="translate(-38.762751,-31.004)" /></svg>