<?xml version="1.0" encoding="UTF-8" standalone="no"?>
<!-- Generator: Adobe Illustrator 16.0.0, SVG Export Plug-In . SVG Version: 6.00 Build 0)  -->

<svg
   xmlns:dc="http://purl.org/dc/elements/1.1/"
   xmlns:cc="http://creativecommons.org/ns#"
   xmlns:rdf="http://www.w3.org/1999/02/22-rdf-syntax-ns#"
   xmlns:svg="http://www.w3.org/2000/svg"
   xmlns="http://www.w3.org/2000/svg"
   xmlns:sodipodi="http://sodipodi.sourceforge.net/DTD/sodipodi-0.dtd"
   xmlns:inkscape="http://www.inkscape.org/namespaces/inkscape"
   version="1.1"
   id="Capa_1"
   x="0px"
   y="0px"
   width="16.793306"
   height="30"
   viewBox="0 0 16.793306 29.999999"
   xml:space="preserve"
   inkscape:version="0.91 r13725"
   sodipodi:docname="cutlery23.svg"><metadata
     id="metadata45"><rdf:RDF><cc:Work
         rdf:about=""><dc:format>image/svg+xml</dc:format><dc:type
           rdf:resource="http://purl.org/dc/dcmitype/StillImage" /><dc:title></dc:title></cc:Work></rdf:RDF></metadata><defs
     id="defs43" /><sodipodi:namedview
     pagecolor="#ffffff"
     bordercolor="#666666"
     borderopacity="1"
     objecttolerance="10"
     gridtolerance="10"
     guidetolerance="10"
     inkscape:pageopacity="0"
     inkscape:pageshadow="2"
     inkscape:window-width="1920"
     inkscape:window-height="1018"
     id="namedview41"
     showgrid="false"
     fit-margin-top="0"
     fit-margin-left="0"
     fit-margin-right="0"
     fit-margin-bottom="0"
     inkscape:zoom="16.149846"
     inkscape:cx="-0.71920528"
     inkscape:cy="15.230302"
     inkscape:window-x="-8"
     inkscape:window-y="-8"
     inkscape:window-maximized="1"
     inkscape:current-layer="Capa_1" /><g
     id="g3"
     transform="matrix(0.66149233,0,0,0.66149233,-6.6030164,0)"><g
       id="g5"><path
         d="M 32.459,0 C 29.722,0 27.44,2.117 27.246,4.847 L 25.85,24.339 c -0.062,0.85 0.231,1.692 0.813,2.315 0.58,0.623 1.393,0.984 2.244,0.984 l 0.082,0 -0.477,15.262 c -0.021,0.653 0.225,1.268 0.68,1.735 0.454,0.47 1.079,0.715 1.732,0.715 l 2.002,0 c 1.332,0 2.443,-1.049 2.443,-2.383 l 0,-40.073 C 35.369,1.296 34.058,0 32.459,0 Z"
         id="path7"
         inkscape:connector-curvature="0" /><path
         d="m 20.945,0.032 -0.204,0 c -0.487,0 -0.861,0.365 -0.861,0.854 l 0,8.59 c 0,0.762 -0.639,1.385 -1.4,1.385 l -0.205,0 c -0.761,0 -1.406,-0.623 -1.406,-1.385 l 0,-8.59 c 0,-0.488 -0.367,-0.854 -0.855,-0.854 l -0.207,0 c -0.488,0 -0.876,0.365 -0.876,0.854 l 0,8.59 c 0,0.762 -0.624,1.385 -1.386,1.385 l -0.204,0 c -0.761,0 -1.351,-0.623 -1.351,-1.385 l 0,-8.59 c 0,-0.488 -0.423,-0.854 -0.911,-0.854 l -0.205,0 c -0.487,0 -0.892,0.365 -0.892,0.854 l 0,12.993 c 0,1.598 1.303,2.862 2.901,2.862 l 0.386,0 -0.816,26.153 c -0.021,0.653 0.224,1.271 0.679,1.74 0.454,0.469 1.08,0.718 1.734,0.718 l 1.924,0 c 0.652,0 1.278,-0.249 1.733,-0.718 0.455,-0.47 0.699,-1.095 0.68,-1.748 l -0.816,-26.146 0.55,0 c 1.599,0 2.88,-1.265 2.88,-2.862 l 0,-12.993 C 21.815,0.396 21.435,0.032 20.945,0.032 Z"
         id="path9"
         inkscape:connector-curvature="0" /></g></g><g
     id="g11"
     transform="translate(-14.278847,-7.676)" /><g
     id="g13"
     transform="translate(-14.278847,-7.676)" /><g
     id="g15"
     transform="translate(-14.278847,-7.676)" /><g
     id="g17"
     transform="translate(-14.278847,-7.676)" /><g
     id="g19"
     transform="translate(-14.278847,-7.676)" /><g
     id="g21"
     transform="translate(-14.278847,-7.676)" /><g
     id="g23"
     transform="translate(-14.278847,-7.676)" /><g
     id="g25"
     transform="translate(-14.278847,-7.676)" /><g
     id="g27"
     transform="translate(-14.278847,-7.676)" /><g
     id="g29"
     transform="translate(-14.278847,-7.676)" /><g
     id="g31"
     transform="translate(-14.278847,-7.676)" /><g
     id="g33"
     transform="translate(-14.278847,-7.676)" /><g
     id="g35"
     transform="translate(-14.278847,-7.676)" /><g
     id="g37"
     transform="translate(-14.278847,-7.676)" /><g
     id="g39"
     transform="translate(-14.278847,-7.676)" /></svg>