<?xml version="1.0" encoding="UTF-8" standalone="no"?>
<!-- Generator: Adobe Illustrator 16.0.0, SVG Export Plug-In . SVG Version: 6.00 Build 0)  -->

<svg
   xmlns:dc="http://purl.org/dc/elements/1.1/"
   xmlns:cc="http://creativecommons.org/ns#"
   xmlns:rdf="http://www.w3.org/1999/02/22-rdf-syntax-ns#"
   xmlns:svg="http://www.w3.org/2000/svg"
   xmlns="http://www.w3.org/2000/svg"
   xmlns:sodipodi="http://sodipodi.sourceforge.net/DTD/sodipodi-0.dtd"
   xmlns:inkscape="http://www.inkscape.org/namespaces/inkscape"
   version="1.1"
   id="Capa_1"
   x="0px"
   y="0px"
   width="30.000002"
   height="22.318415"
   viewBox="0 0 30.000003 22.318416"
   xml:space="preserve"
   inkscape:version="0.91 r13725"
   sodipodi:docname="email109_small.svg"><metadata
     id="metadata45"><rdf:RDF><cc:Work
         rdf:about=""><dc:format>image/svg+xml</dc:format><dc:type
           rdf:resource="http://purl.org/dc/dcmitype/StillImage" /><dc:title></dc:title></cc:Work></rdf:RDF></metadata><defs
     id="defs43" /><sodipodi:namedview
     pagecolor="#ffffff"
     bordercolor="#666666"
     borderopacity="1"
     objecttolerance="10"
     gridtolerance="10"
     guidetolerance="10"
     inkscape:pageopacity="0"
     inkscape:pageshadow="2"
     inkscape:window-width="1920"
     inkscape:window-height="1018"
     id="namedview41"
     showgrid="false"
     fit-margin-top="0"
     fit-margin-left="0"
     fit-margin-right="0"
     fit-margin-bottom="0"
     inkscape:zoom="6.7699852"
     inkscape:cx="-43.208607"
     inkscape:cy="9.3254563"
     inkscape:window-x="-8"
     inkscape:window-y="-8"
     inkscape:window-maximized="1"
     inkscape:current-layer="Capa_1" /><g
     id="g3"
     transform="matrix(0.04901957,0,0,0.04901957,0,-3.8408304)"><g
       id="g5"><filePath
         d="M 607.283,392.158 493.307,278.175 c -5.086,-5.105 -11.073,-6.318 -17.953,-3.574 -6.879,2.68 -10.173,7.786 -10.173,15.253 l 0,58.013 c -40.979,7.212 -80.976,22.593 -108.891,38.867 -27.43,16.019 -53.845,37.143 -69.404,52.971 -15.553,15.892 -28.968,33.824 -33.806,41.292 -2.342,3.638 -3.963,6.254 -4.787,7.786 -3.963,7.403 -3.223,14.614 2.993,20.358 5.463,5.042 14.06,5.68 20.046,1.787 1.194,-1.213 11.647,-7.531 35.299,-17.934 11.647,-5.17 24.577,-10.084 38.592,-14.679 14.104,-4.659 31.132,-8.871 50.559,-12.254 19.766,-3.51 39.187,-5.425 58.332,-5.425 l 11.066,0 0,56.545 c 0,6.893 3.294,11.999 10.173,15.254 2.394,0.893 4.487,1.212 6.28,1.212 4.493,0 8.373,-1.531 11.673,-4.786 L 607.283,415.452 c 6.3,-6.254 6.28,-17.039 0,-23.294 z m -109.19,85.264 0,-32.038 c 0,-8.68 -6.586,-16.146 -15.259,-16.466 -6.28,-0.894 -15.854,-1.148 -28.72,-1.148 -42.778,0 -85.857,7.147 -128.636,21.826 46.371,-39.186 99.036,-62.735 158.549,-70.904 8.093,-1.085 14.066,-7.786 14.066,-16.466 l 0,-32.612 73.591,74.224 -73.591,73.584 z"
         id="path7"
         inkscape:connector-curvature="0" /><filePath
         d="m 33.206,497.462 0,-332.058 230.947,236.009 c 3.255,3.318 7.18,4.786 11.667,4.786 l 0.6,0 c 5.08,0 9.011,-1.468 12.26,-4.786 l 230.354,-236.009 0,87.626 32.905,0 0,-137.916 c 0,-20.295 -15.56,-36.761 -35.898,-36.761 l -479.849,0 c -10.167,0 -18.846,3.574 -25.726,10.722 C 3.587,96.287 0,104.966 0,115.114 l 0,382.349 c 0,9.892 3.51,18.635 10.467,25.719 6.81,6.957 15.559,10.467 25.726,10.467 l 175.909,0 0,-33.187 -175.91,0 c -2.093,-10e-4 -2.986,-0.894 -2.986,-3 z m 0,-382.348 c 0,-2.362 0.894,-3.574 2.987,-3.574 l 479.847,0 c 2.094,0 2.994,1.212 2.994,3.574 l 0,2.999 -242.615,248.326 -243.213,-248.326 0,-2.999 z"
         id="path9"
         inkscape:connector-curvature="0" /></g></g><g
     id="g11"
     transform="translate(-291.00025,-294.84179)" /><g
     id="g13"
     transform="translate(-291.00025,-294.84179)" /><g
     id="g15"
     transform="translate(-291.00025,-294.84179)" /><g
     id="g17"
     transform="translate(-291.00025,-294.84179)" /><g
     id="g19"
     transform="translate(-291.00025,-294.84179)" /><g
     id="g21"
     transform="translate(-291.00025,-294.84179)" /><g
     id="g23"
     transform="translate(-291.00025,-294.84179)" /><g
     id="g25"
     transform="translate(-291.00025,-294.84179)" /><g
     id="g27"
     transform="translate(-291.00025,-294.84179)" /><g
     id="g29"
     transform="translate(-291.00025,-294.84179)" /><g
     id="g31"
     transform="translate(-291.00025,-294.84179)" /><g
     id="g33"
     transform="translate(-291.00025,-294.84179)" /><g
     id="g35"
     transform="translate(-291.00025,-294.84179)" /><g
     id="g37"
     transform="translate(-291.00025,-294.84179)" /><g
     id="g39"
     transform="translate(-291.00025,-294.84179)" /></svg>