<?xml version="1.0" encoding="UTF-8" standalone="no"?>
<!-- Generator: Adobe Illustrator 18.1.1, SVG Export Plug-In . SVG Version: 6.00 Build 0)  -->

<svg
   xmlns:dc="http://purl.org/dc/elements/1.1/"
   xmlns:cc="http://creativecommons.org/ns#"
   xmlns:rdf="http://www.w3.org/1999/02/22-rdf-syntax-ns#"
   xmlns:svg="http://www.w3.org/2000/svg"
   xmlns="http://www.w3.org/2000/svg"
   xmlns:sodipodi="http://sodipodi.sourceforge.net/DTD/sodipodi-0.dtd"
   xmlns:inkscape="http://www.inkscape.org/namespaces/inkscape"
   version="1.1"
   id="Capa_1"
   x="0px"
   y="0px"
   viewBox="0 0 25.129622 29.999998"
   xml:space="preserve"
   inkscape:version="0.91 r13725"
   sodipodi:docname="exit21.svg"
   width="25.129622"
   height="29.999998"><metadata
     id="metadata43"><rdf:RDF><cc:Work
         rdf:about=""><dc:format>image/svg+xml</dc:format><dc:type
           rdf:resource="http://purl.org/dc/dcmitype/StillImage" /><dc:title></dc:title></cc:Work></rdf:RDF></metadata><defs
     id="defs41" /><sodipodi:namedview
     pagecolor="#ffffff"
     bordercolor="#666666"
     borderopacity="1"
     objecttolerance="10"
     gridtolerance="10"
     guidetolerance="10"
     inkscape:pageopacity="0"
     inkscape:pageshadow="2"
     inkscape:window-width="1920"
     inkscape:window-height="1018"
     id="namedview39"
     showgrid="false"
     fit-margin-top="0"
     fit-margin-left="0"
     fit-margin-right="0"
     fit-margin-bottom="0"
     inkscape:zoom="1.1343728"
     inkscape:cx="-37.730527"
     inkscape:cy="6.5454726"
     inkscape:window-x="-8"
     inkscape:window-y="-8"
     inkscape:window-maximized="1"
     inkscape:current-layer="Capa_1" /><g
     id="g3"
     transform="matrix(0.06570935,0,0,0.06570935,-2.4351885,0)"><filePath
       d="m 335.025,312.746 c -3.434,0 -6.875,-1.311 -9.498,-3.934 -5.238,-5.242 -5.238,-13.746 0,-18.988 l 48.124,-48.117 -191.63,0 c -7.413,0 -13.428,-6.011 -13.428,-13.428 0,-7.417 6.015,-13.428 13.428,-13.428 l 190.833,0 -47.404,-48.194 c -5.182,-5.273 -5.133,-13.746 0.119,-18.953 5.238,-5.203 13.715,-5.196 18.953,0.042 l 71.043,71.04 c 2.518,2.518 3.931,5.934 3.931,9.494 0,3.56 -1.413,6.976 -3.931,9.494 l -71.043,71.04 c -2.623,2.62 -6.064,3.932 -9.497,3.932 z"
       id="path5"
       inkscape:connector-curvature="0" /><filePath
       d="m 311.441,456.556 -260.953,0 c -7.413,0 -13.428,-6.011 -13.428,-13.428 l 0,-429.7 C 37.06,6.011 43.075,0 50.488,0 l 260.953,0 c 7.413,0 13.428,6.011 13.428,13.428 l 0,78.638 c 0,7.417 -6.015,13.428 -13.428,13.428 -7.413,0 -13.428,-6.011 -13.428,-13.428 l 0,-65.21 -234.097,0 0,402.844 234.097,0 0,-65.21 c 0,-7.417 6.015,-13.428 13.428,-13.428 7.413,0 13.428,6.011 13.428,13.428 l 0,78.638 c 10e-4,7.417 -6.014,13.428 -13.428,13.428 z"
       id="path7"
       inkscape:connector-curvature="0" /></g><g
     id="g9"
     transform="translate(-215.71319,-213.278)" /><g
     id="g11"
     transform="translate(-215.71319,-213.278)" /><g
     id="g13"
     transform="translate(-215.71319,-213.278)" /><g
     id="g15"
     transform="translate(-215.71319,-213.278)" /><g
     id="g17"
     transform="translate(-215.71319,-213.278)" /><g
     id="g19"
     transform="translate(-215.71319,-213.278)" /><g
     id="g21"
     transform="translate(-215.71319,-213.278)" /><g
     id="g23"
     transform="translate(-215.71319,-213.278)" /><g
     id="g25"
     transform="translate(-215.71319,-213.278)" /><g
     id="g27"
     transform="translate(-215.71319,-213.278)" /><g
     id="g29"
     transform="translate(-215.71319,-213.278)" /><g
     id="g31"
     transform="translate(-215.71319,-213.278)" /><g
     id="g33"
     transform="translate(-215.71319,-213.278)" /><g
     id="g35"
     transform="translate(-215.71319,-213.278)" /><g
     id="g37"
     transform="translate(-215.71319,-213.278)" /></svg>