<?xml version="1.0" encoding="UTF-8" standalone="no"?>
<!-- Generator: Adobe Illustrator 16.0.0, SVG Export Plug-In . SVG Version: 6.00 Build 0)  -->

<svg
   xmlns:dc="http://purl.org/dc/elements/1.1/"
   xmlns:cc="http://creativecommons.org/ns#"
   xmlns:rdf="http://www.w3.org/1999/02/22-rdf-syntax-ns#"
   xmlns:svg="http://www.w3.org/2000/svg"
   xmlns="http://www.w3.org/2000/svg"
   xmlns:sodipodi="http://sodipodi.sourceforge.net/DTD/sodipodi-0.dtd"
   xmlns:inkscape="http://www.inkscape.org/namespaces/inkscape"
   version="1.1"
   id="Capa_1"
   x="0px"
   y="0px"
   width="28.59045"
   height="29.999998"
   viewBox="0 0 28.590449 29.999997"
   xml:space="preserve"
   inkscape:version="0.91 r13725"
   sodipodi:docname="female105.svg"><metadata
     id="metadata49"><rdf:RDF><cc:Work
         rdf:about=""><dc:format>image/svg+xml</dc:format><dc:type
           rdf:resource="http://purl.org/dc/dcmitype/StillImage" /><dc:title></dc:title></cc:Work></rdf:RDF></metadata><defs
     id="defs47" /><sodipodi:namedview
     pagecolor="#ffffff"
     bordercolor="#666666"
     borderopacity="1"
     objecttolerance="10"
     gridtolerance="10"
     guidetolerance="10"
     inkscape:pageopacity="0"
     inkscape:pageshadow="2"
     inkscape:window-width="1920"
     inkscape:window-height="1018"
     id="namedview45"
     showgrid="false"
     fit-margin-top="0"
     fit-margin-left="0"
     fit-margin-right="0"
     fit-margin-bottom="0"
     inkscape:zoom="1.7493613"
     inkscape:cx="-15.768427"
     inkscape:cy="-29.718074"
     inkscape:window-x="-8"
     inkscape:window-y="-8"
     inkscape:window-maximized="1"
     inkscape:current-layer="Capa_1" /><g
     id="g3"
     transform="matrix(0.07165308,0,0,0.07165308,-0.70469582,0)"><g
       id="g5"><path
         d="m 310.332,82.426 c 22.73,0 41.214,-18.486 41.214,-41.213 C 351.546,18.486 333.062,0 310.332,0 c -22.724,0 -41.213,18.486 -41.213,41.213 0,22.727 18.489,41.213 41.213,41.213 z"
         id="path7"
         inkscape:connector-curvature="0" /><path
         d="m 108.346,82.426 c 22.727,0 41.213,-18.486 41.213,-41.213 C 149.559,18.486 131.073,0 108.346,0 85.618,0 67.138,18.486 67.138,41.213 c 0,22.727 18.486,41.213 41.208,41.213 z"
         id="path9"
         inkscape:connector-curvature="0" /><path
         d="m 206.646,210.849 -31.21,-108.68 C 173.659,92.166 165.083,84.943 154.918,84.943 l -93.132,0 c -10.171,0 -18.746,7.223 -20.525,17.226 l -31.213,108.68 c -0.301,1.039 -0.275,2.099 0.026,3.06 -0.157,1.002 -0.236,1.952 -0.236,2.908 0,11.522 9.373,20.897 20.903,20.897 10.074,0 18.701,-7.201 20.428,-16.688 L 64.645,170.991 42.357,278.996 c -0.978,2.474 -1.471,5.061 -1.471,7.701 0,11.522 9.375,20.898 20.905,20.898 l 2.273,0 0,90.195 c 0,11.528 9.375,20.893 20.9,20.893 11.522,0 20.898,-9.375 20.898,-20.893 l 0,-90.195 4.995,0 0,90.195 c 0,11.528 9.373,20.893 20.898,20.893 11.525,0 20.901,-9.375 20.901,-20.893 l 0,-90.195 2.278,0 c 11.525,0 20.896,-9.376 20.896,-20.898 0,-2.661 -0.494,-5.245 -1.473,-7.712 l -22.276,-107.999 13.368,49.61 c 1.824,9.917 10.457,17.118 20.53,17.118 11.522,0 20.893,-9.375 20.893,-20.897 0,-0.95 -0.082,-1.916 -0.236,-2.914 0.286,-0.961 0.312,-2.015 0.01,-3.054 z"
         id="path11"
         inkscape:connector-curvature="0" /><path
         d="m 408.607,213.903 c 0.252,-0.808 0.31,-1.68 0.141,-2.561 L 388.234,102.51 C 386.586,92.326 377.929,84.943 367.651,84.943 l -114.641,0 c -10.283,0 -18.936,7.391 -20.552,17.431 l -20.545,108.968 c -0.165,0.881 -0.111,1.753 0.139,2.561 -0.159,0.998 -0.234,1.953 -0.234,2.914 0,11.522 9.375,20.897 20.903,20.897 10.073,0 18.698,-7.201 20.539,-17.238 l 12.946,-80.925 -0.167,258.24 c 0,11.528 9.37,20.893 20.897,20.893 11.527,0 20.902,-9.375 20.902,-20.893 l 0,-127.824 4.986,0 0,127.823 c 0,11.528 9.377,20.893 20.91,20.893 11.521,0 20.893,-9.375 20.893,-20.897 l -0.169,-258.235 12.967,81.045 c 1.82,9.917 10.452,17.118 20.525,17.118 11.522,0 20.897,-9.375 20.897,-20.897 -0.003,-0.961 -0.078,-1.927 -0.24,-2.914 z"
         id="path13"
         inkscape:connector-curvature="0" /></g></g><g
     id="g15"
     transform="translate(-195.04569,-194.342)" /><g
     id="g17"
     transform="translate(-195.04569,-194.342)" /><g
     id="g19"
     transform="translate(-195.04569,-194.342)" /><g
     id="g21"
     transform="translate(-195.04569,-194.342)" /><g
     id="g23"
     transform="translate(-195.04569,-194.342)" /><g
     id="g25"
     transform="translate(-195.04569,-194.342)" /><g
     id="g27"
     transform="translate(-195.04569,-194.342)" /><g
     id="g29"
     transform="translate(-195.04569,-194.342)" /><g
     id="g31"
     transform="translate(-195.04569,-194.342)" /><g
     id="g33"
     transform="translate(-195.04569,-194.342)" /><g
     id="g35"
     transform="translate(-195.04569,-194.342)" /><g
     id="g37"
     transform="translate(-195.04569,-194.342)" /><g
     id="g39"
     transform="translate(-195.04569,-194.342)" /><g
     id="g41"
     transform="translate(-195.04569,-194.342)" /><g
     id="g43"
     transform="translate(-195.04569,-194.342)" /></svg>