<?xml version="1.0" encoding="UTF-8" standalone="no"?>
<!-- Generator: Adobe Illustrator 19.0.0, SVG Export Plug-In . SVG Version: 6.00 Build 0)  -->

<svg
   xmlns:dc="http://purl.org/dc/elements/1.1/"
   xmlns:cc="http://creativecommons.org/ns#"
   xmlns:rdf="http://www.w3.org/1999/02/22-rdf-syntax-ns#"
   xmlns:svg="http://www.w3.org/2000/svg"
   xmlns="http://www.w3.org/2000/svg"
   xmlns:sodipodi="http://sodipodi.sourceforge.net/DTD/sodipodi-0.dtd"
   xmlns:inkscape="http://www.inkscape.org/namespaces/inkscape"
   version="1.1"
   id="Capa_1"
   x="0px"
   y="0px"
   viewBox="0 0 30.000001 30.000001"
   xml:space="preserve"
   inkscape:version="0.91 r13725"
   sodipodi:docname="info_small.svg"
   width="30"
   height="30"><metadata
     id="metadata45"><rdf:RDF><cc:Work
         rdf:about=""><dc:format>image/svg+xml</dc:format><dc:type
           rdf:resource="http://purl.org/dc/dcmitype/StillImage" /><dc:title></dc:title></cc:Work></rdf:RDF></metadata><defs
     id="defs43" /><sodipodi:namedview
     pagecolor="#ffffff"
     bordercolor="#666666"
     borderopacity="1"
     objecttolerance="10"
     gridtolerance="10"
     guidetolerance="10"
     inkscape:pageopacity="0"
     inkscape:pageshadow="2"
     inkscape:window-width="1920"
     inkscape:window-height="1018"
     id="namedview41"
     showgrid="false"
     fit-margin-top="0"
     fit-margin-left="0"
     fit-margin-right="0"
     fit-margin-bottom="0"
     inkscape:zoom="11.522502"
     inkscape:cx="11.94366"
     inkscape:cy="8.8719711"
     inkscape:window-x="-8"
     inkscape:window-y="-8"
     inkscape:window-maximized="1"
     inkscape:current-layer="Capa_1" /><g
     id="g3"
     transform="scale(0.05899473,0.05899473)"><g
       id="g5"><g
         id="g7"><path
           style="fill:#010002"
           d="M 254.26,0 C 113.845,0 0,113.845 0,254.26 0,394.675 113.845,508.52 254.26,508.52 394.675,508.52 508.52,394.675 508.52,254.26 508.52,113.845 394.675,0 254.26,0 Z m 31.782,381.39 c 0,17.544 -14.239,31.782 -31.782,31.782 -17.543,0 -31.782,-14.239 -31.782,-31.782 l 0,-158.913 c 0,-17.544 14.239,-31.782 31.782,-31.782 17.543,0 31.782,14.239 31.782,31.782 l 0,158.913 z M 254.26,159.421 c -17.544,0 -31.782,-14.239 -31.782,-31.782 0,-17.543 14.239,-31.782 31.782,-31.782 17.543,0 31.782,14.239 31.782,31.782 0,17.543 -14.238,31.782 -31.782,31.782 z"
           id="path9"
           inkscape:connector-curvature="0" /></g></g></g><g
     id="g11"
     transform="translate(-239.26,-239.26)" /><g
     id="g13"
     transform="translate(-239.26,-239.26)" /><g
     id="g15"
     transform="translate(-239.26,-239.26)" /><g
     id="g17"
     transform="translate(-239.26,-239.26)" /><g
     id="g19"
     transform="translate(-239.26,-239.26)" /><g
     id="g21"
     transform="translate(-239.26,-239.26)" /><g
     id="g23"
     transform="translate(-239.26,-239.26)" /><g
     id="g25"
     transform="translate(-239.26,-239.26)" /><g
     id="g27"
     transform="translate(-239.26,-239.26)" /><g
     id="g29"
     transform="translate(-239.26,-239.26)" /><g
     id="g31"
     transform="translate(-239.26,-239.26)" /><g
     id="g33"
     transform="translate(-239.26,-239.26)" /><g
     id="g35"
     transform="translate(-239.26,-239.26)" /><g
     id="g37"
     transform="translate(-239.26,-239.26)" /><g
     id="g39"
     transform="translate(-239.26,-239.26)" /></svg>