<?xml version="1.0" encoding="UTF-8" standalone="no"?>
<!-- Generator: Adobe Illustrator 17.1.0, SVG Export Plug-In . SVG Version: 6.00 Build 0)  -->

<svg
   xmlns:dc="http://purl.org/dc/elements/1.1/"
   xmlns:cc="http://creativecommons.org/ns#"
   xmlns:rdf="http://www.w3.org/1999/02/22-rdf-syntax-ns#"
   xmlns:svg="http://www.w3.org/2000/svg"
   xmlns="http://www.w3.org/2000/svg"
   xmlns:sodipodi="http://sodipodi.sourceforge.net/DTD/sodipodi-0.dtd"
   xmlns:inkscape="http://www.inkscape.org/namespaces/inkscape"
   version="1.1"
   id="Capa_1"
   x="0px"
   y="0px"
   viewBox="0 0 29.999985 25.66288"
   xml:space="preserve"
   inkscape:version="0.91 r13725"
   sodipodi:docname="lift8.svg"
   width="29.999985"
   height="25.66288"><metadata
     id="metadata45"><rdf:RDF><cc:Work
         rdf:about=""><dc:format>image/svg+xml</dc:format><dc:type
           rdf:resource="http://purl.org/dc/dcmitype/StillImage" /><dc:title></dc:title></cc:Work></rdf:RDF></metadata><defs
     id="defs43" /><sodipodi:namedview
     pagecolor="#ffffff"
     bordercolor="#666666"
     borderopacity="1"
     objecttolerance="10"
     gridtolerance="10"
     guidetolerance="10"
     inkscape:pageopacity="0"
     inkscape:pageshadow="2"
     inkscape:window-width="1920"
     inkscape:window-height="1018"
     id="namedview41"
     showgrid="false"
     fit-margin-top="0"
     fit-margin-left="0"
     fit-margin-right="0"
     fit-margin-bottom="0"
     inkscape:zoom="1.7662824"
     inkscape:cx="-162.26803"
     inkscape:cy="-14.876585"
     inkscape:window-x="-8"
     inkscape:window-y="-8"
     inkscape:window-maximized="1"
     inkscape:current-layer="Capa_1" /><path
     d="m 29.39985,13.38362 -4.79279,2.2e-4 c -0.242,0 -0.4377,0.10497 -0.53703,0.28801 -0.0993,0.18304 -0.0806,0.40442 0.0513,0.60727 l 2.36008,3.62947 c 0.1253,0.19273 0.31557,0.30328 0.52197,0.30328 0.20641,0 0.39661,-0.11055 0.52198,-0.30328 l 2.3603,-3.62968 c 0.13189,-0.20293 0.15062,-0.42424 0.0512,-0.60735 -0.0993,-0.18296 -0.29503,-0.28794 -0.53703,-0.28794 z"
     id="path3"
     inkscape:connector-curvature="0" /><path
     d="m 24.60713,12.27918 4.7928,-2.1e-4 c 0.24199,0 0.43769,-0.10498 0.53702,-0.28801 0.0993,-0.18304 0.0806,-0.40442 -0.0513,-0.60728 L 27.52557,7.75422 C 27.40026,7.56149 27.20999,7.45101 27.00366,7.45101 c -0.20633,0 -0.3966,0.11048 -0.52198,0.30321 l -2.36029,3.62968 c -0.13189,0.20293 -0.15063,0.42424 -0.0512,0.60735 0.0993,0.18296 0.29495,0.28793 0.53695,0.28793 z"
     id="path5"
     inkscape:connector-curvature="0" /><path
     d="M 9.40183,0 1.11536,0 C 0.50035,0 0,0.50035 0,1.11543 l 0,23.43202 c 0,0.61508 0.50035,1.11543 1.11536,1.11543 l 8.28647,0 c 0.61501,0 1.11536,-0.50035 1.11536,-1.11543 l 0,-23.43202 C 10.51726,0.50035 10.01692,0 9.40183,0 Z"
     id="path7"
     inkscape:connector-curvature="0" /><path
     d="m 21.80856,0 -8.2864,0 c -0.61501,0 -1.11543,0.50035 -1.11543,1.11543 l 0,23.43202 c 0,0.61508 0.50042,1.11543 1.11543,1.11543 l 8.2864,0 c 0.61502,0 1.11544,-0.50035 1.11544,-1.11543 l 0,-23.43202 C 22.924,0.50035 22.42358,0 21.80856,0 Z"
     id="path9"
     inkscape:connector-curvature="0" /><g
     id="g11"
     transform="translate(-192.33623,-194.50506)" /><g
     id="g13"
     transform="translate(-192.33623,-194.50506)" /><g
     id="g15"
     transform="translate(-192.33623,-194.50506)" /><g
     id="g17"
     transform="translate(-192.33623,-194.50506)" /><g
     id="g19"
     transform="translate(-192.33623,-194.50506)" /><g
     id="g21"
     transform="translate(-192.33623,-194.50506)" /><g
     id="g23"
     transform="translate(-192.33623,-194.50506)" /><g
     id="g25"
     transform="translate(-192.33623,-194.50506)" /><g
     id="g27"
     transform="translate(-192.33623,-194.50506)" /><g
     id="g29"
     transform="translate(-192.33623,-194.50506)" /><g
     id="g31"
     transform="translate(-192.33623,-194.50506)" /><g
     id="g33"
     transform="translate(-192.33623,-194.50506)" /><g
     id="g35"
     transform="translate(-192.33623,-194.50506)" /><g
     id="g37"
     transform="translate(-192.33623,-194.50506)" /><g
     id="g39"
     transform="translate(-192.33623,-194.50506)" /></svg>