<?xml version="1.0" encoding="iso-8859-1"?>
<!-- Generator: Adobe Illustrator 16.0.0, SVG Export Plug-In . SVG Version: 6.00 Build 0)  -->
<!DOCTYPE svg PUBLIC "-//W3C//DTD SVG 1.1//EN" "http://www.w3.org/Graphics/SVG/1.1/DTD/svg11.dtd">
<svg version="1.1" id="Capa_1" xmlns="http://www.w3.org/2000/svg" xmlns:xlink="http://www.w3.org/1999/xlink" x="0px" y="0px"
	 width="480.543px" height="480.543px" viewBox="0 0 480.543 480.543" style="enable-background:new 0 0 480.543 480.543;"
	 xml:space="preserve">
<g>
	<g>
		<path d="M348.116,289.787c-1.812-8.523-4.166-16.875-7.131-25.075c-3.974-10.987-8.74-21.724-12.391-32.836
			c-6.823-20.771,4.948-38.105,7.16-41.256c3.876-5.517,8.408-10.58,13.19-15.322c9.207-9.128,19.361-17.288,29.984-24.803
			c-1.316-2.039-2.591-4.1-3.805-6.199c-15.279,5.99-93.854,33.452-91.938,94.121c0.384,12.162,5.083,23.737,7.979,35.526
			c1.395,5.681,2.605,11.412,3.345,17.218c0.319,2.614,0.515,5.243,0.729,7.87c0.006-0.02,0.004-0.034-0.008-0.045
			c0.007,0.076,0.202,8.326-0.164,11.9c-1.147,11.189-2.799,22.494-7.516,32.758c-4.387,9.543-11.006,17.842-19.193,24.402
			c-18.716,14.994-43.514,20.988-66.913,23.398c-1.114,0.117-2.228,0.217-3.342,0.314l-41.779,86.152
			c20.614-1.281,41.175-4.102,61.235-9.039c23.607-5.811,46.613-14.588,67.227-27.598c20.596-12.996,38.308-30.578,50.099-51.984
			c12.335-22.391,17.277-48.038,16.225-73.452C350.752,307.156,349.928,298.307,348.116,289.787z"/>
	</g>
</g>
<g>
</g>
<g>
</g>
<g>
</g>
<g>
</g>
<g>
</g>
<g>
</g>
<g>
</g>
<g>
</g>
<g>
</g>
<g>
</g>
<g>
</g>
<g>
</g>
<g>
</g>
<g>
</g>
<g>
</g>
</svg>
