<?xml version="1.0" encoding="iso-8859-1"?>
<!-- Generator: Adobe Illustrator 16.0.0, SVG Export Plug-In . SVG Version: 6.00 Build 0)  -->
<!DOCTYPE svg PUBLIC "-//W3C//DTD SVG 1.1//EN" "http://www.w3.org/Graphics/SVG/1.1/DTD/svg11.dtd">
<svg version="1.1" id="Capa_1" xmlns="http://www.w3.org/2000/svg" xmlns:xlink="http://www.w3.org/1999/xlink" x="0px" y="0px"
	 width="153.949px" height="153.948px" viewBox="0 0 153.949 153.948" style="enable-background:new 0 0 153.949 153.948;"
	 xml:space="preserve">
<g>
	<g>
		<path id="path3290" d="M17.643,49.543c-0.292-3.212,2.076-6.052,5.288-6.344l81.11-7.372c3.212-0.292,6.057,2.077,6.349,5.289
			l6.564,72.216c0.292,3.212-2.078,6.054-5.29,6.346l-81.113,7.368c-3.211,0.292-6.052-2.076-6.344-5.288L17.643,49.543z
			 M25.355,153.924l96.261-8.755c3.211-0.292,5.581-3.13,5.289-6.342l-9.558-105.158c-0.292-3.211-3.136-5.581-6.348-5.289
			l-96.261,8.752c-3.212,0.292-5.579,3.132-5.287,6.344l9.557,105.159C19.301,151.851,22.144,154.216,25.355,153.924"/>
		<path id="path3292" d="M139.76,18L44.773,0.101c-3.169-0.595-6.223,1.491-6.82,4.658l-3.429,18.196
			c-0.596,3.167,6.825,4.012,7.425,0.845l2.227-10.966c0.595-3.167,3.648-5.253,6.82-4.658l80.037,15.08
			c3.166,0.598,5.253,3.649,4.658,6.82l-7.313,38.8c-0.598,3.169-0.847,8.341-0.555,11.553l1.465,16.093
			c0.292,3.212,1.018,3.246,1.608,0.075l13.521-71.777C145.015,21.651,142.933,18.598,139.76,18"/>
	</g>
</g>
<g>
</g>
<g>
</g>
<g>
</g>
<g>
</g>
<g>
</g>
<g>
</g>
<g>
</g>
<g>
</g>
<g>
</g>
<g>
</g>
<g>
</g>
<g>
</g>
<g>
</g>
<g>
</g>
<g>
</g>
</svg>
