<?xml version="1.0" encoding="UTF-8" standalone="no"?>
<!-- Generator: Adobe Illustrator 16.0.0, SVG Export Plug-In . SVG Version: 6.00 Build 0)  -->

<svg
   xmlns:dc="http://purl.org/dc/elements/1.1/"
   xmlns:cc="http://creativecommons.org/ns#"
   xmlns:rdf="http://www.w3.org/1999/02/22-rdf-syntax-ns#"
   xmlns:svg="http://www.w3.org/2000/svg"
   xmlns="http://www.w3.org/2000/svg"
   xmlns:sodipodi="http://sodipodi.sourceforge.net/DTD/sodipodi-0.dtd"
   xmlns:inkscape="http://www.inkscape.org/namespaces/inkscape"
   version="1.1"
   id="Capa_1"
   x="0px"
   y="0px"
   width="19.846415"
   height="30"
   viewBox="0 0 19.846414 30"
   xml:space="preserve"
   inkscape:version="0.91 r13725"
   sodipodi:docname="pin56_small.svg"><metadata
     id="metadata41"><rdf:RDF><cc:Work
         rdf:about=""><dc:format>image/svg+xml</dc:format><dc:type
           rdf:resource="http://purl.org/dc/dcmitype/StillImage" /><dc:title></dc:title></cc:Work></rdf:RDF></metadata><defs
     id="defs39" /><sodipodi:namedview
     pagecolor="#ffffff"
     bordercolor="#666666"
     borderopacity="1"
     objecttolerance="10"
     gridtolerance="10"
     guidetolerance="10"
     inkscape:pageopacity="0"
     inkscape:pageshadow="2"
     inkscape:window-width="1920"
     inkscape:window-height="1018"
     id="namedview37"
     showgrid="false"
     inkscape:zoom="2.4281686"
     inkscape:cx="-33.474617"
     inkscape:cy="-36.075577"
     inkscape:window-x="-8"
     inkscape:window-y="-8"
     inkscape:window-maximized="1"
     inkscape:current-layer="Capa_1"
     fit-margin-top="-2.4980018e-016"
     borderlayer="false"
     fit-margin-left="0"
     fit-margin-right="0"
     fit-margin-bottom="0" /><g
     id="g3"
     transform="matrix(0.06429738,0,0,0.06429738,-5.0767925,0)"><path
       d="m 233.292,0 c -85.1,0 -154.334,69.234 -154.334,154.333 0,34.275 21.887,90.155 66.908,170.834 31.846,57.063 63.168,104.643 64.484,106.64 l 22.942,34.775 22.941,-34.774 c 1.317,-1.998 32.641,-49.577 64.483,-106.64 45.023,-80.68 66.908,-136.559 66.908,-170.834 C 387.625,69.234 318.391,0 233.292,0 Z m 0,233.291 c -44.182,0 -80,-35.817 -80,-80 0,-44.183 35.818,-80 80,-80 44.182,0 80,35.817 80,80 0,44.183 -35.819,80 -80,80 z"
       id="path5"
       inkscape:connector-curvature="0" /></g><g
     id="g7"
     transform="translate(-144.74111,-219.45584)" /><g
     id="g9"
     transform="translate(-144.74111,-219.45584)" /><g
     id="g11"
     transform="translate(-144.74111,-219.45584)" /><g
     id="g13"
     transform="translate(-144.74111,-219.45584)" /><g
     id="g15"
     transform="translate(-144.74111,-219.45584)" /><g
     id="g17"
     transform="translate(-144.74111,-219.45584)" /><g
     id="g19"
     transform="translate(-144.74111,-219.45584)" /><g
     id="g21"
     transform="translate(-144.74111,-219.45584)" /><g
     id="g23"
     transform="translate(-144.74111,-219.45584)" /><g
     id="g25"
     transform="translate(-144.74111,-219.45584)" /><g
     id="g27"
     transform="translate(-144.74111,-219.45584)" /><g
     id="g29"
     transform="translate(-144.74111,-219.45584)" /><g
     id="g31"
     transform="translate(-144.74111,-219.45584)" /><g
     id="g33"
     transform="translate(-144.74111,-219.45584)" /><g
     id="g35"
     transform="translate(-144.74111,-219.45584)" /></svg>