<?xml version="1.0" encoding="UTF-8" standalone="no"?>
<!-- Generator: Adobe Illustrator 16.0.0, SVG Export Plug-In . SVG Version: 6.00 Build 0)  -->

<svg
   xmlns:dc="http://purl.org/dc/elements/1.1/"
   xmlns:cc="http://creativecommons.org/ns#"
   xmlns:rdf="http://www.w3.org/1999/02/22-rdf-syntax-ns#"
   xmlns:svg="http://www.w3.org/2000/svg"
   xmlns="http://www.w3.org/2000/svg"
   xmlns:sodipodi="http://sodipodi.sourceforge.net/DTD/sodipodi-0.dtd"
   xmlns:inkscape="http://www.inkscape.org/namespaces/inkscape"
   version="1.1"
   id="Capa_1"
   x="0px"
   y="0px"
   width="30.000002"
   height="24.430374"
   viewBox="0 0 30.000001 24.430373"
   xml:space="preserve"
   inkscape:version="0.91 r13725"
   sodipodi:docname="stairs7.svg"><metadata
     id="metadata41"><rdf:RDF><cc:Work
         rdf:about=""><dc:format>image/svg+xml</dc:format><dc:type
           rdf:resource="http://purl.org/dc/dcmitype/StillImage" /><dc:title></dc:title></cc:Work></rdf:RDF></metadata><defs
     id="defs39" /><sodipodi:namedview
     pagecolor="#ffffff"
     bordercolor="#666666"
     borderopacity="1"
     objecttolerance="10"
     gridtolerance="10"
     guidetolerance="10"
     inkscape:pageopacity="0"
     inkscape:pageshadow="2"
     inkscape:window-width="1162"
     inkscape:window-height="620"
     id="namedview37"
     showgrid="false"
     fit-margin-top="0"
     fit-margin-left="0"
     fit-margin-right="0"
     fit-margin-bottom="0"
     inkscape:zoom="1.2367353"
     inkscape:cx="-170.21387"
     inkscape:cy="12.214678"
     inkscape:window-x="0"
     inkscape:window-y="0"
     inkscape:window-maximized="0"
     inkscape:current-layer="Capa_1" /><g
     id="g3"
     transform="matrix(0.06608716,0,0,0.06608716,0,-2.7847807)"><path
       d="m 453.946,42.138 0,30.262 -129.12,0 0,109.396 -108.947,0 0,121.064 -112.984,0 0,108.947 -102.895,0 0,-30.264 72.631,0 0,-108.944 112.984,0 0,-121.065 108.947,0 0,-109.396 159.384,0 z M 173.419,85.298 90.541,96.132 c -1.212,0.154 -2.155,1.103 -2.323,2.308 -0.171,1.203 0.482,2.373 1.596,2.861 l 33.277,14.431 -55.218,55.212 c -1.052,1.064 -1.058,2.772 0,3.831 l 19.115,19.115 c 1.052,1.058 2.767,1.052 3.824,0 l 55.219,-55.219 14.431,33.272 c 0.481,1.111 1.652,1.773 2.855,1.602 0.605,-0.089 1.138,-0.37 1.537,-0.769 0.408,-0.405 0.686,-0.949 0.768,-1.561 l 10.835,-82.881 c 0.109,-0.833 -0.169,-1.664 -0.769,-2.261 -0.591,-0.586 -1.433,-0.876 -2.269,-0.775 z"
       id="path5"
       inkscape:connector-curvature="0" /></g><g
     id="g7"
     transform="translate(-211.973,-214.75731)" /><g
     id="g9"
     transform="translate(-211.973,-214.75731)" /><g
     id="g11"
     transform="translate(-211.973,-214.75731)" /><g
     id="g13"
     transform="translate(-211.973,-214.75731)" /><g
     id="g15"
     transform="translate(-211.973,-214.75731)" /><g
     id="g17"
     transform="translate(-211.973,-214.75731)" /><g
     id="g19"
     transform="translate(-211.973,-214.75731)" /><g
     id="g21"
     transform="translate(-211.973,-214.75731)" /><g
     id="g23"
     transform="translate(-211.973,-214.75731)" /><g
     id="g25"
     transform="translate(-211.973,-214.75731)" /><g
     id="g27"
     transform="translate(-211.973,-214.75731)" /><g
     id="g29"
     transform="translate(-211.973,-214.75731)" /><g
     id="g31"
     transform="translate(-211.973,-214.75731)" /><g
     id="g33"
     transform="translate(-211.973,-214.75731)" /><g
     id="g35"
     transform="translate(-211.973,-214.75731)" /></svg>