<?xml version="1.0" encoding="UTF-8" standalone="no"?>
<!-- Generator: Adobe Illustrator 16.0.0, SVG Export Plug-In . SVG Version: 6.00 Build 0)  -->

<svg
   xmlns:dc="http://purl.org/dc/elements/1.1/"
   xmlns:cc="http://creativecommons.org/ns#"
   xmlns:rdf="http://www.w3.org/1999/02/22-rdf-syntax-ns#"
   xmlns:svg="http://www.w3.org/2000/svg"
   xmlns="http://www.w3.org/2000/svg"
   xmlns:sodipodi="http://sodipodi.sourceforge.net/DTD/sodipodi-0.dtd"
   xmlns:inkscape="http://www.inkscape.org/namespaces/inkscape"
   version="1.1"
   id="Capa_1"
   x="0px"
   y="0px"
   width="30.000002"
   height="24.430374"
   viewBox="0 0 30.000001 24.430373"
   xml:space="preserve"
   inkscape:version="0.91 r13725"
   sodipodi:docname="stairs6.svg"><metadata
     id="metadata41"><rdf:RDF><cc:Work
         rdf:about=""><dc:format>image/svg+xml</dc:format><dc:type
           rdf:resource="http://purl.org/dc/dcmitype/StillImage" /><dc:title></dc:title></cc:Work></rdf:RDF></metadata><defs
     id="defs39" /><sodipodi:namedview
     pagecolor="#ffffff"
     bordercolor="#666666"
     borderopacity="1"
     objecttolerance="10"
     gridtolerance="10"
     guidetolerance="10"
     inkscape:pageopacity="0"
     inkscape:pageshadow="2"
     inkscape:window-width="1920"
     inkscape:window-height="1018"
     id="namedview37"
     showgrid="false"
     fit-margin-top="0"
     fit-margin-left="0"
     fit-margin-right="0"
     fit-margin-bottom="0"
     inkscape:zoom="1.613469"
     inkscape:cx="2.9014272"
     inkscape:cy="8.8728873"
     inkscape:window-x="-8"
     inkscape:window-y="-8"
     inkscape:window-maximized="1"
     inkscape:current-layer="Capa_1" /><g
     id="g3"
     transform="matrix(0.06608716,0,0,0.06608716,0,-2.7847807)"><path
       d="m 453.946,42.138 0,30.262 -129.12,0 0,109.396 -108.947,0 0,121.064 -112.984,0 0,108.947 -102.895,0 0,-30.264 72.631,0 0,-108.944 112.984,0 0,-121.065 108.947,0 0,-109.396 159.384,0 z M 70.137,194.659 153.015,183.824 c 1.212,-0.15 2.157,-1.102 2.326,-2.305 0.168,-1.206 -0.485,-2.373 -1.599,-2.864 l -33.278,-14.431 55.219,-55.213 c 1.055,-1.063 1.061,-2.772 0,-3.83 L 156.57,86.066 c -1.055,-1.058 -2.767,-1.052 -3.828,0 L 97.524,141.284 83.096,108.015 c -0.485,-1.114 -1.652,-1.776 -2.858,-1.604 -0.603,0.092 -1.138,0.369 -1.537,0.769 -0.405,0.405 -0.683,0.952 -0.769,1.561 l -10.834,82.881 c -0.109,0.833 0.168,1.664 0.769,2.264 0.6,0.59 1.437,0.883 2.27,0.773 z"
       id="path5"
       inkscape:connector-curvature="0" /></g><g
     id="g7"
     transform="translate(-211.973,-214.75731)" /><g
     id="g9"
     transform="translate(-211.973,-214.75731)" /><g
     id="g11"
     transform="translate(-211.973,-214.75731)" /><g
     id="g13"
     transform="translate(-211.973,-214.75731)" /><g
     id="g15"
     transform="translate(-211.973,-214.75731)" /><g
     id="g17"
     transform="translate(-211.973,-214.75731)" /><g
     id="g19"
     transform="translate(-211.973,-214.75731)" /><g
     id="g21"
     transform="translate(-211.973,-214.75731)" /><g
     id="g23"
     transform="translate(-211.973,-214.75731)" /><g
     id="g25"
     transform="translate(-211.973,-214.75731)" /><g
     id="g27"
     transform="translate(-211.973,-214.75731)" /><g
     id="g29"
     transform="translate(-211.973,-214.75731)" /><g
     id="g31"
     transform="translate(-211.973,-214.75731)" /><g
     id="g33"
     transform="translate(-211.973,-214.75731)" /><g
     id="g35"
     transform="translate(-211.973,-214.75731)" /></svg>