<?xml version="1.0" encoding="UTF-8" standalone="no"?>
<!-- Created with Inkscape (http://www.inkscape.org/) -->

<svg
   xmlns:dc="http://purl.org/dc/elements/1.1/"
   xmlns:cc="http://creativecommons.org/ns#"
   xmlns:rdf="http://www.w3.org/1999/02/22-rdf-syntax-ns#"
   xmlns:svg="http://www.w3.org/2000/svg"
   xmlns="http://www.w3.org/2000/svg"
   xmlns:sodipodi="http://sodipodi.sourceforge.net/DTD/sodipodi-0.dtd"
   xmlns:inkscape="http://www.inkscape.org/namespaces/inkscape"
   id="svg9610"
   version="1.1"
   inkscape:version="0.91 r13725"
   xml:space="preserve"
   width="890.66125"
   height="391.4899"
   viewBox="0 0 890.66125 391.4899"
   sodipodi:docname="Boynton Hall 3.svg"
   style="enable-background:new"><metadata
     id="metadata9616"><rdf:RDF><cc:Work
         rdf:about=""><dc:format>image/svg+xml</dc:format><dc:type
           rdf:resource="http://purl.org/dc/dcmitype/StillImage" /><dc:title></dc:title></cc:Work></rdf:RDF></metadata><defs
     id="defs9614"><clipPath
       clipPathUnits="userSpaceOnUse"
       id="clipPath9628"><path
         d="M 0,0 612,0 612,792 0,792 0,0 Z"
         id="path9630"
         inkscape:connector-curvature="0" /></clipPath><filter
       inkscape:collect="always"
       style="color-interpolation-filters:sRGB"
       id="filter10326"><feBlend
         inkscape:collect="always"
         mode="lighten"
         in2="BackgroundImage"
         id="feBlend10328" /></filter></defs><sodipodi:namedview
     pagecolor="#ffffff"
     bordercolor="#666666"
     borderopacity="1"
     objecttolerance="10"
     gridtolerance="10"
     guidetolerance="10"
     inkscape:pageopacity="0"
     inkscape:pageshadow="2"
     inkscape:window-width="1920"
     inkscape:window-height="1018"
     id="namedview9612"
     showgrid="false"
     inkscape:zoom="0.80920139"
     inkscape:cx="437.90363"
     inkscape:cy="290.59681"
     inkscape:window-x="-8"
     inkscape:window-y="-8"
     inkscape:window-maximized="1"
     inkscape:current-layer="layer14"
     fit-margin-top="0"
     fit-margin-left="0"
     fit-margin-right="0"
     fit-margin-bottom="0" /><g
     inkscape:groupmode="layer"
     id="layer14"
     inkscape:label="Rooms"
     style="display:inline"
     transform="translate(70.972382,-248.83475)"><rect
       style="opacity:1;fill:#eeeeee;fill-opacity:1;stroke:none;stroke-width:3.71199989;stroke-miterlimit:4;stroke-dasharray:none;stroke-opacity:0"
       id="rect10410"
       width="36.336601"
       height="108.26823"
       x="495.88821"
       y="-817.42035"
       transform="matrix(0,1,-1,0,0,0)" /><rect
       style="opacity:1;fill:#eeeeee;fill-opacity:1;stroke:none;stroke-width:3.71199989;stroke-miterlimit:4;stroke-dasharray:none;stroke-opacity:0"
       id="rect10412"
       width="72.362289"
       height="55.582626"
       x="560.04498"
       y="-711.27649"
       transform="matrix(0,1,-1,0,0,0)" /><rect
       style="opacity:1;fill:#eeeeee;fill-opacity:1;stroke:none;stroke-width:3.71199989;stroke-miterlimit:4;stroke-dasharray:none;stroke-opacity:0"
       id="rect10414"
       width="130.04237"
       height="61.350636"
       x="436.03284"
       y="-389.84109"
       transform="matrix(0,1,-1,0,0,0)" /><rect
       style="opacity:1;fill:#eeeeee;fill-opacity:1;stroke:none;stroke-width:3.71199989;stroke-miterlimit:4;stroke-dasharray:none;stroke-opacity:0"
       id="rect10416"
       width="41.68697"
       height="13.371292"
       x="436.8194"
       y="-405.30984"
       transform="matrix(0,1,-1,0,0,0)" /><rect
       style="opacity:1;fill:#eeeeee;fill-opacity:1;stroke:none;stroke-width:3.71199989;stroke-miterlimit:4;stroke-dasharray:none;stroke-opacity:0"
       id="rect10418"
       width="29.626589"
       height="60.826271"
       x="365.50583"
       y="-389.31674"
       transform="matrix(0,1,-1,0,0,0)" /><rect
       style="opacity:1;fill:#eeeeee;fill-opacity:1;stroke:none;stroke-width:3.71199989;stroke-miterlimit:4;stroke-dasharray:none;stroke-opacity:0"
       id="rect10420"
       width="36.707382"
       height="77.864143"
       x="286.76736"
       y="-332.80872"
       transform="matrix(0,1,-1,0,0,0)" /><rect
       style="opacity:1;fill:#eeeeee;fill-opacity:1;stroke:none;stroke-width:3.71199989;stroke-miterlimit:4;stroke-dasharray:none;stroke-opacity:0"
       id="rect10422"
       width="23.359243"
       height="52.280209"
       x="309.01425"
       y="-332.43793"
       transform="matrix(0,1,-1,0,0,0)" /><rect
       style="opacity:1;fill:#eeeeee;fill-opacity:1;stroke:none;stroke-width:3.71199989;stroke-miterlimit:4;stroke-dasharray:none;stroke-opacity:0"
       id="rect10424"
       width="101.22338"
       height="73.414764"
       x="288.99203"
       y="-257.16931"
       transform="matrix(0,1,-1,0,0,0)" /><rect
       style="opacity:1;fill:#eeeeee;fill-opacity:1;stroke:none;stroke-width:3.71199989;stroke-miterlimit:4;stroke-dasharray:none;stroke-opacity:0"
       id="rect10426"
       width="70.789192"
       height="55.058262"
       x="436.55719"
       y="-185.86334"
       transform="matrix(0,1,-1,0,0,0)" /></g><g
     inkscape:groupmode="layer"
     id="layer15"
     inkscape:label="Walls"
     style="display:inline"
     transform="translate(70.972382,-248.83475)"><rect
       style="fill:#ac2b37;fill-opacity:1;stroke:none;stroke-width:3.71199989;stroke-miterlimit:4;stroke-dasharray:none;stroke-opacity:0"
       id="rect10184"
       width="8.8987589"
       height="113.08839"
       x="631.22351"
       y="-764.39856"
       transform="matrix(0,1,-1,0,0,0)" /><rect
       style="fill:#ac2b37;fill-opacity:1;stroke:none;stroke-width:3.71199989;stroke-miterlimit:4;stroke-dasharray:none;stroke-opacity:0"
       id="rect10186"
       width="109.21222"
       height="12.850128"
       x="531.11243"
       y="-661.69202"
       transform="matrix(0,1,-1,0,0,0)" /><rect
       style="fill:#ac2b37;fill-opacity:1;stroke:none;stroke-width:3.71199989;stroke-miterlimit:4;stroke-dasharray:none;stroke-opacity:0"
       id="rect10188"
       width="10.621564"
       height="31.23563"
       x="527.77539"
       y="-680.23114"
       transform="matrix(0,1,-1,0,0,0)" /><rect
       style="fill:#ac2b37;fill-opacity:1;stroke:none;stroke-width:3.71199989;stroke-miterlimit:4;stroke-dasharray:none;stroke-opacity:0"
       id="rect10190"
       width="106.04355"
       height="7.7864141"
       x="530.74164"
       y="-764.02777"
       transform="matrix(0,1,-1,0,0,0)" /><rect
       style="fill:#ac2b37;fill-opacity:1;stroke:none;stroke-width:3.71199989;stroke-miterlimit:4;stroke-dasharray:none;stroke-opacity:0"
       id="rect10192"
       width="9.6403103"
       height="114.20074"
       x="526.66302"
       y="-819.64502"
       transform="matrix(0,1,-1,0,0,0)" /><rect
       style="fill:#ac2b37;fill-opacity:1;stroke:none;stroke-width:3.71199989;stroke-miterlimit:4;stroke-dasharray:none;stroke-opacity:0"
       id="rect10194"
       width="252.74365"
       height="8.5209217"
       x="279.24786"
       y="-819.68884"
       transform="matrix(0,1,-1,0,0,0)" /><rect
       style="fill:#ac2b37;fill-opacity:1;stroke:none;stroke-width:3.71199989;stroke-miterlimit:4;stroke-dasharray:none;stroke-opacity:0"
       id="rect10196"
       width="12.846928"
       height="623.73145"
       x="278.98569"
       y="-815.36279"
       transform="matrix(0,1,-1,0,0,0)" /><rect
       style="fill:#ac2b37;fill-opacity:1;stroke:none;stroke-width:3.71199989;stroke-miterlimit:4;stroke-dasharray:none;stroke-opacity:0"
       id="rect10198"
       width="9.6473503"
       height="464.2988"
       x="561.88031"
       y="-651.76111"
       transform="matrix(0,1,-1,0,0,0)" /><rect
       style="fill:#ac2b37;fill-opacity:1;stroke:none;stroke-width:3.71199989;stroke-miterlimit:4;stroke-dasharray:none;stroke-opacity:0"
       id="rect10202"
       width="7.6997776"
       height="263.44302"
       x="608.97662"
       y="-192.47064"
       transform="matrix(0,1,-1,0,0,0)" /><rect
       style="fill:#ac2b37;fill-opacity:1;stroke:none;stroke-width:3.71199989;stroke-miterlimit:4;stroke-dasharray:none;stroke-opacity:0"
       id="rect10204"
       width="364.77661"
       height="8.1016855"
       x="248.83475"
       y="62.685364"
       transform="matrix(0,1,-1,0,0,0)" /><rect
       style="fill:#ac2b37;fill-opacity:1;stroke:none;stroke-width:3.71199989;stroke-miterlimit:4;stroke-dasharray:none;stroke-opacity:0"
       id="rect10206"
       width="12.322563"
       height="264.27966"
       x="249.09692"
       y="-197.92371"
       transform="matrix(0,1,-1,0,0,0)" /><rect
       style="fill:#ac2b37;fill-opacity:1;stroke:none;stroke-width:3.71199989;stroke-miterlimit:4;stroke-dasharray:none;stroke-opacity:0"
       id="rect10208"
       width="34.297302"
       height="9.4549313"
       x="257.29022"
       y="-198.21503"
       transform="matrix(0,1,-1,0,0,0)" /><rect
       style="fill:#ac2b37;fill-opacity:1;stroke:none;stroke-width:3.71199989;stroke-miterlimit:4;stroke-dasharray:none;stroke-opacity:0"
       id="rect10232"
       width="47.454979"
       height="4.1949153"
       x="515.73621"
       y="-499.43326"
       transform="matrix(0,1,-1,0,0,0)" /><rect
       style="fill:#ac2b37;fill-opacity:1;stroke:none;stroke-width:3.71199989;stroke-miterlimit:4;stroke-dasharray:none;stroke-opacity:0"
       id="rect10234"
       width="59.777542"
       height="3.9327331"
       x="286.58899"
       y="-498.38452"
       transform="matrix(0,1,-1,0,0,0)" /><rect
       style="fill:#ac2b37;fill-opacity:1;stroke:none;stroke-width:3.71199989;stroke-miterlimit:4;stroke-dasharray:none;stroke-opacity:0"
       id="rect10236"
       width="131.87766"
       height="3.4083686"
       x="364.98145"
       y="-498.38452"
       transform="matrix(0,1,-1,0,0,0)" /><rect
       style="fill:#ac2b37;fill-opacity:1;stroke:none;stroke-width:3.71199989;stroke-miterlimit:4;stroke-dasharray:none;stroke-opacity:0"
       id="rect10238"
       width="130.56674"
       height="3.6705508"
       x="433.01773"
       y="-391.93857"
       transform="matrix(0,1,-1,0,0,0)" /><rect
       style="fill:#ac2b37;fill-opacity:1;stroke:none;stroke-width:3.71199989;stroke-miterlimit:4;stroke-dasharray:none;stroke-opacity:0"
       id="rect10240"
       width="4.0638242"
       height="14.682203"
       x="476.40891"
       y="-405.44095"
       transform="matrix(0,1,-1,0,0,0)" /><rect
       style="fill:#ac2b37;fill-opacity:1;stroke:none;stroke-width:3.71199989;stroke-miterlimit:4;stroke-dasharray:none;stroke-opacity:0"
       id="rect10242"
       width="7.734375"
       height="3.8016419"
       x="472.73834"
       y="-407.27621"
       transform="matrix(0,1,-1,0,0,0)" /><rect
       style="fill:#ac2b37;fill-opacity:1;stroke:none;stroke-width:3.71199989;stroke-miterlimit:4;stroke-dasharray:none;stroke-opacity:0"
       id="rect10244"
       width="4.1949153"
       height="60.957363"
       x="435.24631"
       y="-407.14514"
       transform="matrix(0,1,-1,0,0,0)" /><rect
       style="fill:#ac2b37;fill-opacity:1;stroke:none;stroke-width:3.71199989;stroke-miterlimit:4;stroke-dasharray:none;stroke-opacity:0"
       id="rect10246"
       width="6.6201005"
       height="3.9982786"
       x="436.36057"
       y="-407.21066"
       transform="matrix(0,1,-1,0,0,0)" /><rect
       style="fill:#ac2b37;fill-opacity:1;stroke:none;stroke-width:3.71199989;stroke-miterlimit:4;stroke-dasharray:none;stroke-opacity:0"
       id="rect10248"
       width="126.06575"
       height="3.5224254"
       x="435.08002"
       y="-330.58405"
       transform="matrix(0,1,-1,0,0,0)" /><rect
       style="fill:#ac2b37;fill-opacity:1;stroke:none;stroke-width:3.71199989;stroke-miterlimit:4;stroke-dasharray:none;stroke-opacity:0"
       id="rect10250"
       width="7.4156327"
       height="9.6403227"
       x="452.69214"
       y="-329.47168"
       transform="matrix(0,1,-1,0,0,0)" /><rect
       style="fill:#ac2b37;fill-opacity:1;stroke:none;stroke-width:3.71199989;stroke-miterlimit:4;stroke-dasharray:none;stroke-opacity:0"
       id="rect10252"
       width="6.4886785"
       height="113.27379"
       x="452.87753"
       y="-299.06763"
       transform="matrix(0,1,-1,0,0,0)" /><rect
       style="fill:#ac2b37;fill-opacity:1;stroke:none;stroke-width:3.71199989;stroke-miterlimit:4;stroke-dasharray:none;stroke-opacity:0"
       id="rect10254"
       width="78.04953"
       height="6.6740694"
       x="432.29916"
       y="-189.31622"
       transform="matrix(0,1,-1,0,0,0)" /><rect
       style="fill:#ac2b37;fill-opacity:1;stroke:none;stroke-width:3.71199989;stroke-miterlimit:4;stroke-dasharray:none;stroke-opacity:0"
       id="rect10256"
       width="81.20118"
       height="5.1909428"
       x="529.8147"
       y="-187.27692"
       transform="matrix(0,1,-1,0,0,0)" /><rect
       style="fill:#ac2b37;fill-opacity:1;stroke:none;stroke-width:3.71199989;stroke-miterlimit:4;stroke-dasharray:none;stroke-opacity:0"
       id="rect10258"
       width="51.770412"
       height="8.1108522"
       x="561.84094"
       y="-192.60693"
       transform="matrix(0,1,-1,0,0,0)" /><rect
       style="fill:#ac2b37;fill-opacity:1;stroke:none;stroke-width:3.71199989;stroke-miterlimit:4;stroke-dasharray:none;stroke-opacity:0"
       id="rect10260"
       width="3.9327331"
       height="47.979343"
       x="534.08899"
       y="-182.71716"
       transform="matrix(0,1,-1,0,0,0)" /><rect
       style="fill:#ac2b37;fill-opacity:1;stroke:none;stroke-width:3.71199989;stroke-miterlimit:4;stroke-dasharray:none;stroke-opacity:0"
       id="rect10262"
       width="5.5058265"
       height="3.4083686"
       x="500.26749"
       y="-131.85382"
       transform="matrix(0,1,-1,0,0,0)" /><rect
       style="fill:#ac2b37;fill-opacity:1;stroke:none;stroke-width:3.71199989;stroke-miterlimit:4;stroke-dasharray:none;stroke-opacity:0"
       id="rect10264"
       width="4.001555"
       height="54.457119"
       x="504.72458"
       y="-182.97937"
       transform="matrix(0,1,-1,0,0,0)" /><rect
       style="fill:#ac2b37;fill-opacity:1;stroke:none;stroke-width:3.71199989;stroke-miterlimit:4;stroke-dasharray:none;stroke-opacity:0"
       id="rect10266"
       width="46.275158"
       height="3.6705508"
       x="436.03284"
       y="-132.11597"
       transform="matrix(0,1,-1,0,0,0)" /><rect
       style="fill:#ac2b37;fill-opacity:1;stroke:none;stroke-width:3.71199989;stroke-miterlimit:4;stroke-dasharray:none;stroke-opacity:0"
       id="rect10268"
       width="3.1461864"
       height="57.15572"
       x="434.45975"
       y="-185.33899"
       transform="matrix(0,1,-1,0,0,0)" /><rect
       style="fill:#ac2b37;fill-opacity:1;stroke:none;stroke-width:3.71199989;stroke-miterlimit:4;stroke-dasharray:none;stroke-opacity:0"
       id="rect10270"
       width="46.533092"
       height="4.078598"
       x="358.32822"
       y="-151.12573"
       transform="matrix(0,1,-1,0,0,0)" /><rect
       style="fill:#ac2b37;fill-opacity:1;stroke:none;stroke-width:3.71199989;stroke-miterlimit:4;stroke-dasharray:none;stroke-opacity:0"
       id="rect10272"
       width="4.4493794"
       height="23.359243"
       x="403.37817"
       y="-151.12573"
       transform="matrix(0,1,-1,0,0,0)" /><rect
       style="fill:#ac2b37;fill-opacity:1;stroke:none;stroke-width:3.71199989;stroke-miterlimit:4;stroke-dasharray:none;stroke-opacity:0"
       id="rect10274"
       width="149.18167"
       height="7.8654661"
       x="256.7002"
       y="-190.05829"
       transform="matrix(0,1,-1,0,0,0)" /><rect
       style="fill:#ac2b37;fill-opacity:1;stroke:none;stroke-width:3.71199989;stroke-miterlimit:4;stroke-dasharray:none;stroke-opacity:0"
       id="rect10276"
       width="5.7680087"
       height="68.167374"
       x="386.48041"
       y="-255.86597"
       transform="matrix(0,1,-1,0,0,0)" /><rect
       style="fill:#ac2b37;fill-opacity:1;stroke:none;stroke-width:3.71199989;stroke-miterlimit:4;stroke-dasharray:none;stroke-opacity:0"
       id="rect10278"
       width="46.930614"
       height="4.4570975"
       x="345.31778"
       y="-258.75"
       transform="matrix(0,1,-1,0,0,0)" /><rect
       style="fill:#ac2b37;fill-opacity:1;stroke:none;stroke-width:3.71199989;stroke-miterlimit:4;stroke-dasharray:none;stroke-opacity:0"
       id="rect10280"
       width="103.56197"
       height="10.225106"
       x="285.27808"
       y="-210.24628"
       transform="matrix(0,1,-1,0,0,0)" /><rect
       style="fill:#ac2b37;fill-opacity:1;stroke:none;stroke-width:3.71199989;stroke-miterlimit:4;stroke-dasharray:none;stroke-opacity:0"
       id="rect10282"
       width="37.098782"
       height="3.5394597"
       x="289.21078"
       y="-257.57019"
       transform="matrix(0,1,-1,0,0,0)" /><rect
       style="fill:#ac2b37;fill-opacity:1;stroke:none;stroke-width:3.71199989;stroke-miterlimit:4;stroke-dasharray:none;stroke-opacity:0"
       id="rect10284"
       width="41.156761"
       height="3.1516438"
       x="286.76736"
       y="-324.65155"
       transform="matrix(0,1,-1,0,0,0)" /><rect
       style="fill:#ac2b37;fill-opacity:1;stroke:none;stroke-width:3.71199989;stroke-miterlimit:4;stroke-dasharray:none;stroke-opacity:0"
       id="rect10286"
       width="78.04953"
       height="4.6797352"
       x="287.13815"
       y="-334.66266"
       transform="matrix(0,1,-1,0,0,0)" /><rect
       style="fill:#ac2b37;fill-opacity:1;stroke:none;stroke-width:3.71199989;stroke-miterlimit:4;stroke-dasharray:none;stroke-opacity:0"
       id="rect10288"
       width="64.516006"
       height="5.9325061"
       x="327.55334"
       y="-330.58405"
       transform="matrix(0,1,-1,0,0,0)" /><rect
       style="fill:#ac2b37;fill-opacity:1;stroke:none;stroke-width:3.71199989;stroke-miterlimit:4;stroke-dasharray:none;stroke-opacity:0"
       id="rect10290"
       width="5.5617247"
       height="19.836817"
       x="386.32224"
       y="-328.17395"
       transform="matrix(0,1,-1,0,0,0)" /><rect
       style="fill:#ac2b37;fill-opacity:1;stroke:none;stroke-width:3.71199989;stroke-miterlimit:4;stroke-dasharray:none;stroke-opacity:0"
       id="rect10292"
       width="5.7471151"
       height="10.752667"
       x="386.69302"
       y="-291.65198"
       transform="matrix(0,1,-1,0,0,0)" /><rect
       style="fill:#ac2b37;fill-opacity:1;stroke:none;stroke-width:3.71199989;stroke-miterlimit:4;stroke-dasharray:none;stroke-opacity:0"
       id="rect10294"
       width="63.774441"
       height="5.1909428"
       x="328.66568"
       y="-284.60712"
       transform="matrix(0,1,-1,0,0,0)" /><rect
       style="fill:#ac2b37;fill-opacity:1;stroke:none;stroke-width:3.71199989;stroke-miterlimit:4;stroke-dasharray:none;stroke-opacity:0"
       id="rect10296"
       width="7.0561032"
       height="48.680988"
       x="327.55334"
       y="-327.80316"
       transform="matrix(0,1,-1,0,0,0)" /><rect
       style="fill:#ac2b37;fill-opacity:1;stroke:none;stroke-width:3.71199989;stroke-miterlimit:4;stroke-dasharray:none;stroke-opacity:0"
       id="rect10298"
       width="9.1768456"
       height="4.078598"
       x="318.65457"
       y="-283.12402"
       transform="matrix(0,1,-1,0,0,0)" /><rect
       style="fill:#ac2b37;fill-opacity:1;stroke:none;stroke-width:3.71199989;stroke-miterlimit:4;stroke-dasharray:none;stroke-opacity:0"
       id="rect10300"
       width="5.9325061"
       height="8.2498913"
       x="318.3765"
       y="-283.03131"
       transform="matrix(0,1,-1,0,0,0)" /><rect
       style="display:inline;opacity:1;fill:#ac2b37;fill-opacity:1;stroke:none;stroke-width:3.71199989;stroke-miterlimit:4;stroke-dasharray:none;stroke-opacity:0;filter:url(#filter10326)"
       id="rect10210"
       width="3.1145656"
       height="13.644763"
       x="305.67236"
       y="-670.37317"
       transform="matrix(0,1.25,-1.25,0,-112.5,112.5)" /><rect
       style="display:inline;opacity:1;fill:#ac2b37;fill-opacity:1;stroke:none;stroke-width:3.71199989;stroke-miterlimit:4;stroke-dasharray:none;stroke-opacity:0;filter:url(#filter10326)"
       id="rect10212"
       width="26.844589"
       height="3.7078164"
       x="305.67236"
       y="-658.80481"
       transform="matrix(0,1.25,-1.25,0,-112.5,112.5)" /><rect
       style="display:inline;opacity:1;fill:#ac2b37;fill-opacity:1;stroke:none;stroke-width:3.71199989;stroke-miterlimit:4;stroke-dasharray:none;stroke-opacity:0;filter:url(#filter10326)"
       id="rect10214"
       width="3.2628784"
       height="8.8987598"
       x="305.37576"
       y="-703.89185"
       transform="matrix(0,1.25,-1.25,0,-112.5,112.5)" /><rect
       style="display:inline;opacity:1;fill:#ac2b37;fill-opacity:1;stroke:none;stroke-width:3.71199989;stroke-miterlimit:4;stroke-dasharray:none;stroke-opacity:0;filter:url(#filter10326)"
       id="rect10216"
       width="26.399652"
       height="3.4111907"
       x="307.89706"
       y="-701.37054"
       transform="matrix(0,1.25,-1.25,0,-112.5,112.5)" /><rect
       style="display:inline;opacity:1;fill:#ac2b37;fill-opacity:1;stroke:none;stroke-width:3.71199989;stroke-miterlimit:4;stroke-dasharray:none;stroke-opacity:0;filter:url(#filter10326)"
       id="rect10218"
       width="3.4111907"
       height="7.4156327"
       x="305.67236"
       y="-740.22845"
       transform="matrix(0,1.25,-1.25,0,-112.5,112.5)" /><rect
       style="display:inline;opacity:1;fill:#ac2b37;fill-opacity:1;stroke:none;stroke-width:3.71199989;stroke-miterlimit:4;stroke-dasharray:none;stroke-opacity:0;filter:url(#filter10326)"
       id="rect10220"
       width="2.6218219"
       height="11.64089"
       x="357.72141"
       y="-646.12183"
       transform="matrix(0,1.25,-1.25,0,-112.5,112.5)" /><rect
       style="display:inline;opacity:1;fill:#ac2b37;fill-opacity:1;stroke:none;stroke-width:3.71199989;stroke-miterlimit:4;stroke-dasharray:none;stroke-opacity:0;filter:url(#filter10326)"
       id="rect10222"
       width="14.472443"
       height="3.0413146"
       x="359.08475"
       y="-638.88562"
       transform="matrix(0,1.25,-1.25,0,-112.5,112.5)" /><rect
       style="display:inline;opacity:1;fill:#ac2b37;fill-opacity:1;stroke:none;stroke-width:3.71199989;stroke-miterlimit:4;stroke-dasharray:none;stroke-opacity:0;filter:url(#filter10326)"
       id="rect10224"
       width="3.2510593"
       height="21.813559"
       x="372.61334"
       y="-657.55298"
       transform="matrix(0,1.25,-1.25,0,-112.5,112.5)" /><rect
       style="display:inline;opacity:1;fill:#ac2b37;fill-opacity:1;stroke:none;stroke-width:3.71199989;stroke-miterlimit:4;stroke-dasharray:none;stroke-opacity:0;filter:url(#filter10326)"
       id="rect10226"
       width="58.099579"
       height="5.8728814"
       x="357.51166"
       y="-661.32837"
       transform="matrix(0,1.25,-1.25,0,-112.5,112.5)" /><rect
       style="display:inline;opacity:1;fill:#ac2b37;fill-opacity:1;stroke:none;stroke-width:3.71199989;stroke-miterlimit:4;stroke-dasharray:none;stroke-opacity:0;filter:url(#filter10326)"
       id="rect10228"
       width="3.0413136"
       height="13.423729"
       x="305.80933"
       y="-621.58154"
       transform="matrix(0,1.25,-1.25,0,-112.5,112.5)" /><rect
       style="display:inline;opacity:1;fill:#ac2b37;fill-opacity:1;stroke:none;stroke-width:3.71199989;stroke-miterlimit:4;stroke-dasharray:none;stroke-opacity:0;filter:url(#filter10326)"
       id="rect10230"
       width="54.953388"
       height="3.9851973"
       x="305.91418"
       y="-610.25531"
       transform="matrix(0,1.25,-1.25,0,-112.5,112.5)" /><rect
       style="display:inline;opacity:1;fill:#ac2b37;fill-opacity:1;stroke:none;stroke-width:3.71199989;stroke-miterlimit:4;stroke-dasharray:none;stroke-opacity:0;filter:url(#filter10326)"
       id="rect10302"
       width="44.885593"
       height="2.4120762"
       x="118.61123"
       y="-92.917381"
       transform="matrix(0,1.25,-1.25,0,-112.5,112.5)" /><rect
       style="display:inline;opacity:1;fill:#ac2b37;fill-opacity:1;stroke:none;stroke-width:3.71199989;stroke-miterlimit:4;stroke-dasharray:none;stroke-opacity:0;filter:url(#filter10326)"
       id="rect10304"
       width="2.5213206"
       height="36.929848"
       x="161.06754"
       y="-74.897903"
       transform="matrix(0,1.25,-1.25,0,-112.5,112.5)" /><rect
       style="display:inline;opacity:1;fill:#ac2b37;fill-opacity:1;stroke:none;stroke-width:3.71199989;stroke-miterlimit:4;stroke-dasharray:none;stroke-opacity:0;filter:url(#filter10326)"
       id="rect10306"
       width="32.720341"
       height="2.7266948"
       x="201.14619"
       y="-403.13135"
       transform="matrix(0,1.25,-1.25,0,-112.5,112.5)" /><rect
       style="display:inline;opacity:1;fill:#ac2b37;fill-opacity:1;stroke:none;stroke-width:3.71199989;stroke-miterlimit:4;stroke-dasharray:none;stroke-opacity:0;filter:url(#filter10326)"
       id="rect10308"
       width="8.8093224"
       height="3.5656781"
       x="223.58899"
       y="-356.35806"
       transform="matrix(0,1.25,-1.25,0,-112.5,112.5)" /><rect
       style="display:inline;opacity:1;fill:#ac2b37;fill-opacity:1;stroke:none;stroke-width:3.71199989;stroke-miterlimit:4;stroke-dasharray:none;stroke-opacity:0;filter:url(#filter10326)"
       id="rect10310"
       width="3.5656781"
       height="21.394068"
       x="224.84746"
       y="-375.86441"
       transform="matrix(0,1.25,-1.25,0,-112.5,112.5)" /><rect
       style="display:inline;opacity:1;fill:#ac2b37;fill-opacity:1;stroke:none;stroke-width:3.71199989;stroke-miterlimit:4;stroke-dasharray:none;stroke-opacity:0;filter:url(#filter10326)"
       id="rect10312"
       width="3.1724126"
       height="49.604858"
       x="200.70047"
       y="-403.13135"
       transform="matrix(0,1.25,-1.25,0,-112.5,112.5)" /><rect
       style="opacity:1;fill:#ac2b37;fill-opacity:1;stroke:none;stroke-width:3.71199989;stroke-miterlimit:4;stroke-dasharray:none;stroke-opacity:0"
       id="rect10380"
       width="4.078598"
       height="61.17897"
       x="363.14838"
       y="-390.65067"
       transform="matrix(0,1,-1,0,0,0)" /><rect
       style="opacity:1;fill:#ac2b37;fill-opacity:1;stroke:none;stroke-width:3.71199989;stroke-miterlimit:4;stroke-dasharray:none;stroke-opacity:0"
       id="rect10382"
       width="11.30884"
       height="3.3370347"
       x="392.25473"
       y="-332.43793"
       transform="matrix(0,1,-1,0,0,0)" /><rect
       style="opacity:1;fill:#ac2b37;fill-opacity:1;stroke:none;stroke-width:3.71199989;stroke-miterlimit:4;stroke-dasharray:none;stroke-opacity:0"
       id="rect10384"
       width="4.8201613"
       height="25.769323"
       x="392.99631"
       y="-356.90955"
       transform="matrix(0,1,-1,0,0,0)" /><rect
       style="opacity:1;fill:#ac2b37;fill-opacity:1;stroke:none;stroke-width:3.71199989;stroke-miterlimit:4;stroke-dasharray:none;stroke-opacity:0"
       id="rect10386"
       width="40.60059"
       height="3.8932071"
       x="364.26071"
       y="-391.94839"
       transform="matrix(0,1,-1,0,0,0)" /><rect
       style="opacity:1;fill:#ac2b37;fill-opacity:1;stroke:none;stroke-width:3.71199989;stroke-miterlimit:4;stroke-dasharray:none;stroke-opacity:0"
       id="rect10388"
       width="3.7078164"
       height="14.645874"
       x="559.10645"
       y="-695.43317"
       transform="matrix(0,1,-1,0,0,0)" /><rect
       style="opacity:1;fill:#ac2b37;fill-opacity:1;stroke:none;stroke-width:3.71199989;stroke-miterlimit:4;stroke-dasharray:none;stroke-opacity:0"
       id="rect10390"
       width="20.022207"
       height="3.8932071"
       x="562.07269"
       y="-686.16364"
       transform="matrix(0,1,-1,0,0,0)" /><rect
       style="opacity:1;fill:#ac2b37;fill-opacity:1;stroke:none;stroke-width:3.71199989;stroke-miterlimit:4;stroke-dasharray:none;stroke-opacity:0"
       id="rect10392"
       width="72.302414"
       height="7.9718051"
       x="559.29187"
       y="-714.34302"
       transform="matrix(0,1,-1,0,0,0)" /><rect
       style="opacity:1;fill:#ac2b37;fill-opacity:1;stroke:none;stroke-width:3.71199989;stroke-miterlimit:4;stroke-dasharray:none;stroke-opacity:0"
       id="rect10394"
       width="4.4493794"
       height="25.769323"
       x="578.0163"
       y="-709.70825"
       transform="matrix(0,1,-1,0,0,0)" /><rect
       style="opacity:1;fill:#ac2b37;fill-opacity:1;stroke:none;stroke-width:3.71199989;stroke-miterlimit:4;stroke-dasharray:none;stroke-opacity:0"
       id="rect10396"
       width="4.2639885"
       height="17.982908"
       x="494.40509"
       y="-725.46649"
       transform="matrix(0,1,-1,0,0,0)" /><rect
       style="opacity:1;fill:#ac2b37;fill-opacity:1;stroke:none;stroke-width:3.71199989;stroke-miterlimit:4;stroke-dasharray:none;stroke-opacity:0"
       id="rect10398"
       width="33.926517"
       height="5.9325061"
       x="494.40509"
       y="-712.11835"
       transform="matrix(0,1,-1,0,0,0)" /><rect
       style="opacity:1;fill:#ac2b37;fill-opacity:1;stroke:none;stroke-width:3.71199989;stroke-miterlimit:4;stroke-dasharray:none;stroke-opacity:0"
       id="rect10400"
       width="4.4493794"
       height="11.679622"
       x="493.84891"
       y="-768.10638"
       transform="matrix(0,1,-1,0,0,0)" /><rect
       style="opacity:1;fill:#ac2b37;fill-opacity:1;stroke:none;stroke-width:3.71199989;stroke-miterlimit:4;stroke-dasharray:none;stroke-opacity:0"
       id="rect10402"
       width="31.145657"
       height="4.2639885"
       x="498.29828"
       y="-764.02777"
       transform="matrix(0,1,-1,0,0,0)" /><rect
       style="opacity:1;fill:#ac2b37;fill-opacity:1;stroke:none;stroke-width:3.71199989;stroke-miterlimit:4;stroke-dasharray:none;stroke-opacity:0"
       id="rect10404"
       width="4.6347823"
       height="10.567276"
       x="494.21967"
       y="-814.08331"
       transform="matrix(0,1,-1,0,0,0)" /><rect
       style="opacity:1;fill:#ac2b37;fill-opacity:1;stroke:none;stroke-width:3.71199989;stroke-miterlimit:4;stroke-dasharray:none;stroke-opacity:0"
       id="rect10406"
       width="4.0413442"
       height="19.401489"
       x="494.65305"
       y="-664.60803"
       transform="matrix(0,1,-1,0,0,0)" /><rect
       style="opacity:1;fill:#ac2b37;fill-opacity:1;stroke:none;stroke-width:3.71199989;stroke-miterlimit:4;stroke-dasharray:none;stroke-opacity:0"
       id="rect10408"
       width="69.075699"
       height="5.6912198"
       x="494.63986"
       y="-650.63562"
       transform="matrix(0,1,-1,0,0,0)" /></g><g
     inkscape:groupmode="layer"
     id="layer16"
     inkscape:label="Labels"
     transform="translate(70.972382,-248.83475)"><text
       xml:space="preserve"
       style="font-style:normal;font-variant:normal;font-weight:normal;font-stretch:normal;font-size:20px;line-height:125%;font-family:Helvetica;-inkscape-font-specification:'Helvetica, Normal';text-align:start;letter-spacing:0px;word-spacing:0px;writing-mode:lr-tb;text-anchor:start;fill:#333333;fill-opacity:1;stroke:none;stroke-width:1px;stroke-linecap:butt;stroke-linejoin:miter;stroke-opacity:1"
       x="21.626261"
       y="449.96136"
       id="text4236"
       sodipodi:linespacing="125%"><tspan
         sodipodi:role="line"
         id="tspan4238"
         x="21.626261"
         y="449.96136">301</tspan></text>
<text
       xml:space="preserve"
       style="font-style:normal;font-variant:normal;font-weight:normal;font-stretch:normal;font-size:20px;line-height:125%;font-family:Helvetica;-inkscape-font-specification:'Helvetica, Normal';text-align:start;letter-spacing:0px;word-spacing:0px;writing-mode:lr-tb;text-anchor:start;fill:#333333;fill-opacity:1;stroke:none;stroke-width:1px;stroke-linecap:butt;stroke-linejoin:miter;stroke-opacity:1"
       x="583.29114"
       y="428.33511"
       id="text4240"
       sodipodi:linespacing="125%"><tspan
         sodipodi:role="line"
         id="tspan4242"
         x="583.29114"
         y="428.33511">307</tspan></text>
<text
       xml:space="preserve"
       style="font-style:normal;font-variant:normal;font-weight:normal;font-stretch:normal;font-size:20px;line-height:125%;font-family:Helvetica;-inkscape-font-specification:'Helvetica, Normal';text-align:start;letter-spacing:0px;word-spacing:0px;writing-mode:lr-tb;text-anchor:start;fill:#333333;fill-opacity:1;stroke:none;stroke-width:1px;stroke-linecap:butt;stroke-linejoin:miter;stroke-opacity:1"
       x="339.22333"
       y="519.78333"
       id="text4244"
       sodipodi:linespacing="125%"><tspan
         sodipodi:role="line"
         id="tspan4246"
         x="339.22333"
         y="519.78333">306</tspan></text>
<text
       xml:space="preserve"
       style="font-style:normal;font-variant:normal;font-weight:normal;font-stretch:normal;font-size:20px;line-height:125%;font-family:Helvetica;-inkscape-font-specification:'Helvetica, Normal';text-align:start;letter-spacing:0px;word-spacing:0px;writing-mode:lr-tb;text-anchor:start;fill:#333333;fill-opacity:1;stroke:none;stroke-width:1px;stroke-linecap:butt;stroke-linejoin:miter;stroke-opacity:1"
       x="211.93735"
       y="360.36688"
       id="text4248"
       sodipodi:linespacing="125%"><tspan
         sodipodi:role="line"
         id="tspan4250"
         x="211.93735"
         y="360.36688">303</tspan></text>
<text
       xml:space="preserve"
       style="font-style:normal;font-variant:normal;font-weight:normal;font-stretch:normal;font-size:20px;line-height:125%;font-family:Helvetica;-inkscape-font-specification:'Helvetica, Normal';text-align:start;letter-spacing:0px;word-spacing:0px;writing-mode:lr-tb;text-anchor:start;fill:#333333;fill-opacity:1;stroke:none;stroke-width:1px;stroke-linecap:butt;stroke-linejoin:miter;stroke-opacity:1"
       x="276.81613"
       y="314.0249"
       id="text4252"
       sodipodi:linespacing="125%"><tspan
         sodipodi:role="line"
         id="tspan4254"
         x="276.81613"
         y="314.0249">304</tspan></text>
<text
       xml:space="preserve"
       style="font-style:normal;font-variant:normal;font-weight:normal;font-stretch:normal;font-size:20px;line-height:125%;font-family:Helvetica;-inkscape-font-specification:'Helvetica, Normal';text-align:start;letter-spacing:0px;word-spacing:0px;writing-mode:lr-tb;text-anchor:start;fill:#333333;fill-opacity:1;stroke:none;stroke-width:1px;stroke-linecap:butt;stroke-linejoin:miter;stroke-opacity:1"
       x="139.81326"
       y="471.81711"
       id="text4256"
       sodipodi:linespacing="125%"><tspan
         sodipodi:role="line"
         id="tspan4258"
         x="139.81326"
         y="471.81711">302</tspan></text>
<text
       xml:space="preserve"
       style="font-style:normal;font-variant:normal;font-weight:normal;font-stretch:normal;font-size:20px;line-height:125%;font-family:Helvetica;-inkscape-font-specification:'Helvetica, Normal';text-align:start;letter-spacing:0px;word-spacing:0px;writing-mode:lr-tb;text-anchor:start;fill:#333333;fill-opacity:1;stroke:none;stroke-width:1px;stroke-linecap:butt;stroke-linejoin:miter;stroke-opacity:1"
       x="665.47095"
       y="613.70306"
       id="text4260"
       sodipodi:linespacing="125%"><tspan
         sodipodi:role="line"
         id="tspan4262"
         x="665.47095"
         y="613.70306">308</tspan></text>
</g></svg>