<?xml version="1.0" encoding="UTF-8" standalone="no"?>
<!-- Created with Inkscape (http://www.inkscape.org/) -->

<svg
   xmlns:dc="http://purl.org/dc/elements/1.1/"
   xmlns:cc="http://creativecommons.org/ns#"
   xmlns:rdf="http://www.w3.org/1999/02/22-rdf-syntax-ns#"
   xmlns:svg="http://www.w3.org/2000/svg"
   xmlns="http://www.w3.org/2000/svg"
   xmlns:sodipodi="http://sodipodi.sourceforge.net/DTD/sodipodi-0.dtd"
   xmlns:inkscape="http://www.inkscape.org/namespaces/inkscape"
   id="svg5644"
   version="1.1"
   inkscape:version="0.91 r13725"
   xml:space="preserve"
   width="554.23993"
   height="507.52145"
   viewBox="0 0 554.23993 507.52145"
   sodipodi:docname="Higgins House 3.svg"><metadata
     id="metadata5650"><rdf:RDF><cc:Work
         rdf:about=""><dc:format>image/svg+xml</dc:format><dc:type
           rdf:resource="http://purl.org/dc/dcmitype/StillImage" /><dc:title></dc:title></cc:Work></rdf:RDF></metadata><defs
     id="defs5648" /><sodipodi:namedview
     pagecolor="#ffffff"
     bordercolor="#666666"
     borderopacity="1"
     objecttolerance="10"
     gridtolerance="10"
     guidetolerance="10"
     inkscape:pageopacity="0"
     inkscape:pageshadow="2"
     inkscape:window-width="1920"
     inkscape:window-height="1018"
     id="namedview5646"
     showgrid="false"
     inkscape:zoom="1.1443836"
     inkscape:cx="520.34721"
     inkscape:cy="249.15972"
     inkscape:window-x="-8"
     inkscape:window-y="-8"
     inkscape:window-maximized="1"
     inkscape:current-layer="g5652"
     fit-margin-top="0"
     fit-margin-left="0"
     fit-margin-right="0"
     fit-margin-bottom="0" /><g
     id="g5652"
     inkscape:groupmode="layer"
     inkscape:label="Higgins House 3"
     transform="matrix(1.25,0,0,-1.25,-72.527107,723.17027)" /><g
     inkscape:groupmode="layer"
     id="layer5"
     inkscape:label="Walls"
     transform="translate(-72.527107,-266.82973)"><path
       style="opacity:1;fill:none;fill-opacity:1;stroke:#ac2b37;stroke-width:4;stroke-miterlimit:4;stroke-dasharray:none;stroke-opacity:1"
       d="m 341.48988,357.44654 0,-49.68474 -21.13455,0 0,-4.82016 -55.24647,0 0,5.93251 -19.28064,0 0,-40.04442 -71.93164,0 0,28.55019 -66.36991,0 0,5.9325 -32.999563,0 0,92.69541 201.705203,0"
       id="path6217"
       inkscape:connector-curvature="0" /><path
       style="opacity:1;fill:none;fill-opacity:1;stroke:#ac2b37;stroke-width:4;stroke-miterlimit:4;stroke-dasharray:none;stroke-opacity:1"
       d="m 241.74962,396.74939 0,74.89789 25.95472,0"
       id="path6219"
       inkscape:connector-curvature="0" /><path
       style="opacity:1;fill:none;fill-opacity:1;stroke:#ac2b37;stroke-width:4;stroke-miterlimit:4;stroke-dasharray:none;stroke-opacity:1"
       d="m 289.20967,395.26627 20.02221,0 0,73.04398 -16.31439,0 0,71.93163 -25.21315,25.21316 -36.3366,0 -25.58394,-25.58394 0,-37.07816 24.65698,-24.65698 11.30884,0 0,-7.60102"
       id="path6221"
       inkscape:connector-curvature="0" /><path
       style="opacity:1;fill:none;fill-opacity:1;stroke:#ac2b37;stroke-width:4;stroke-miterlimit:4;stroke-dasharray:none;stroke-opacity:1"
       d="m 260.2887,564.71347 0,48.20161 48.20161,0 0,2.59548 37.81973,0 0,143.1217 41.89833,0 1.08418,0.2905 0,1.93419"
       id="path6223"
       inkscape:connector-curvature="0" /><path
       style="opacity:1;fill:none;fill-opacity:1;stroke:#ac2b37;stroke-width:4;stroke-miterlimit:4;stroke-dasharray:none;stroke-opacity:1"
       d="m 76.381015,371.53624 c 1.483127,0 188.357065,0 188.357065,0 l 0,-13.34814 11.49423,0"
       id="path6225"
       inkscape:connector-curvature="0" /><path
       style="opacity:1;fill:none;fill-opacity:1;stroke:#ac2b37;stroke-width:4;stroke-miterlimit:4;stroke-dasharray:none;stroke-opacity:1"
       d="m 214.68256,330.0087 0,25.95472"
       id="path6227"
       inkscape:connector-curvature="0" /><path
       style="opacity:1;fill:none;fill-opacity:1;stroke:#ac2b37;stroke-width:4;stroke-miterlimit:4;stroke-dasharray:none;stroke-opacity:1"
       d="m 622.54235,447.1757 -102.33573,0 0,-7.04486 -92.6954,0"
       id="path6229"
       inkscape:connector-curvature="0" /><path
       style="opacity:1;fill:none;fill-opacity:1;stroke:#ac2b37;stroke-width:4;stroke-miterlimit:4;stroke-dasharray:none;stroke-opacity:1"
       d="m 623.6547,382.65969 -103.81886,0 0,5.56173 -88.61681,0 0,36.3366"
       id="path6231"
       inkscape:connector-curvature="0" /><path
       style="opacity:1;fill:none;fill-opacity:1;stroke:#ac2b37;stroke-width:4;stroke-miterlimit:4;stroke-dasharray:none;stroke-opacity:1"
       d="m 413.42152,442.72632 c -1.59401,-0.9203 -56.72959,0 -56.72959,0 l 0,-22.2469 48.57239,0 0,-5.93251 10.0111,0"
       id="path6233"
       inkscape:connector-curvature="0" /><path
       style="opacity:1;fill:none;fill-opacity:1;stroke:#ac2b37;stroke-width:4;stroke-miterlimit:4;stroke-dasharray:none;stroke-opacity:1"
       d="m 294.40061,357.07576 87.13369,0 12.60657,-12.60658 31.88722,0 12.60658,12.60658 31.14565,0 12.60658,-12.60658 30.40409,0 13.16275,13.16275 98.07174,0 0,49.12857"
       id="path6235"
       inkscape:connector-curvature="0" /><path
       style="opacity:1;fill:none;fill-opacity:1;stroke:#ac2b37;stroke-width:4;stroke-miterlimit:4;stroke-dasharray:none;stroke-opacity:1"
       d="m 624.76704,422.33333 0,47.46005 -15.57282,0 -12.97736,12.97735 -29.66253,0 -12.42119,-12.42118 -70.6339,0 0,103.26268 -18.1683,0 0,185.7616 -40.04441,0 0,12.97735 -36.70738,0 0,-12.60657"
       id="path6237"
       inkscape:connector-curvature="0" /></g><g
     inkscape:groupmode="layer"
     id="layer1"
     inkscape:label="Labels"
     transform="translate(-72.527107,-266.82973)"><text
       xml:space="preserve"
       style="font-style:normal;font-variant:normal;font-weight:normal;font-stretch:normal;font-size:20px;line-height:125%;font-family:Helvetica;-inkscape-font-specification:'Helvetica, Normal';text-align:start;letter-spacing:0px;word-spacing:0px;writing-mode:lr-tb;text-anchor:start;fill:#333333;fill-opacity:1;stroke:none;stroke-width:1px;stroke-linecap:butt;stroke-linejoin:miter;stroke-opacity:1"
       x="232.94572"
       y="526.58014"
       id="text4155"
       sodipodi:linespacing="125%"><tspan
         sodipodi:role="line"
         id="tspan4157"
         x="232.94572"
         y="526.58014">304</tspan></text>
<text
       xml:space="preserve"
       style="font-style:normal;font-variant:normal;font-weight:normal;font-stretch:normal;font-size:20px;line-height:125%;font-family:Helvetica;-inkscape-font-specification:'Helvetica, Normal';text-align:start;letter-spacing:0px;word-spacing:0px;writing-mode:lr-tb;text-anchor:start;fill:#333333;fill-opacity:1;stroke:none;stroke-width:1px;stroke-linecap:butt;stroke-linejoin:miter;stroke-opacity:1"
       x="259.51514"
       y="437.60352"
       id="text4159"
       sodipodi:linespacing="125%"><tspan
         sodipodi:role="line"
         id="tspan4161"
         x="259.51514"
         y="437.60352">303</tspan></text>
<text
       xml:space="preserve"
       style="font-style:normal;font-variant:normal;font-weight:normal;font-stretch:normal;font-size:20px;line-height:125%;font-family:Helvetica;-inkscape-font-specification:'Helvetica, Normal';text-align:start;letter-spacing:0px;word-spacing:0px;writing-mode:lr-tb;text-anchor:start;fill:#333333;fill-opacity:1;stroke:none;stroke-width:1px;stroke-linecap:butt;stroke-linejoin:miter;stroke-opacity:1"
       x="460.9483"
       y="422.77408"
       id="text4163"
       sodipodi:linespacing="125%"><tspan
         sodipodi:role="line"
         id="tspan4165"
         x="460.9483"
         y="422.77408">302</tspan></text>
</g></svg>