<?xml version="1.0" encoding="UTF-8" standalone="no"?>
<!-- Created with Inkscape (http://www.inkscape.org/) -->

<svg
   xmlns:dc="http://purl.org/dc/elements/1.1/"
   xmlns:cc="http://creativecommons.org/ns#"
   xmlns:rdf="http://www.w3.org/1999/02/22-rdf-syntax-ns#"
   xmlns:svg="http://www.w3.org/2000/svg"
   xmlns="http://www.w3.org/2000/svg"
   xmlns:sodipodi="http://sodipodi.sourceforge.net/DTD/sodipodi-0.dtd"
   xmlns:inkscape="http://www.inkscape.org/namespaces/inkscape"
   id="svg4136"
   version="1.1"
   inkscape:version="0.91 r13725"
   width="871.29669"
   height="372.3631"
   viewBox="0 0 871.29669 372.3631"
   sodipodi:docname="Stratton Hall 0.svg"
   inkscape:export-filename="E:\DragonShadesX Data\My Documents\WPI floorplans\Stratton Hall 0 Redo.png"
   inkscape:export-xdpi="90"
   inkscape:export-ydpi="90">
  <metadata
     id="metadata4142">
    <rdf:RDF>
      <cc:Work
         rdf:about="">
        <dc:format>image/svg+xml</dc:format>
        <dc:type
           rdf:resource="http://purl.org/dc/dcmitype/StillImage" />
        <dc:title></dc:title>
      </cc:Work>
    </rdf:RDF>
  </metadata>
  <defs
     id="defs4140" />
  <sodipodi:namedview
     pagecolor="#ffffff"
     bordercolor="#666666"
     borderopacity="1"
     objecttolerance="10"
     gridtolerance="10"
     guidetolerance="10"
     inkscape:pageopacity="0"
     inkscape:pageshadow="2"
     inkscape:window-width="1920"
     inkscape:window-height="1018"
     id="namedview4138"
     showgrid="false"
     inkscape:zoom="0.81403023"
     inkscape:cx="508.6779"
     inkscape:cy="288.89816"
     inkscape:window-x="-8"
     inkscape:window-y="-8"
     inkscape:window-maximized="1"
     inkscape:current-layer="layer4"
     fit-margin-top="0"
     fit-margin-left="0"
     fit-margin-right="0"
     fit-margin-bottom="0" />
  <g
     inkscape:groupmode="layer"
     id="layer1"
     inkscape:label="Floor"
     transform="translate(-53.83881,-182.01413)">
    <text
       xml:space="preserve"
       style="font-style:normal;font-variant:normal;font-weight:normal;font-stretch:normal;font-size:20px;line-height:125%;font-family:Helvetica;-inkscape-font-specification:'Helvetica, Normal';text-align:start;letter-spacing:0px;word-spacing:0px;writing-mode:lr-tb;text-anchor:start;fill:#000000;fill-opacity:1;stroke:none;stroke-width:1px;stroke-linecap:butt;stroke-linejoin:miter;stroke-opacity:1"
       x="194.09599"
       y="321.52753"
       id="text4243"
       sodipodi:linespacing="125%"><tspan
         sodipodi:role="line"
         id="tspan4245"
         x="194.09599"
         y="321.52753" /></text>
  </g>
  <g
     inkscape:groupmode="layer"
     id="layer2"
     inkscape:label="Rooms"
     style="display:inline"
     transform="translate(-53.83881,-182.01413)">
    <rect
       style="opacity:1;fill:#eeeeee;fill-opacity:1;fill-rule:nonzero;stroke:none;stroke-width:4.30000019;stroke-miterlimit:4;stroke-dasharray:none;stroke-opacity:1"
       id="rect4272"
       width="301.3699"
       height="356.16443"
       x="63.714569"
       y="190.93173" />
    <rect
       style="opacity:1;fill:#eeeeee;fill-opacity:1;fill-rule:nonzero;stroke:none;stroke-width:4.30000019;stroke-miterlimit:4;stroke-dasharray:none;stroke-opacity:1"
       id="rect4274"
       width="72.634605"
       height="234.46962"
       x="358.07587"
       y="312.62656" />
    <rect
       style="opacity:1;fill:#eeeeee;fill-opacity:1;fill-rule:nonzero;stroke:none;stroke-width:4.30000019;stroke-miterlimit:4;stroke-dasharray:none;stroke-opacity:1"
       id="rect4276"
       width="27.715837"
       height="138.89777"
       x="418.92328"
       y="407.56128" />
    <rect
       style="opacity:1;fill:#eeeeee;fill-opacity:1;fill-rule:nonzero;stroke:none;stroke-width:4.30000019;stroke-miterlimit:4;stroke-dasharray:none;stroke-opacity:1"
       id="rect4278"
       width="17.202934"
       height="10.672191"
       x="426.8876"
       y="399.91553" />
    <rect
       style="opacity:1;fill:#eeeeee;fill-opacity:1;fill-rule:nonzero;stroke:none;stroke-width:4.30000019;stroke-miterlimit:4;stroke-dasharray:none;stroke-opacity:1"
       id="rect4280"
       width="14.495065"
       height="9.2386122"
       x="426.40976"
       y="392.42905" />
    <rect
       style="opacity:1;fill:#eeeeee;fill-opacity:1;fill-rule:nonzero;stroke:none;stroke-width:4.30000019;stroke-miterlimit:4;stroke-dasharray:none;stroke-opacity:1"
       id="rect4282"
       width="10.831476"
       height="11.150049"
       x="426.25046"
       y="383.6683" />
    <rect
       style="opacity:1;fill:#eeeeee;fill-opacity:1;fill-rule:nonzero;stroke:none;stroke-width:4.30000019;stroke-miterlimit:4;stroke-dasharray:none;stroke-opacity:1"
       id="rect4284"
       width="7.0086026"
       height="8.2828941"
       x="427.36548"
       y="377.29684" />
    <rect
       style="opacity:1;fill:#eeeeee;fill-opacity:1;fill-rule:nonzero;stroke:none;stroke-width:4.30000019;stroke-miterlimit:4;stroke-dasharray:none;stroke-opacity:1"
       id="rect4286"
       width="6.6900296"
       height="11.946482"
       x="424.81689"
       y="370.12897" />
    <rect
       style="opacity:1;fill:#eeeeee;fill-opacity:1;fill-rule:nonzero;stroke:none;stroke-width:4.30000019;stroke-miterlimit:4;stroke-dasharray:none;stroke-opacity:1"
       id="rect4288"
       width="129.71381"
       height="106.79853"
       x="483.59357"
       y="190.29459" />
    <rect
       style="opacity:1;fill:#eeeeee;fill-opacity:1;fill-rule:nonzero;stroke:none;stroke-width:4.30000019;stroke-miterlimit:4;stroke-dasharray:none;stroke-opacity:1"
       id="rect4290"
       width="182.22366"
       height="117.87195"
       x="735.26611"
       y="187.746" />
    <rect
       style="opacity:1;fill:#eeeeee;fill-opacity:1;fill-rule:nonzero;stroke:none;stroke-width:4.30000019;stroke-miterlimit:4;stroke-dasharray:none;stroke-opacity:1"
       id="rect4292"
       width="81.554649"
       height="91.748978"
       x="661.35724"
       y="454.71005" />
    <rect
       style="opacity:1;fill:#eeeeee;fill-opacity:1;fill-rule:nonzero;stroke:none;stroke-width:4.30000019;stroke-miterlimit:4;stroke-dasharray:none;stroke-opacity:1"
       id="rect4294"
       width="113.09341"
       height="103.85471"
       x="804.39648"
       y="445.15286" />
    <rect
       style="opacity:1;fill:#eeeeee;fill-opacity:1;fill-rule:nonzero;stroke:none;stroke-width:4.30000019;stroke-miterlimit:4;stroke-dasharray:none;stroke-opacity:1"
       id="rect4298"
       width="113.41193"
       height="66.900299"
       x="806.62646"
       y="377.61542" />
    <rect
       style="opacity:1;fill:#eeeeee;fill-opacity:1;fill-rule:nonzero;stroke:none;stroke-width:4.30000019;stroke-miterlimit:4;stroke-dasharray:none;stroke-opacity:1"
       id="rect4300"
       width="135.07489"
       height="70.086029"
       x="785.60065"
       y="304.9808" />
    <rect
       style="opacity:1;fill:#eeeeee;fill-opacity:1;fill-rule:nonzero;stroke:none;stroke-width:4.30000019;stroke-miterlimit:4;stroke-dasharray:none;stroke-opacity:1"
       id="rect4302"
       width="120.42053"
       height="113.41193"
       x="614.20844"
       y="190.29459" />
    <rect
       style="opacity:1;fill:#eeeeee;fill-opacity:1;fill-rule:nonzero;stroke:none;stroke-width:4.30000019;stroke-miterlimit:4;stroke-dasharray:none;stroke-opacity:1"
       id="rect4424"
       width="67.537445"
       height="90.793259"
       x="742.59332"
       y="454.39148" />
  </g>
  <g
     inkscape:groupmode="layer"
     id="layer3"
     inkscape:label="Walls"
     style="display:inline"
     transform="translate(-53.83881,-182.01413)">
    <rect
       style="opacity:1;fill:#ac2b37;fill-opacity:1;fill-rule:nonzero;stroke:none;stroke-width:1;stroke-miterlimit:4;stroke-dasharray:none;stroke-opacity:1"
       id="rect4150"
       width="377.54416"
       height="12.614841"
       x="54.063602"
       y="182.01413" />
    <rect
       style="opacity:1;fill:#ac2b37;fill-opacity:1;fill-rule:nonzero;stroke:none;stroke-width:1;stroke-miterlimit:4;stroke-dasharray:none;stroke-opacity:1"
       id="rect4154"
       width="14.654354"
       height="371.77454"
       x="53.83881"
       y="182.33028" />
    <rect
       style="opacity:1;fill:#ac2b37;fill-opacity:1;fill-rule:nonzero;stroke:none;stroke-width:1;stroke-miterlimit:4;stroke-dasharray:none;stroke-opacity:1"
       id="rect4156"
       width="332.2659"
       height="11.488516"
       x="54.063602"
       y="542.66345" />
    <rect
       style="opacity:1;fill:#ac2b37;fill-opacity:1;fill-rule:nonzero;stroke:none;stroke-width:1;stroke-miterlimit:4;stroke-dasharray:none;stroke-opacity:1"
       id="rect4158"
       width="44.82774"
       height="10.136926"
       x="406.82861"
       y="543.33923" />
    <rect
       style="opacity:1;fill:#ac2b37;fill-opacity:1;fill-rule:nonzero;stroke:none;stroke-width:1;stroke-miterlimit:4;stroke-dasharray:none;stroke-opacity:1"
       id="rect4160"
       width="47.756184"
       height="11.037986"
       x="517.88428"
       y="543.33923" />
    <rect
       style="opacity:1;fill:#ac2b37;fill-opacity:1;fill-rule:nonzero;stroke:none;stroke-width:1;stroke-miterlimit:4;stroke-dasharray:none;stroke-opacity:1"
       id="rect4162"
       width="331.95291"
       height="9.5571852"
       x="593.18262"
       y="543.59186" />
    <rect
       style="opacity:1;fill:#ac2b37;fill-opacity:1;fill-rule:nonzero;stroke:none;stroke-width:1;stroke-miterlimit:4;stroke-dasharray:none;stroke-opacity:1"
       id="rect4164"
       width="9.2386122"
       height="370.81879"
       x="915.25977"
       y="182.64885" />
    <rect
       style="opacity:1;fill:#ac2b37;fill-opacity:1;fill-rule:nonzero;stroke:none;stroke-width:1;stroke-miterlimit:4;stroke-dasharray:none;stroke-opacity:1"
       id="rect4166"
       width="446.32056"
       height="10.831476"
       x="476.26639"
       y="182.96742" />
    <rect
       style="opacity:1;fill:#ac2b37;fill-opacity:1;fill-rule:nonzero;stroke:none;stroke-width:1;stroke-miterlimit:4;stroke-dasharray:none;stroke-opacity:1"
       id="rect4168"
       width="5.1810956"
       height="125.24735"
       x="363.57773"
       y="188.54681" />
    <rect
       style="opacity:1;fill:#ac2b37;fill-opacity:1;fill-rule:nonzero;stroke:none;stroke-width:1;stroke-miterlimit:4;stroke-dasharray:none;stroke-opacity:1"
       id="rect4170"
       width="65.552124"
       height="4.2800355"
       x="366.5062"
       y="309.28888" />
    <rect
       style="opacity:1;fill:#ac2b37;fill-opacity:1;fill-rule:nonzero;stroke:none;stroke-width:1;stroke-miterlimit:4;stroke-dasharray:none;stroke-opacity:1"
       id="rect4172"
       width="3.8295052"
       height="22.301237"
       x="428.22879"
       y="309.51413" />
    <rect
       style="opacity:1;fill:#ac2b37;fill-opacity:1;fill-rule:nonzero;stroke:none;stroke-width:1;stroke-miterlimit:4;stroke-dasharray:none;stroke-opacity:1"
       id="rect4174"
       width="9.9116611"
       height="123.89576"
       x="477.1113"
       y="192.37633" />
    <rect
       style="opacity:1;fill:#ac2b37;fill-opacity:1;fill-rule:nonzero;stroke:none;stroke-width:1;stroke-miterlimit:4;stroke-dasharray:none;stroke-opacity:1"
       id="rect4176"
       width="9.010601"
       height="128.85159"
       x="609.56714"
       y="189.67314" />
    <rect
       style="opacity:1;fill:#ac2b37;fill-opacity:1;fill-rule:nonzero;stroke:none;stroke-width:1;stroke-miterlimit:4;stroke-dasharray:none;stroke-opacity:1"
       id="rect4178"
       width="17.570671"
       height="4.5053005"
       x="595.15015"
       y="295.09717" />
    <rect
       style="opacity:1;fill:#ac2b37;fill-opacity:1;fill-rule:nonzero;stroke:none;stroke-width:1;stroke-miterlimit:4;stroke-dasharray:none;stroke-opacity:1"
       id="rect4180"
       width="61.272083"
       height="5.8568907"
       x="515.40637"
       y="295.09717" />
    <rect
       style="opacity:1;fill:#ac2b37;fill-opacity:1;fill-rule:nonzero;stroke:none;stroke-width:1;stroke-miterlimit:4;stroke-dasharray:none;stroke-opacity:1"
       id="rect4182"
       width="6.3074207"
       height="106.77562"
       x="555.50354"
       y="191.47527" />
    <rect
       style="opacity:1;fill:#ac2b37;fill-opacity:1;fill-rule:nonzero;stroke:none;stroke-width:1;stroke-miterlimit:4;stroke-dasharray:none;stroke-opacity:1"
       id="rect4184"
       width="6.7579503"
       height="118.03887"
       x="732.11133"
       y="189.67314" />
    <rect
       style="opacity:1;fill:#ac2b37;fill-opacity:1;fill-rule:nonzero;stroke:none;stroke-width:1;stroke-miterlimit:4;stroke-dasharray:none;stroke-opacity:1"
       id="rect4186"
       width="144.16962"
       height="5.8569021"
       x="733.01239"
       y="301.85513" />
    <rect
       style="opacity:1;fill:#ac2b37;fill-opacity:1;fill-rule:nonzero;stroke:none;stroke-width:1;stroke-miterlimit:4;stroke-dasharray:none;stroke-opacity:1"
       id="rect4188"
       width="4.1414471"
       height="35.361588"
       x="784.32635"
       y="303.06937" />
    <rect
       style="opacity:1;fill:#ac2b37;fill-opacity:1;fill-rule:nonzero;stroke:none;stroke-width:1;stroke-miterlimit:4;stroke-dasharray:none;stroke-opacity:1"
       id="rect4190"
       width="18.795797"
       height="5.4157381"
       x="900.12756"
       y="301.95438" />
    <rect
       style="display:none;opacity:1;fill:#ffffff;fill-opacity:1;fill-rule:nonzero;stroke:none;stroke-width:4.30000019;stroke-miterlimit:4;stroke-dasharray:none;stroke-opacity:1"
       id="rect4304"
       width="858.87238"
       height="359.35016"
       x="60.528839"
       y="189.02029" />
    <rect
       style="opacity:1;fill:#ac2b37;fill-opacity:1;fill-rule:nonzero;stroke:none;stroke-width:1;stroke-miterlimit:4;stroke-dasharray:none;stroke-opacity:1"
       id="rect4192"
       width="5.4063606"
       height="18.021202"
       x="784.14752"
       y="361.32507" />
    <rect
       style="opacity:1;fill:#ac2b37;fill-opacity:1;fill-rule:nonzero;stroke:none;stroke-width:1;stroke-miterlimit:4;stroke-dasharray:none;stroke-opacity:1"
       id="rect4194"
       width="132.00529"
       height="4.5053005"
       x="784.14752"
       y="374.841" />
    <rect
       style="opacity:1;fill:#ac2b37;fill-opacity:1;fill-rule:nonzero;stroke:none;stroke-width:1;stroke-miterlimit:4;stroke-dasharray:none;stroke-opacity:1"
       id="rect4196"
       width="3.8295052"
       height="40.772968"
       x="804.42139"
       y="376.86838" />
    <rect
       style="opacity:1;fill:#ac2b37;fill-opacity:1;fill-rule:nonzero;stroke:none;stroke-width:1;stroke-miterlimit:4;stroke-dasharray:none;stroke-opacity:1"
       id="rect4198"
       width="3.8295052"
       height="10.136926"
       x="804.42139"
       y="440.84363" />
    <rect
       style="opacity:1;fill:#ac2b37;fill-opacity:1;fill-rule:nonzero;stroke:none;stroke-width:1;stroke-miterlimit:4;stroke-dasharray:none;stroke-opacity:1"
       id="rect4200"
       width="110.15459"
       height="3.8295052"
       x="805.77295"
       y="442.64575" />
    <rect
       style="opacity:1;fill:#ac2b37;fill-opacity:1;fill-rule:nonzero;stroke:none;stroke-width:1;stroke-miterlimit:4;stroke-dasharray:none;stroke-opacity:1"
       id="rect4202"
       width="4.5053005"
       height="71.409012"
       x="803.74561"
       y="473.2818" />
    <rect
       style="opacity:1;fill:#ac2b37;fill-opacity:1;fill-rule:nonzero;stroke:none;stroke-width:1;stroke-miterlimit:4;stroke-dasharray:none;stroke-opacity:1"
       id="rect4204"
       width="3.1537104"
       height="65.552124"
       x="740.22083"
       y="482.9682" />
    <rect
       style="opacity:1;fill:#ac2b37;fill-opacity:1;fill-rule:nonzero;stroke:none;stroke-width:1;stroke-miterlimit:4;stroke-dasharray:none;stroke-opacity:1"
       id="rect4206"
       width="4.0547705"
       height="7.8842754"
       x="739.54504"
       y="452.55743" />
    <rect
       style="opacity:1;fill:#ac2b37;fill-opacity:1;fill-rule:nonzero;stroke:none;stroke-width:1;stroke-miterlimit:4;stroke-dasharray:none;stroke-opacity:1"
       id="rect4208"
       width="78.392227"
       height="3.8295052"
       x="663.18024"
       y="452.33215" />
    <rect
       style="opacity:1;fill:#ac2b37;fill-opacity:1;fill-rule:nonzero;stroke:none;stroke-width:1;stroke-miterlimit:4;stroke-dasharray:none;stroke-opacity:1"
       id="rect4210"
       width="62.173145"
       height="9.9116611"
       x="602.58392"
       y="416.51501" />
    <rect
       style="opacity:1;fill:#ac2b37;fill-opacity:1;fill-rule:nonzero;stroke:none;stroke-width:1;stroke-miterlimit:4;stroke-dasharray:none;stroke-opacity:1"
       id="rect4212"
       width="5.4063606"
       height="138.53798"
       x="659.12543"
       y="412.46024" />
    <rect
       style="opacity:1;fill:#ac2b37;fill-opacity:1;fill-rule:nonzero;stroke:none;stroke-width:1;stroke-miterlimit:4;stroke-dasharray:none;stroke-opacity:1"
       id="rect4214"
       width="4.9558306"
       height="135.60954"
       x="550.77295"
       y="413.13605" />
    <rect
       style="opacity:1;fill:#ac2b37;fill-opacity:1;fill-rule:nonzero;stroke:none;stroke-width:1;stroke-miterlimit:4;stroke-dasharray:none;stroke-opacity:1"
       id="rect4216"
       width="22.977032"
       height="9.010601"
       x="551.67401"
       y="417.19083" />
    <rect
       style="opacity:1;fill:#ac2b37;fill-opacity:1;fill-rule:nonzero;stroke:none;stroke-width:1;stroke-miterlimit:4;stroke-dasharray:none;stroke-opacity:1"
       id="rect4218"
       width="7.6590104"
       height="120.74205"
       x="553.25085"
       y="423.0477" />
    <rect
       style="opacity:1;fill:#ac2b37;fill-opacity:1;fill-rule:nonzero;stroke:none;stroke-width:1;stroke-miterlimit:4;stroke-dasharray:none;stroke-opacity:1"
       id="rect4220"
       width="4.4600196"
       height="67.218872"
       x="445.04626"
       y="477.96588" />
    <rect
       style="opacity:1;fill:#ac2b37;fill-opacity:1;fill-rule:nonzero;stroke:none;stroke-width:1;stroke-miterlimit:4;stroke-dasharray:none;stroke-opacity:1"
       id="rect4222"
       width="4.4600196"
       height="66.581726"
       x="335.77579"
       y="372.83682" />
    <rect
       style="opacity:1;fill:#ac2b37;fill-opacity:1;fill-rule:nonzero;stroke:none;stroke-width:1;stroke-miterlimit:4;stroke-dasharray:none;stroke-opacity:1"
       id="rect4224"
       width="6.0528841"
       height="3.1857285"
       x="337.68723"
       y="435.75497" />
    <rect
       style="opacity:1;fill:#ac2b37;fill-opacity:1;fill-rule:nonzero;stroke:none;stroke-width:1;stroke-miterlimit:4;stroke-dasharray:none;stroke-opacity:1"
       id="rect4226"
       width="78.528206"
       height="3.3450148"
       x="366.67734"
       y="435.4364" />
    <rect
       style="opacity:1;fill:#ac2b37;fill-opacity:1;fill-rule:nonzero;stroke:none;stroke-width:1;stroke-miterlimit:4;stroke-dasharray:none;stroke-opacity:1"
       id="rect4228"
       width="4.6193061"
       height="29.467989"
       x="444.88696"
       y="410.10986" />
    <rect
       style="opacity:1;fill:#ac2b37;fill-opacity:1;fill-rule:nonzero;stroke:none;stroke-width:1;stroke-miterlimit:4;stroke-dasharray:none;stroke-opacity:1"
       id="rect4230"
       width="4.9378662"
       height="22.937241"
       x="427.84332"
       y="351.17389" />
    <rect
       style="opacity:1;fill:#ac2b37;fill-opacity:1;fill-rule:nonzero;stroke:none;stroke-width:1;stroke-miterlimit:4;stroke-dasharray:none;stroke-opacity:1"
       id="rect4232"
       width="366.35876"
       height="5.5750246"
       x="66.263153"
       y="368.5361" />
    <path
       style="fill:none;fill-rule:evenodd;stroke:#ac2b37;stroke-width:4.30000019;stroke-linecap:butt;stroke-linejoin:miter;stroke-miterlimit:4;stroke-dasharray:none;stroke-opacity:1"
       d="m 430.71049,372.0404 16.88436,38.94553"
       id="path4234"
       inkscape:connector-curvature="0"
       sodipodi:nodetypes="cc" />
    <rect
       style="opacity:1;fill:#ac2b37;fill-opacity:1;fill-rule:nonzero;stroke:none;stroke-width:4.30000019;stroke-miterlimit:4;stroke-dasharray:none;stroke-opacity:1"
       id="rect4244"
       width="9.0105886"
       height="36.718197"
       x="477.56183"
       y="344.20496" />
    <rect
       style="opacity:1;fill:#ac2b37;fill-opacity:1;fill-rule:nonzero;stroke:none;stroke-width:4.30000019;stroke-miterlimit:4;stroke-dasharray:none;stroke-opacity:1"
       id="rect4246"
       width="23.75321"
       height="18.631058"
       x="477.46152"
       y="362.5174" />
    <rect
       style="opacity:1;fill:#ac2b37;fill-opacity:1;fill-rule:nonzero;stroke:none;stroke-width:4.30000019;stroke-miterlimit:4;stroke-dasharray:none;stroke-opacity:1"
       id="rect4248"
       width="43.405548"
       height="13.220773"
       x="500.00009"
       y="363.20001" />
    <rect
       style="opacity:1;fill:#ac2b37;fill-opacity:1;fill-rule:nonzero;stroke:none;stroke-width:4.30000019;stroke-miterlimit:4;stroke-dasharray:none;stroke-opacity:1"
       id="rect4250"
       width="75.661049"
       height="9.6368284"
       x="543.40564"
       y="371.72183" />
    <rect
       style="opacity:1;fill:#ac2b37;fill-opacity:1;fill-rule:nonzero;stroke:none;stroke-width:4.30000019;stroke-miterlimit:4;stroke-dasharray:none;stroke-opacity:1"
       id="rect4252"
       width="8.7607536"
       height="29.78656"
       x="609.98737"
       y="344.40421" />
    <rect
       style="opacity:1;fill:#ac2b37;fill-opacity:1;fill-rule:nonzero;stroke:none;stroke-width:4.30000019;stroke-miterlimit:4;stroke-dasharray:none;stroke-opacity:1"
       id="rect4254"
       width="3.5043013"
       height="6.7696729"
       x="551.29028"
       y="378.65079" />
    <rect
       style="opacity:1;fill:#ac2b37;fill-opacity:1;fill-rule:nonzero;stroke:none;stroke-width:4.30000019;stroke-miterlimit:4;stroke-dasharray:none;stroke-opacity:1"
       id="rect4256"
       width="30.185513"
       height="3.4916077"
       x="617.22614"
       y="345.89444" />
    <rect
       style="opacity:1;fill:#ac2b37;fill-opacity:1;fill-rule:nonzero;stroke:none;stroke-width:4.30000019;stroke-miterlimit:4;stroke-dasharray:none;stroke-opacity:1"
       id="rect4258"
       width="3.2663429"
       height="2.7031803"
       x="644.25793"
       y="347.92181" />
    <rect
       style="opacity:1;fill:#ac2b37;fill-opacity:1;fill-rule:nonzero;stroke:none;stroke-width:4.30000019;stroke-miterlimit:4;stroke-dasharray:none;stroke-opacity:1"
       id="rect4260"
       width="3.0410779"
       height="5.8568907"
       x="644.37061"
       y="369.65988" />
    <rect
       style="opacity:1;fill:#ac2b37;fill-opacity:1;fill-rule:nonzero;stroke:none;stroke-width:4.30000019;stroke-miterlimit:4;stroke-dasharray:none;stroke-opacity:1"
       id="rect4262"
       width="45.197521"
       height="6.6900296"
       x="619.02686"
       y="374.66861" />
    <rect
       style="opacity:1;fill:#ac2b37;fill-opacity:1;fill-rule:nonzero;stroke:none;stroke-width:4.30000019;stroke-miterlimit:4;stroke-dasharray:none;stroke-opacity:1"
       id="rect4264"
       width="4.5396628"
       height="7.7253914"
       x="659.68469"
       y="378.17291" />
    <rect
       style="opacity:1;fill:#ac2b37;fill-opacity:1;fill-rule:nonzero;stroke:none;stroke-width:4.30000019;stroke-miterlimit:4;stroke-dasharray:none;stroke-opacity:1"
       id="rect4266"
       width="11.349157"
       height="13.380059"
       x="662.07404"
       y="365.3902" />
    <rect
       style="opacity:1;fill:#ac2b37;fill-opacity:1;fill-rule:nonzero;stroke:none;stroke-width:4.30000019;stroke-miterlimit:4;stroke-dasharray:none;stroke-opacity:1"
       id="rect4268"
       width="56.090961"
       height="10.474823"
       x="672.97925"
       y="366.73145" />
    <rect
       style="opacity:1;fill:#ac2b37;fill-opacity:1;fill-rule:nonzero;stroke:none;stroke-width:4.30000019;stroke-miterlimit:4;stroke-dasharray:none;stroke-opacity:1"
       id="rect4270"
       width="11.263251"
       height="13.403269"
       x="728.39441"
       y="365.37985" />
  </g>
  <g
     inkscape:groupmode="layer"
     id="layer4"
     inkscape:label="Labels"
     style="display:inline"
     transform="translate(-53.83881,-182.01413)">
    <g
       style="font-style:normal;font-variant:normal;font-weight:normal;font-stretch:normal;font-size:30px;line-height:125%;font-family:Sans;-inkscape-font-specification:'Sans, Normal';text-align:start;letter-spacing:0px;word-spacing:0px;writing-mode:lr-tb;text-anchor:start;fill:#333333;fill-opacity:1;stroke:none;stroke-width:1px;stroke-linecap:butt;stroke-linejoin:miter;stroke-opacity:1"
       id="text4361">
      <path
         d="m 211.55489,288.47339 10.32714,0 0,2.49023 -13.88671,0 0,-2.49023 q 1.68457,-1.74317 4.58496,-4.67285 2.91504,-2.94434 3.66211,-3.79395 1.42089,-1.59668 1.97753,-2.69531 0.57129,-1.11328 0.57129,-2.18262 0,-1.74316 -1.23046,-2.84179 -1.21583,-1.09864 -3.17872,-1.09864 -1.3916,0 -2.94433,0.4834 -1.53809,0.4834 -3.2959,1.46484 l 0,-2.98828 q 1.78711,-0.71777 3.33984,-1.08398 1.55274,-0.36621 2.8418,-0.36621 3.39844,0 5.41992,1.69922 2.02149,1.69922 2.02149,4.54101 0,1.34766 -0.5127,2.56348 -0.49805,1.20117 -1.83105,2.8418 -0.36621,0.4248 -2.3291,2.46093 -1.9629,2.02149 -5.53711,5.66895 z"
         id="path3481"
         inkscape:connector-curvature="0" />
    </g>
    <g
       style="font-style:normal;font-variant:normal;font-weight:normal;font-stretch:normal;font-size:30px;line-height:125%;font-family:Sans;-inkscape-font-specification:'Sans, Normal';text-align:start;letter-spacing:0px;word-spacing:0px;writing-mode:lr-tb;text-anchor:start;fill:#333333;fill-opacity:1;stroke:none;stroke-width:1px;stroke-linecap:butt;stroke-linejoin:miter;stroke-opacity:1"
       id="text4365">
      <path
         d="m 201.23587,463.0513 4.83398,0 0,-16.68457 -5.25878,1.05469 0,-2.69532 5.22949,-1.05468 2.95898,0 0,19.37988 4.83399,0 0,2.49023 -12.59766,0 0,-2.49023 z"
         id="path3484"
         inkscape:connector-curvature="0" />
    </g>
    <g
       style="font-style:normal;font-variant:normal;font-weight:normal;font-stretch:normal;font-size:30px;line-height:125%;font-family:Sans;-inkscape-font-specification:'Sans, Normal';text-align:start;letter-spacing:0px;word-spacing:0px;writing-mode:lr-tb;text-anchor:start;fill:#333333;fill-opacity:1;stroke:none;stroke-width:1px;stroke-linecap:butt;stroke-linejoin:miter;stroke-opacity:1"
       id="text4369">
      <path
         d="m 392.54883,404.05219 q 2.12402,0.4541 3.31054,1.88964 1.20118,1.43555 1.20118,3.54493 0,3.2373 -2.22657,5.00976 -2.22656,1.77246 -6.32812,1.77246 -1.37695,0 -2.8418,-0.27832 -1.45019,-0.26367 -3.00293,-0.80566 l 0,-2.85645 q 1.23047,0.71778 2.69532,1.08399 1.46484,0.36621 3.06152,0.36621 2.7832,0 4.2334,-1.09864 1.46484,-1.09863 1.46484,-3.19335 0,-1.9336 -1.3623,-3.01758 -1.34766,-1.09864 -3.76465,-1.09864 l -2.54883,0 0,-2.43164 2.66602,0 q 2.18261,0 3.33984,-0.86425 1.15723,-0.87891 1.15723,-2.51954 0,-1.68457 -1.20118,-2.57812 -1.18652,-0.9082 -3.41308,-0.9082 -1.21582,0 -2.60742,0.26367 -1.39161,0.26367 -3.06153,0.82031 l 0,-2.63672 q 1.68457,-0.46875 3.14942,-0.70312 1.47949,-0.23438 2.7832,-0.23438 3.36914,0 5.33203,1.53809 1.96289,1.52344 1.96289,4.13086 0,1.8164 -1.04004,3.07617 -1.04004,1.24512 -2.95898,1.72852 z"
         id="path3437"
         inkscape:connector-curvature="0" />
    </g>
    <g
       style="font-style:normal;font-variant:normal;font-weight:normal;font-stretch:normal;font-size:30px;line-height:125%;font-family:Sans;-inkscape-font-specification:'Sans, Normal';text-align:start;letter-spacing:0px;word-spacing:0px;writing-mode:lr-tb;text-anchor:start;fill:#333333;fill-opacity:1;stroke:none;stroke-width:1px;stroke-linecap:butt;stroke-linejoin:miter;stroke-opacity:1"
       id="text4377">
      <path
         d="m 521.44754,244.77142 q -1.99219,0 -3.16406,1.36231 -1.15723,1.3623 -1.15723,3.73535 0,2.3584 1.15723,3.73535 1.17187,1.36231 3.16406,1.36231 1.99219,0 3.14941,-1.36231 1.17188,-1.37695 1.17188,-3.73535 0,-2.37305 -1.17188,-3.73535 -1.15722,-1.36231 -3.14941,-1.36231 z m 5.87402,-9.27246 0,2.69531 q -1.11328,-0.52734 -2.25586,-0.80566 -1.12793,-0.27832 -2.24121,-0.27832 -2.92968,0 -4.48242,1.97754 -1.53808,1.97754 -1.75781,5.97656 0.86426,-1.27441 2.16797,-1.94824 1.30371,-0.68848 2.87109,-0.68848 3.2959,0 5.2002,2.00684 1.91894,1.99219 1.91894,5.43457 0,3.36914 -1.99219,5.40527 -1.99218,2.03614 -5.30273,2.03614 -3.79395,0 -5.80078,-2.90039 -2.00684,-2.91504 -2.00684,-8.4375 0,-5.18555 2.46094,-8.26172 2.46094,-3.09082 6.60645,-3.09082 1.11328,0 2.24121,0.21972 1.14257,0.21973 2.37304,0.65918 z"
         id="path3478"
         inkscape:connector-curvature="0" />
    </g>
    <g
       style="font-style:normal;font-variant:normal;font-weight:normal;font-stretch:normal;font-size:30px;line-height:125%;font-family:Sans;-inkscape-font-specification:'Sans, Normal';text-align:start;letter-spacing:0px;word-spacing:0px;writing-mode:lr-tb;text-anchor:start;fill:#333333;fill-opacity:1;stroke:none;stroke-width:1px;stroke-linecap:butt;stroke-linejoin:miter;stroke-opacity:1"
       id="text4381">
      <path
         d="m 578.79517,236.59906 14.0625,0 0,1.25977 -7.93946,20.61035 -3.09082,0 7.47071,-19.37989 -10.50293,0 0,-2.49023 z"
         id="path3475"
         inkscape:connector-curvature="0" />
    </g>
    <g
       style="font-style:normal;font-variant:normal;font-weight:normal;font-stretch:normal;font-size:30px;line-height:125%;font-family:Sans;-inkscape-font-specification:'Sans, Normal';text-align:start;letter-spacing:0px;word-spacing:0px;writing-mode:lr-tb;text-anchor:start;fill:#333333;fill-opacity:1;stroke:none;stroke-width:1px;stroke-linecap:butt;stroke-linejoin:miter;stroke-opacity:1"
       id="text4385">
      <path
         d="m 661.73761,254.25961 4.83398,0 0,-16.68457 -5.25878,1.05469 0,-2.69531 5.22949,-1.05469 2.95898,0 0,19.37988 4.83399,0 0,2.49024 -12.59766,0 0,-2.49024 z"
         id="path3470"
         inkscape:connector-curvature="0" />
      <path
         d="m 688.45636,237.45786 -7.4707,11.6748 7.4707,0 0,-11.6748 z m -0.77637,-2.57813 3.72071,0 0,14.25293 3.12011,0 0,2.46094 -3.12011,0 0,5.15625 -2.94434,0 0,-5.15625 -9.87305,0 0,-2.85645 9.09668,-13.85742 z"
         id="path3472"
         inkscape:connector-curvature="0" />
    </g>
    <g
       style="font-style:normal;font-variant:normal;font-weight:normal;font-stretch:normal;font-size:30px;line-height:125%;font-family:Sans;-inkscape-font-specification:'Sans, Normal';text-align:start;letter-spacing:0px;word-spacing:0px;writing-mode:lr-tb;text-anchor:start;fill:#333333;fill-opacity:1;stroke:none;stroke-width:1px;stroke-linecap:butt;stroke-linejoin:miter;stroke-opacity:1"
       id="text4389">
      <path
         d="m 814.16998,254.70465 4.83399,0 0,-16.68457 -5.25879,1.05469 0,-2.69531 5.22949,-1.05469 2.95898,0 0,19.37988 4.83399,0 0,2.49024 -12.59766,0 0,-2.49024 z"
         id="path3465"
         inkscape:connector-curvature="0" />
      <path
         d="m 841.72369,245.40289 q 2.12403,0.4541 3.31055,1.88965 1.20117,1.43555 1.20117,3.54492 0,3.23731 -2.22656,5.00977 -2.22656,1.77246 -6.32812,1.77246 -1.37696,0 -2.8418,-0.27832 -1.4502,-0.26367 -3.00293,-0.80566 l 0,-2.85645 q 1.23047,0.71777 2.69531,1.08398 1.46484,0.36622 3.06152,0.36622 2.78321,0 4.2334,-1.09864 1.46485,-1.09863 1.46485,-3.19336 0,-1.93359 -1.36231,-3.01757 -1.34765,-1.09864 -3.76465,-1.09864 l -2.54882,0 0,-2.43164 2.66601,0 q 2.18262,0 3.33984,-0.86426 1.15723,-0.8789 1.15723,-2.51953 0,-1.68457 -1.20117,-2.57812 -1.18652,-0.90821 -3.41309,-0.90821 -1.21582,0 -2.60742,0.26368 -1.3916,0.26367 -3.06152,0.82031 l 0,-2.63672 q 1.68457,-0.46875 3.14941,-0.70312 1.47949,-0.23438 2.78321,-0.23438 3.36914,0 5.33203,1.53809 1.96289,1.52343 1.96289,4.13086 0,1.8164 -1.04004,3.07617 -1.04004,1.24511 -2.95899,1.72851 z"
         id="path3467"
         inkscape:connector-curvature="0" />
    </g>
    <g
       style="font-style:normal;font-variant:normal;font-weight:normal;font-stretch:normal;font-size:30px;line-height:125%;font-family:Sans;-inkscape-font-specification:'Sans, Normal';text-align:start;letter-spacing:0px;word-spacing:0px;writing-mode:lr-tb;text-anchor:start;fill:#333333;fill-opacity:1;stroke:none;stroke-width:1px;stroke-linecap:butt;stroke-linejoin:miter;stroke-opacity:1"
       id="text4393">
      <path
         d="m 835.1958,347.72794 4.83399,0 0,-16.68457 -5.25879,1.05468 0,-2.69531 5.22949,-1.05469 2.95898,0 0,19.37989 4.83399,0 0,2.49023 -12.59766,0 0,-2.49023 z"
         id="path3460"
         inkscape:connector-curvature="0" />
      <path
         d="m 856.3335,347.72794 10.32714,0 0,2.49023 -13.88671,0 0,-2.49023 q 1.68457,-1.74317 4.58496,-4.67286 2.91504,-2.94433 3.66211,-3.79394 1.42089,-1.59668 1.97754,-2.69531 0.57128,-1.11328 0.57128,-2.18262 0,-1.74316 -1.23046,-2.8418 -1.21582,-1.09863 -3.17872,-1.09863 -1.3916,0 -2.94433,0.4834 -1.53809,0.4834 -3.2959,1.46484 l 0,-2.98828 q 1.78711,-0.71777 3.33984,-1.08398 1.55274,-0.36621 2.8418,-0.36621 3.39844,0 5.41992,1.69921 2.02149,1.69922 2.02149,4.54102 0,1.34766 -0.5127,2.56348 -0.49805,1.20117 -1.83105,2.84179 -0.36621,0.42481 -2.3291,2.46094 -1.9629,2.02148 -5.53711,5.66895 z"
         id="path3462"
         inkscape:connector-curvature="0" />
    </g>
    <g
       style="font-style:normal;font-variant:normal;font-weight:normal;font-stretch:normal;font-size:30px;line-height:125%;font-family:Sans;-inkscape-font-specification:'Sans, Normal';text-align:start;letter-spacing:0px;word-spacing:0px;writing-mode:lr-tb;text-anchor:start;fill:#333333;fill-opacity:1;stroke:none;stroke-width:1px;stroke-linecap:butt;stroke-linejoin:miter;stroke-opacity:1"
       id="text4397">
      <path
         d="m 845.39014,419.72537 4.83398,0 0,-16.68457 -5.25879,1.05469 0,-2.69531 5.22949,-1.05469 2.95899,0 0,19.37988 4.83398,0 0,2.49024 -12.59765,0 0,-2.49024 z"
         id="path3440"
         inkscape:connector-curvature="0" />
      <path
         d="m 864.4917,419.72537 4.83398,0 0,-16.68457 -5.25879,1.05469 0,-2.69531 5.2295,-1.05469 2.95898,0 0,19.37988 4.83399,0 0,2.49024 -12.59766,0 0,-2.49024 z"
         id="path3442"
         inkscape:connector-curvature="0" />
    </g>
    <g
       style="font-style:normal;font-variant:normal;font-weight:normal;font-stretch:normal;font-size:30px;line-height:125%;font-family:Sans;-inkscape-font-specification:'Sans, Normal';text-align:start;letter-spacing:0px;word-spacing:0px;writing-mode:lr-tb;text-anchor:start;fill:#333333;fill-opacity:1;stroke:none;stroke-width:1px;stroke-linecap:butt;stroke-linejoin:miter;stroke-opacity:1"
       id="text4401">
      <path
         d="m 845.39014,502.55432 4.83398,0 0,-16.68457 -5.25879,1.05469 0,-2.69531 5.22949,-1.05469 2.95899,0 0,19.37988 4.83398,0 0,2.49024 -12.59765,0 0,-2.49024 z"
         id="path3445"
         inkscape:connector-curvature="0" />
      <path
         d="m 870.30713,485.12268 q -2.28516,0 -3.44238,2.25586 -1.14258,2.24121 -1.14258,6.75293 0,4.49707 1.14258,6.75293 1.15722,2.24121 3.44238,2.24121 2.2998,0 3.44238,-2.24121 1.15723,-2.25586 1.15723,-6.75293 0,-4.51172 -1.15723,-6.75293 -1.14258,-2.25586 -3.44238,-2.25586 z m 0,-2.34375 q 3.67676,0 5.61035,2.91504 1.94824,2.90039 1.94824,8.4375 0,5.52246 -1.94824,8.4375 -1.93359,2.90039 -5.61035,2.90039 -3.67676,0 -5.625,-2.90039 -1.93359,-2.91504 -1.93359,-8.4375 0,-5.53711 1.93359,-8.4375 1.94824,-2.91504 5.625,-2.91504 z"
         id="path3447"
         inkscape:connector-curvature="0" />
    </g>
    <g
       style="font-style:normal;font-variant:normal;font-weight:normal;font-stretch:normal;font-size:30px;line-height:125%;font-family:Sans;-inkscape-font-specification:'Sans, Normal';text-align:start;letter-spacing:0px;word-spacing:0px;writing-mode:lr-tb;text-anchor:start;fill:#333333;fill-opacity:1;stroke:none;stroke-width:1px;stroke-linecap:butt;stroke-linejoin:miter;stroke-opacity:1"
       id="text4409">
      <path
         d="m 684.40466,506.50189 0,-2.69531 q 1.11328,0.52734 2.25586,0.80566 1.14258,0.27832 2.24121,0.27832 2.92969,0 4.46778,-1.96289 1.55273,-1.97754 1.77246,-5.99121 -0.84961,1.25977 -2.15332,1.9336 -1.30371,0.67382 -2.88574,0.67382 -3.28125,0 -5.2002,-1.97753 -1.9043,-1.99219 -1.9043,-5.43458 0,-3.36914 1.99219,-5.40527 1.99219,-2.03613 5.30273,-2.03613 3.79395,0 5.78614,2.91504 2.00683,2.90039 2.00683,8.4375 0,5.1709 -2.46093,8.26172 -2.44629,3.07617 -6.5918,3.07617 -1.11328,0 -2.25586,-0.21973 -1.14258,-0.21972 -2.37305,-0.65918 z m 5.88867,-9.27246 q 1.99219,0 3.14942,-1.3623 1.17187,-1.36231 1.17187,-3.73536 0,-2.35839 -1.17187,-3.7207 -1.15723,-1.37695 -3.14942,-1.37695 -1.99218,0 -3.16406,1.37695 -1.15722,1.36231 -1.15722,3.7207 0,2.37305 1.15722,3.73536 1.17188,1.3623 3.16406,1.3623 z"
         id="path3455"
         inkscape:connector-curvature="0" />
      <path
         d="m 710.46423,488.00092 -4.01367,10.88378 8.04199,0 -4.02832,-10.88378 z m -1.66992,-2.91504 3.35449,0 8.33496,21.87011 -3.07617,0 -1.99218,-5.61035 -9.8584,0 -1.99219,5.61035 -3.12012,0 8.34961,-21.87011 z"
         id="path3457"
         inkscape:connector-curvature="0" />
    </g>
    <g
       style="font-style:normal;font-variant:normal;font-weight:normal;font-stretch:normal;font-size:30px;line-height:125%;font-family:Sans;-inkscape-font-specification:'Sans, Normal';text-align:start;letter-spacing:0px;word-spacing:0px;writing-mode:lr-tb;text-anchor:start;fill:#333333;fill-opacity:1;stroke:none;stroke-width:1px;stroke-linecap:butt;stroke-linejoin:miter;stroke-opacity:1"
       id="text4413">
      <path
         d="m 760.22498,508.41333 0,-2.69531 q 1.11328,0.52734 2.25585,0.80566 1.14258,0.27832 2.24122,0.27832 2.92968,0 4.46777,-1.96289 1.55273,-1.97754 1.77246,-5.99121 -0.84961,1.25977 -2.15332,1.93359 -1.30371,0.67383 -2.88574,0.67383 -3.28125,0 -5.2002,-1.97754 -1.90429,-1.99218 -1.90429,-5.43457 0,-3.36914 1.99218,-5.40527 1.99219,-2.03613 5.30274,-2.03613 3.79394,0 5.78613,2.91504 2.00684,2.90039 2.00684,8.4375 0,5.17089 -2.46094,8.26171 -2.44629,3.07618 -6.5918,3.07618 -1.11328,0 -2.25586,-0.21973 -1.14258,-0.21973 -2.37304,-0.65918 z m 5.88867,-9.27246 q 1.99218,0 3.14941,-1.36231 1.17188,-1.3623 1.17188,-3.73535 0,-2.3584 -1.17188,-3.7207 -1.15723,-1.37695 -3.14941,-1.37695 -1.99219,0 -3.16407,1.37695 -1.15722,1.3623 -1.15722,3.7207 0,2.37305 1.15722,3.73535 1.17188,1.36231 3.16407,1.36231 z"
         id="path3450"
         inkscape:connector-curvature="0" />
      <path
         d="m 781.93396,498.4231 0,8.01269 4.74609,0 q 2.3877,0 3.53028,-0.98144 1.15722,-0.9961 1.15722,-3.03223 0,-2.05078 -1.15722,-3.01758 -1.14258,-0.98144 -3.53028,-0.98144 l -4.74609,0 z m 0,-8.99414 0,6.59179 4.37988,0 q 2.16797,0 3.22266,-0.80566 1.06933,-0.82031 1.06933,-2.49024 0,-1.65527 -1.06933,-2.47558 -1.05469,-0.82031 -3.22266,-0.82031 l -4.37988,0 z m -2.95898,-2.43165 7.55859,0 q 3.38379,0 5.21484,1.40625 1.83106,1.40625 1.83106,3.99903 0,2.00683 -0.9375,3.19336 -0.9375,1.18652 -2.75391,1.47949 2.18262,0.46875 3.38379,1.96289 1.21582,1.47949 1.21582,3.70605 0,2.92969 -1.99219,4.52637 -1.99218,1.59668 -5.66894,1.59668 l -7.85156,0 0,-21.87012 z"
         id="path3452"
         inkscape:connector-curvature="0" />
    </g>
    <text
       xml:space="preserve"
       style="font-style:normal;font-variant:normal;font-weight:normal;font-stretch:normal;font-size:20px;line-height:125%;font-family:Helvetica;-inkscape-font-specification:'Helvetica, Normal';text-align:start;letter-spacing:0px;word-spacing:0px;writing-mode:lr-tb;text-anchor:start;fill:#000000;fill-opacity:1;stroke:none;stroke-width:1px;stroke-linecap:butt;stroke-linejoin:miter;stroke-opacity:1"
       x="201.46672"
       y="319.07062"
       id="text4247"
       sodipodi:linespacing="125%"><tspan
         sodipodi:role="line"
         id="tspan4249"
         x="201.46672"
         y="319.07062" /></text>
  </g>
</svg>
