<?xml version="1.0" encoding="UTF-8" standalone="no"?>
<!-- Created with Inkscape (http://www.inkscape.org/) -->

<svg
   xmlns:dc="http://purl.org/dc/elements/1.1/"
   xmlns:cc="http://creativecommons.org/ns#"
   xmlns:rdf="http://www.w3.org/1999/02/22-rdf-syntax-ns#"
   xmlns:svg="http://www.w3.org/2000/svg"
   xmlns="http://www.w3.org/2000/svg"
   xmlns:sodipodi="http://sodipodi.sourceforge.net/DTD/sodipodi-0.dtd"
   xmlns:inkscape="http://www.inkscape.org/namespaces/inkscape"
   id="svg4248"
   version="1.1"
   inkscape:version="0.91 r13725"
   width="871.93469"
   height="373.0358"
   viewBox="0 0 871.93469 373.0358"
   sodipodi:docname="Stratton Hall 2.svg"
   inkscape:export-filename="E:\DragonShadesX Data\My Documents\WPI floorplans\Stratton Hall 2 Redo.png"
   inkscape:export-xdpi="90"
   inkscape:export-ydpi="90">
  <metadata
     id="metadata4254">
    <rdf:RDF>
      <cc:Work
         rdf:about="">
        <dc:format>image/svg+xml</dc:format>
        <dc:type
           rdf:resource="http://purl.org/dc/dcmitype/StillImage" />
        <dc:title></dc:title>
      </cc:Work>
    </rdf:RDF>
  </metadata>
  <defs
     id="defs4252" />
  <sodipodi:namedview
     pagecolor="#ffffff"
     bordercolor="#666666"
     borderopacity="1"
     objecttolerance="10"
     gridtolerance="10"
     guidetolerance="10"
     inkscape:pageopacity="0"
     inkscape:pageshadow="2"
     inkscape:window-width="1920"
     inkscape:window-height="1018"
     id="namedview4250"
     showgrid="false"
     inkscape:zoom="0.86431979"
     inkscape:cx="217.06312"
     inkscape:cy="100.81871"
     inkscape:window-x="-8"
     inkscape:window-y="-8"
     inkscape:window-maximized="1"
     inkscape:current-layer="layer1"
     fit-margin-top="0"
     fit-margin-left="0"
     fit-margin-right="0"
     fit-margin-bottom="0" />
  <g
     inkscape:groupmode="layer"
     id="layer1"
     inkscape:label="Floor"
     transform="translate(-60.759491,-181.47104)" />
  <g
     inkscape:groupmode="layer"
     id="layer2"
     inkscape:label="Rooms"
     style="display:inline"
     transform="translate(-60.759491,-181.47104)">
    <rect
       style="opacity:1;fill:#eeeeee;fill-opacity:1;fill-rule:nonzero;stroke:none;stroke-width:1;stroke-miterlimit:4;stroke-dasharray:none;stroke-opacity:1"
       id="rect4932"
       width="243.54431"
       height="182.27849"
       x="69.873421"
       y="188.29114" />
    <rect
       style="opacity:1;fill:#eeeeee;fill-opacity:1;fill-rule:nonzero;stroke:none;stroke-width:1;stroke-miterlimit:4;stroke-dasharray:none;stroke-opacity:1"
       id="rect4934"
       width="177.21519"
       height="116.4557"
       x="312.40506"
       y="188.79747" />
    <rect
       style="opacity:1;fill:#eeeeee;fill-opacity:1;fill-rule:nonzero;stroke:none;stroke-width:1;stroke-miterlimit:4;stroke-dasharray:none;stroke-opacity:1"
       id="rect4936"
       width="63.291138"
       height="20"
       x="311.64557"
       y="289.55698" />
    <rect
       style="opacity:1;fill:#eeeeee;fill-opacity:1;fill-rule:nonzero;stroke:none;stroke-width:1;stroke-miterlimit:4;stroke-dasharray:none;stroke-opacity:1"
       id="rect4938"
       width="296.44781"
       height="121.72977"
       x="628.69849"
       y="188.57372" />
    <rect
       style="opacity:1;fill:#eeeeee;fill-opacity:1;fill-rule:nonzero;stroke:none;stroke-width:1;stroke-miterlimit:4;stroke-dasharray:none;stroke-opacity:1"
       id="rect4942"
       width="552.08032"
       height="184.02678"
       x="374.49808"
       y="368.30414" />
    <rect
       style="opacity:1;fill:#eeeeee;fill-opacity:1;fill-rule:nonzero;stroke:none;stroke-width:1;stroke-miterlimit:4;stroke-dasharray:none;stroke-opacity:1"
       id="rect4944"
       width="317.21347"
       height="138.1991"
       x="65.877289"
       y="409.11942" />
  </g>
  <g
     inkscape:groupmode="layer"
     id="layer3"
     inkscape:label="Walls"
     style="display:inline"
     transform="translate(-60.759491,-181.47104)">
    <rect
       style="opacity:1;fill:#ac2b37;fill-opacity:1;fill-rule:nonzero;stroke:none;stroke-width:1;stroke-miterlimit:4;stroke-dasharray:none;stroke-opacity:1"
       id="rect4798"
       width="11.919312"
       height="151.67368"
       x="920.77484"
       y="181.47104" />
    <rect
       style="opacity:1;fill:#ac2b37;fill-opacity:1;fill-rule:nonzero;stroke:none;stroke-width:1;stroke-miterlimit:4;stroke-dasharray:none;stroke-opacity:1"
       id="rect4800"
       width="862.03802"
       height="11.37442"
       x="64.291077"
       y="181.586" />
    <rect
       style="opacity:1;fill:#ac2b37;fill-opacity:1;fill-rule:nonzero;stroke:none;stroke-width:1;stroke-miterlimit:4;stroke-dasharray:none;stroke-opacity:1"
       id="rect4802"
       width="12.172983"
       height="323.05209"
       x="60.864887"
       y="228.49391" />
    <rect
       style="opacity:1;fill:#ac2b37;fill-opacity:1;fill-rule:nonzero;stroke:none;stroke-width:1;stroke-miterlimit:4;stroke-dasharray:none;stroke-opacity:1"
       id="rect4804"
       width="867.93005"
       height="10.013193"
       x="60.759491"
       y="544.49365" />
    <rect
       style="opacity:1;fill:#ac2b37;fill-opacity:1;fill-rule:nonzero;stroke:none;stroke-width:1;stroke-miterlimit:4;stroke-dasharray:none;stroke-opacity:1"
       id="rect4806"
       width="10.740871"
       height="195.4837"
       x="921.92401"
       y="356.13116" />
    <rect
       style="opacity:1;fill:#ac2b37;fill-opacity:1;fill-rule:nonzero;stroke:none;stroke-width:1;stroke-miterlimit:4;stroke-dasharray:none;stroke-opacity:1"
       id="rect4808"
       width="8.4136763"
       height="17.543411"
       x="64.266167"
       y="187.1416" />
    <rect
       style="opacity:1;fill:#ac2b37;fill-opacity:1;fill-rule:nonzero;stroke:none;stroke-width:1;stroke-miterlimit:4;stroke-dasharray:none;stroke-opacity:1"
       id="rect4810"
       width="6.0759492"
       height="3.7974684"
       x="71.898735"
       y="368.29114" />
    <rect
       style="opacity:1;fill:#ac2b37;fill-opacity:1;fill-rule:nonzero;stroke:none;stroke-width:1;stroke-miterlimit:4;stroke-dasharray:none;stroke-opacity:1"
       id="rect4824"
       width="213.7233"
       height="5.0123901"
       x="100.96411"
       y="367.58807" />
    <rect
       style="opacity:1;fill:#ac2b37;fill-opacity:1;fill-rule:nonzero;stroke:none;stroke-width:1;stroke-miterlimit:4;stroke-dasharray:none;stroke-opacity:1"
       id="rect4826"
       width="3.9383163"
       height="15.395236"
       x="310.76895"
       y="355.05707" />
    <rect
       style="opacity:1;fill:#ac2b37;fill-opacity:1;fill-rule:nonzero;stroke:none;stroke-width:1;stroke-miterlimit:4;stroke-dasharray:none;stroke-opacity:1"
       id="rect4828"
       width="4.556962"
       height="142.78481"
       x="310.12659"
       y="189.55696" />
    <rect
       style="opacity:1;fill:#ac2b37;fill-opacity:1;fill-rule:nonzero;stroke:none;stroke-width:1;stroke-miterlimit:4;stroke-dasharray:none;stroke-opacity:1"
       id="rect4830"
       width="20.253164"
       height="4.050633"
       x="312.65823"
       y="307.27847" />
    <rect
       style="opacity:1;fill:#ac2b37;fill-opacity:1;fill-rule:nonzero;stroke:none;stroke-width:1;stroke-miterlimit:4;stroke-dasharray:none;stroke-opacity:1"
       id="rect4832"
       width="16.962025"
       height="4.050633"
       x="359.24051"
       y="307.27847" />
    <rect
       style="opacity:1;fill:#ac2b37;fill-opacity:1;fill-rule:nonzero;stroke:none;stroke-width:1;stroke-miterlimit:4;stroke-dasharray:none;stroke-opacity:1"
       id="rect4834"
       width="7.5949368"
       height="129.62025"
       x="371.64557"
       y="189.3038" />
    <rect
       style="opacity:1;fill:#ac2b37;fill-opacity:1;fill-rule:nonzero;stroke:none;stroke-width:1;stroke-miterlimit:4;stroke-dasharray:none;stroke-opacity:1"
       id="rect4836"
       width="21.772152"
       height="6.835443"
       x="375.44302"
       y="300.18988" />
    <rect
       style="opacity:1;fill:#ac2b37;fill-opacity:1;fill-rule:nonzero;stroke:none;stroke-width:1;stroke-miterlimit:4;stroke-dasharray:none;stroke-opacity:1"
       id="rect4838"
       width="9.3670883"
       height="30.886076"
       x="376.70886"
       y="274.11392" />
    <rect
       style="opacity:1;fill:#ac2b37;fill-opacity:1;fill-rule:nonzero;stroke:none;stroke-width:1;stroke-miterlimit:4;stroke-dasharray:none;stroke-opacity:1"
       id="rect4840"
       width="15.189874"
       height="6.835443"
       x="423.29114"
       y="300.6962" />
    <rect
       style="opacity:1;fill:#ac2b37;fill-opacity:1;fill-rule:nonzero;stroke:none;stroke-width:1;stroke-miterlimit:4;stroke-dasharray:none;stroke-opacity:1"
       id="rect4842"
       width="4.556962"
       height="113.16456"
       x="431.3924"
       y="189.81012" />
    <rect
       style="opacity:1;fill:#ac2b37;fill-opacity:1;fill-rule:nonzero;stroke:none;stroke-width:1;stroke-miterlimit:4;stroke-dasharray:none;stroke-opacity:1"
       id="rect4844"
       width="22.784811"
       height="4.8101268"
       x="463.54431"
       y="302.46835" />
    <rect
       style="opacity:1;fill:#ac2b37;fill-opacity:1;fill-rule:nonzero;stroke:none;stroke-width:1;stroke-miterlimit:4;stroke-dasharray:none;stroke-opacity:1"
       id="rect4846"
       width="8.8607597"
       height="125.06329"
       x="483.54431"
       y="189.3038" />
    <rect
       style="opacity:1;fill:#ac2b37;fill-opacity:1;fill-rule:nonzero;stroke:none;stroke-width:1;stroke-miterlimit:4;stroke-dasharray:none;stroke-opacity:1"
       id="rect4848"
       width="8.1012659"
       height="11.64557"
       x="478.22784"
       y="293.10126" />
    <rect
       style="opacity:1;fill:#ac2b37;fill-opacity:1;fill-rule:nonzero;stroke:none;stroke-width:1;stroke-miterlimit:4;stroke-dasharray:none;stroke-opacity:1"
       id="rect4850"
       width="17.974684"
       height="121.26582"
       x="616.20251"
       y="191.07594" />
    <rect
       style="opacity:1;fill:#ac2b37;fill-opacity:1;fill-rule:nonzero;stroke:none;stroke-width:1;stroke-miterlimit:4;stroke-dasharray:none;stroke-opacity:1"
       id="rect4852"
       width="9.113924"
       height="30.126583"
       x="616.20251"
       y="285" />
    <rect
       style="opacity:1;fill:#ac2b37;fill-opacity:1;fill-rule:nonzero;stroke:none;stroke-width:1;stroke-miterlimit:4;stroke-dasharray:none;stroke-opacity:1"
       id="rect4854"
       width="35.189873"
       height="6.0759492"
       x="624.05066"
       y="306.01266" />
    <rect
       style="opacity:1;fill:#ac2b37;fill-opacity:1;fill-rule:nonzero;stroke:none;stroke-width:1;stroke-miterlimit:4;stroke-dasharray:none;stroke-opacity:1"
       id="rect4856"
       width="12.405064"
       height="3.7974684"
       x="685.06329"
       y="308.54431" />
    <rect
       style="opacity:1;fill:#ac2b37;fill-opacity:1;fill-rule:nonzero;stroke:none;stroke-width:1;stroke-miterlimit:4;stroke-dasharray:none;stroke-opacity:1"
       id="rect4858"
       width="4.8101268"
       height="53.164558"
       x="689.87341"
       y="256.3924" />
    <rect
       style="opacity:1;fill:#ac2b37;fill-opacity:1;fill-rule:nonzero;stroke:none;stroke-width:1;stroke-miterlimit:4;stroke-dasharray:none;stroke-opacity:1"
       id="rect4860"
       width="37.943001"
       height="4.6202393"
       x="692.75317"
       y="256.3291" />
    <rect
       style="opacity:1;fill:#ac2b37;fill-opacity:1;fill-rule:nonzero;stroke:none;stroke-width:1;stroke-miterlimit:4;stroke-dasharray:none;stroke-opacity:1"
       id="rect4862"
       width="10.793284"
       height="11.520201"
       x="720.53284"
       y="258.38931" />
    <rect
       style="opacity:1;fill:#ac2b37;fill-opacity:1;fill-rule:nonzero;stroke:none;stroke-width:1;stroke-miterlimit:4;stroke-dasharray:none;stroke-opacity:1"
       id="rect4864"
       width="3.9382935"
       height="118.45882"
       x="728.05145"
       y="191.97499" />
    <rect
       style="opacity:1;fill:#ac2b37;fill-opacity:1;fill-rule:nonzero;stroke:none;stroke-width:1;stroke-miterlimit:4;stroke-dasharray:none;stroke-opacity:1"
       id="rect4866"
       width="4.6543736"
       height="67.488419"
       x="725.36627"
       y="190.90089" />
    <rect
       style="opacity:1;fill:#ac2b37;fill-opacity:1;fill-rule:nonzero;stroke:none;stroke-width:1;stroke-miterlimit:4;stroke-dasharray:none;stroke-opacity:1"
       id="rect4868"
       width="79.746834"
       height="4.050633"
       x="723.03796"
       y="308.54431" />
    <rect
       style="opacity:1;fill:#ac2b37;fill-opacity:1;fill-rule:nonzero;stroke:none;stroke-width:1;stroke-miterlimit:4;stroke-dasharray:none;stroke-opacity:1"
       id="rect4870"
       width="47.259796"
       height="4.2963452"
       x="827.04639"
       y="309.2294" />
    <rect
       style="opacity:1;fill:#ac2b37;fill-opacity:1;fill-rule:nonzero;stroke:none;stroke-width:1;stroke-miterlimit:4;stroke-dasharray:none;stroke-opacity:1"
       id="rect4872"
       width="4.2963452"
       height="121.01372"
       x="851.3924"
       y="190.36386" />
    <rect
       style="opacity:1;fill:#ac2b37;fill-opacity:1;fill-rule:nonzero;stroke:none;stroke-width:1;stroke-miterlimit:4;stroke-dasharray:none;stroke-opacity:1"
       id="rect4874"
       width="24.345955"
       height="5.3704314"
       x="897.57806"
       y="308.51334" />
    <rect
       style="opacity:1;fill:#ac2b37;fill-opacity:1;fill-rule:nonzero;stroke:none;stroke-width:1;stroke-miterlimit:4;stroke-dasharray:none;stroke-opacity:1"
       id="rect4876"
       width="14.410657"
       height="4.2963452"
       x="909.84058"
       y="366.69302" />
    <rect
       style="opacity:1;fill:#ac2b37;fill-opacity:1;fill-rule:nonzero;stroke:none;stroke-width:1;stroke-miterlimit:4;stroke-dasharray:none;stroke-opacity:1"
       id="rect4878"
       width="93.624519"
       height="4.1173306"
       x="791.95959"
       y="365.97696" />
    <rect
       style="opacity:1;fill:#ac2b37;fill-opacity:1;fill-rule:nonzero;stroke:none;stroke-width:1;stroke-miterlimit:4;stroke-dasharray:none;stroke-opacity:1"
       id="rect4880"
       width="82.883659"
       height="10.740863"
       x="796.43494"
       y="367.94611" />
    <rect
       style="opacity:1;fill:#ac2b37;fill-opacity:1;fill-rule:nonzero;stroke:none;stroke-width:1;stroke-miterlimit:4;stroke-dasharray:none;stroke-opacity:1"
       id="rect4882"
       width="12.531646"
       height="4.556962"
       x="873.03796"
       y="367.40506" />
    <rect
       style="opacity:1;fill:#ac2b37;fill-opacity:1;fill-rule:nonzero;stroke:none;stroke-width:1;stroke-miterlimit:4;stroke-dasharray:none;stroke-opacity:1"
       id="rect4884"
       width="4.6835442"
       height="178.60759"
       x="796.3291"
       y="370.18988" />
    <rect
       style="opacity:1;fill:#ac2b37;fill-opacity:1;fill-rule:nonzero;stroke:none;stroke-width:1;stroke-miterlimit:4;stroke-dasharray:none;stroke-opacity:1"
       id="rect4886"
       width="102.02531"
       height="3.7974684"
       x="663.54431"
       y="365.75949" />
    <rect
       style="opacity:1;fill:#ac2b37;fill-opacity:1;fill-rule:nonzero;stroke:none;stroke-width:1;stroke-miterlimit:4;stroke-dasharray:none;stroke-opacity:1"
       id="rect4888"
       width="34.177216"
       height="3.0379746"
       x="602.2785"
       y="366.01266" />
    <rect
       style="opacity:1;fill:#ac2b37;fill-opacity:1;fill-rule:nonzero;stroke:none;stroke-width:1;stroke-miterlimit:4;stroke-dasharray:none;stroke-opacity:1"
       id="rect4890"
       width="27.088608"
       height="5.0632911"
       x="601.26581"
       y="366.77216" />
    <rect
       style="opacity:1;fill:#ac2b37;fill-opacity:1;fill-rule:nonzero;stroke:none;stroke-width:1;stroke-miterlimit:4;stroke-dasharray:none;stroke-opacity:1"
       id="rect4892"
       width="4.050633"
       height="10.126582"
       x="600.50635"
       y="359.43039" />
    <rect
       style="opacity:1;fill:#ac2b37;fill-opacity:1;fill-rule:nonzero;stroke:none;stroke-width:1;stroke-miterlimit:4;stroke-dasharray:none;stroke-opacity:1"
       id="rect4894"
       width="3.5443039"
       height="178.48102"
       x="606.07593"
       y="368.29114" />
    <rect
       style="opacity:1;fill:#ac2b37;fill-opacity:1;fill-rule:nonzero;stroke:none;stroke-width:1;stroke-miterlimit:4;stroke-dasharray:none;stroke-opacity:1"
       id="rect4896"
       width="6.802546"
       height="11.45692"
       x="372.34991"
       y="535.14557" />
    <rect
       style="opacity:1;fill:#ac2b37;fill-opacity:1;fill-rule:nonzero;stroke:none;stroke-width:1;stroke-miterlimit:4;stroke-dasharray:none;stroke-opacity:1"
       id="rect4898"
       width="7.5186038"
       height="154.66843"
       x="371.99188"
       y="356.13116" />
    <rect
       style="opacity:1;fill:#ac2b37;fill-opacity:1;fill-rule:nonzero;stroke:none;stroke-width:1;stroke-miterlimit:4;stroke-dasharray:none;stroke-opacity:1"
       id="rect4900"
       width="10.740863"
       height="6.802546"
       x="366.62143"
       y="367.94611" />
    <rect
       style="opacity:1;fill:#ac2b37;fill-opacity:1;fill-rule:nonzero;stroke:none;stroke-width:1;stroke-miterlimit:4;stroke-dasharray:none;stroke-opacity:1"
       id="rect4902"
       width="12.531006"
       height="38.667107"
       x="378.4364"
       y="361.85962" />
    <rect
       style="opacity:1;fill:#ac2b37;fill-opacity:1;fill-rule:nonzero;stroke:none;stroke-width:1;stroke-miterlimit:4;stroke-dasharray:none;stroke-opacity:1"
       id="rect4904"
       width="93.087448"
       height="11.098877"
       x="482.98077"
       y="366.15598" />
    <rect
       style="opacity:1;fill:#ac2b37;fill-opacity:1;fill-rule:nonzero;stroke:none;stroke-width:1;stroke-miterlimit:4;stroke-dasharray:none;stroke-opacity:1"
       id="rect4906"
       width="104.18636"
       height="11.814949"
       x="389.53528"
       y="361.85962" />
    <rect
       style="opacity:1;fill:#ac2b37;fill-opacity:1;fill-rule:nonzero;stroke:none;stroke-width:1;stroke-miterlimit:4;stroke-dasharray:none;stroke-opacity:1"
       id="rect4908"
       width="75.54406"
       height="7.8766208"
       x="483.69684"
       y="359.71146" />
    <rect
       style="opacity:1;fill:#ac2b37;fill-opacity:1;fill-rule:nonzero;stroke:none;stroke-width:1;stroke-miterlimit:4;stroke-dasharray:none;stroke-opacity:1"
       id="rect4910"
       width="9.4936705"
       height="10"
       x="483.54431"
       y="355" />
    <rect
       style="opacity:1;fill:#ac2b37;fill-opacity:1;fill-rule:nonzero;stroke:none;stroke-width:1;stroke-miterlimit:4;stroke-dasharray:none;stroke-opacity:1"
       id="rect4912"
       width="24.556963"
       height="4.3037972"
       x="72.025314"
       y="407.65823" />
    <rect
       style="opacity:1;fill:#ac2b37;fill-opacity:1;fill-rule:nonzero;stroke:none;stroke-width:1;stroke-miterlimit:4;stroke-dasharray:none;stroke-opacity:1"
       id="rect4914"
       width="33.79747"
       height="4.050633"
       x="122.91139"
       y="407.91138" />
    <rect
       style="opacity:1;fill:#ac2b37;fill-opacity:1;fill-rule:nonzero;stroke:none;stroke-width:1;stroke-miterlimit:4;stroke-dasharray:none;stroke-opacity:1"
       id="rect4916"
       width="36.329113"
       height="4.4303799"
       x="181.89873"
       y="408.16455" />
    <rect
       style="opacity:1;fill:#ac2b37;fill-opacity:1;fill-rule:nonzero;stroke:none;stroke-width:1;stroke-miterlimit:4;stroke-dasharray:none;stroke-opacity:1"
       id="rect4918"
       width="36.329113"
       height="4.6835442"
       x="243.79747"
       y="407.91138" />
    <rect
       style="opacity:1;fill:#ac2b37;fill-opacity:1;fill-rule:nonzero;stroke:none;stroke-width:1;stroke-miterlimit:4;stroke-dasharray:none;stroke-opacity:1"
       id="rect4920"
       width="34.050632"
       height="4.1772151"
       x="305.44302"
       y="408.54431" />
    <rect
       style="opacity:1;fill:#ac2b37;fill-opacity:1;fill-rule:nonzero;stroke:none;stroke-width:1;stroke-miterlimit:4;stroke-dasharray:none;stroke-opacity:1"
       id="rect4922"
       width="9.6202602"
       height="4.6835399"
       x="364.05063"
       y="408.29114" />
    <rect
       style="opacity:1;fill:#ac2b37;fill-opacity:1;fill-rule:nonzero;stroke:none;stroke-width:1;stroke-miterlimit:4;stroke-dasharray:none;stroke-opacity:1"
       id="rect4924"
       width="5.0124025"
       height="136.946"
       x="309.87387"
       y="410.0145" />
    <rect
       style="opacity:1;fill:#ac2b37;fill-opacity:1;fill-rule:nonzero;stroke:none;stroke-width:1;stroke-miterlimit:4;stroke-dasharray:none;stroke-opacity:1"
       id="rect4926"
       width="5.3704314"
       height="134.97684"
       x="248.11392"
       y="410.73056" />
    <rect
       style="opacity:1;fill:#ac2b37;fill-opacity:1;fill-rule:nonzero;stroke:none;stroke-width:1;stroke-miterlimit:4;stroke-dasharray:none;stroke-opacity:1"
       id="rect4928"
       width="5.0124025"
       height="136.58797"
       x="186.89101"
       y="410.19351" />
    <rect
       style="opacity:1;fill:#ac2b37;fill-opacity:1;fill-rule:nonzero;stroke:none;stroke-width:1;stroke-miterlimit:4;stroke-dasharray:none;stroke-opacity:1"
       id="rect4930"
       width="4.4753594"
       height="139.09416"
       x="127.63725"
       y="410.55154" />
  </g>
  <g
     inkscape:groupmode="layer"
     id="layer4"
     inkscape:label="Labels"
     style="display:inline"
     transform="translate(-60.759491,-181.47104)">
    <g
       style="font-style:normal;font-variant:normal;font-weight:normal;font-stretch:normal;font-size:15px;line-height:125%;font-family:Helvetica;-inkscape-font-specification:'Helvetica, Normal';text-align:start;letter-spacing:0px;word-spacing:0px;writing-mode:lr-tb;text-anchor:start;fill:#333333;fill-opacity:1;stroke:none;stroke-width:1px;stroke-linecap:butt;stroke-linejoin:miter;stroke-opacity:1"
       id="text4982">
      <path
         d="m 186.96785,277.44659 0,1.68946 -9.46289,0 q -0.0195,-0.63477 0.20508,-1.22071 0.36133,-0.96679 1.15234,-1.90429 0.80078,-0.9375 2.30469,-2.16797 2.33398,-1.91406 3.1543,-3.02735 0.82031,-1.12304 0.82031,-2.11914 0,-1.04492 -0.75196,-1.75781 -0.74218,-0.72265 -1.94335,-0.72265 -1.26954,0 -2.03125,0.76171 -0.76172,0.76172 -0.77149,2.10938 l -1.80664,-0.18555 q 0.18555,-2.02148 1.39648,-3.07617 1.21094,-1.06445 3.25196,-1.06445 2.06054,0 3.26172,1.14258 1.20117,1.14257 1.20117,2.83203 0,0.85937 -0.35156,1.68945 -0.35157,0.83008 -1.17188,1.74805 -0.81055,0.91797 -2.70508,2.51953 -1.58203,1.32812 -2.03125,1.80664 -0.44922,0.46875 -0.74218,0.94726 l 7.02148,0 z"
         style="font-style:normal;font-variant:normal;font-weight:normal;font-stretch:normal;font-size:20px;line-height:125%;font-family:Helvetica;-inkscape-font-specification:'Helvetica, Normal';text-align:start;writing-mode:lr-tb;text-anchor:start;fill:#333333;fill-opacity:1"
         id="path3551"
         inkscape:connector-curvature="0" />
      <path
         d="m 188.86238,272.0755 q 0,-2.53906 0.51758,-4.08203 0.52734,-1.55274 1.55273,-2.39258 1.03516,-0.83984 2.59766,-0.83984 1.15234,0 2.02148,0.46875 0.86914,0.45898 1.43555,1.33789 0.56641,0.86914 0.88867,2.1289 0.32227,1.25 0.32227,3.37891 0,2.51953 -0.51758,4.07227 -0.51758,1.54296 -1.55273,2.39257 -1.02539,0.83985 -2.59766,0.83985 -2.07031,0 -3.25195,-1.48438 -1.41602,-1.78711 -1.41602,-5.82031 z m 1.80664,0 q 0,3.52539 0.82031,4.69727 0.83008,1.16211 2.04102,1.16211 1.21094,0 2.03125,-1.17188 0.83008,-1.17187 0.83008,-4.6875 0,-3.53516 -0.83008,-4.69727 -0.82031,-1.1621 -2.05078,-1.1621 -1.21094,0 -1.9336,1.02539 -0.9082,1.30859 -0.9082,4.83398 z"
         style="font-style:normal;font-variant:normal;font-weight:normal;font-stretch:normal;font-size:20px;line-height:125%;font-family:Helvetica;-inkscape-font-specification:'Helvetica, Normal';text-align:start;writing-mode:lr-tb;text-anchor:start;fill:#333333;fill-opacity:1"
         id="path3553"
         inkscape:connector-curvature="0" />
      <path
         d="m 209.23347,277.44659 0,1.68946 -9.46289,0 q -0.0195,-0.63477 0.20508,-1.22071 0.36133,-0.96679 1.15235,-1.90429 0.80078,-0.9375 2.30468,-2.16797 2.33399,-1.91406 3.1543,-3.02735 0.82031,-1.12304 0.82031,-2.11914 0,-1.04492 -0.75195,-1.75781 -0.74219,-0.72265 -1.94336,-0.72265 -1.26953,0 -2.03125,0.76171 -0.76172,0.76172 -0.77148,2.10938 l -1.80664,-0.18555 q 0.18554,-2.02148 1.39648,-3.07617 1.21094,-1.06445 3.25195,-1.06445 2.06055,0 3.26172,1.14258 1.20117,1.14257 1.20117,2.83203 0,0.85937 -0.35156,1.68945 -0.35156,0.83008 -1.17187,1.74805 -0.81055,0.91797 -2.70508,2.51953 -1.58203,1.32812 -2.03125,1.80664 -0.44922,0.46875 -0.74219,0.94726 l 7.02148,0 z"
         style="font-style:normal;font-variant:normal;font-weight:normal;font-stretch:normal;font-size:20px;line-height:125%;font-family:Helvetica;-inkscape-font-specification:'Helvetica, Normal';text-align:start;writing-mode:lr-tb;text-anchor:start;fill:#333333;fill-opacity:1"
         id="path3555"
         inkscape:connector-curvature="0" />
    </g>
    <g
       style="font-style:normal;font-variant:normal;font-weight:normal;font-stretch:normal;font-size:20px;line-height:125%;font-family:Helvetica;-inkscape-font-specification:'Helvetica, Normal';text-align:start;letter-spacing:0px;word-spacing:0px;writing-mode:lr-tb;text-anchor:start;fill:#333333;fill-opacity:1;stroke:none;stroke-width:1px;stroke-linecap:butt;stroke-linejoin:miter;stroke-opacity:1"
       id="text4986">
      <path
         d="m 329.18967,253.74557 0,1.68946 -9.46289,0 q -0.0195,-0.63477 0.20507,-1.22071 0.36133,-0.96679 1.15235,-1.90429 0.80078,-0.9375 2.30469,-2.16797 2.33398,-1.91406 3.15429,-3.02734 0.82031,-1.12305 0.82031,-2.11915 0,-1.04492 -0.75195,-1.75781 -0.74219,-0.72265 -1.94336,-0.72265 -1.26953,0 -2.03125,0.76171 -0.76172,0.76172 -0.77148,2.10938 l -1.80664,-0.18555 q 0.18554,-2.02148 1.39648,-3.07617 1.21094,-1.06445 3.25195,-1.06445 2.06055,0 3.26172,1.14258 1.20118,1.14257 1.20118,2.83203 0,0.85937 -0.35157,1.68945 -0.35156,0.83008 -1.17187,1.74805 -0.81055,0.91797 -2.70508,2.51953 -1.58203,1.32812 -2.03125,1.80664 -0.44922,0.46875 -0.74219,0.94726 l 7.02149,0 z"
         id="path3542"
         inkscape:connector-curvature="0" />
      <path
         d="m 331.0842,248.37448 q 0,-2.53906 0.51758,-4.08203 0.52734,-1.55273 1.55273,-2.39258 1.03516,-0.83984 2.59766,-0.83984 1.15234,0 2.02148,0.46875 0.86914,0.45898 1.43555,1.33789 0.5664,0.86914 0.88867,2.1289 0.32227,1.25 0.32227,3.37891 0,2.51953 -0.51758,4.07227 -0.51758,1.54297 -1.55274,2.39257 -1.02539,0.83985 -2.59765,0.83985 -2.07032,0 -3.25196,-1.48438 -1.41601,-1.78711 -1.41601,-5.82031 z m 1.80664,0 q 0,3.52539 0.82031,4.69727 0.83008,1.16211 2.04102,1.16211 1.21093,0 2.03125,-1.17188 0.83007,-1.17187 0.83007,-4.6875 0,-3.53516 -0.83007,-4.69726 -0.82032,-1.16211 -2.05078,-1.16211 -1.21094,0 -1.9336,1.02539 -0.9082,1.30859 -0.9082,4.83398 z"
         id="path3544"
         inkscape:connector-curvature="0" />
      <path
         d="m 348.8381,255.43503 -1.75781,0 0,-11.20117 q -0.63476,0.60546 -1.66992,1.21093 -1.02539,0.60547 -1.8457,0.90821 l 0,-1.69922 q 1.47461,-0.69336 2.57812,-1.67969 1.10352,-0.98633 1.5625,-1.91406 l 1.13281,0 0,14.375 z"
         id="path3546"
         inkscape:connector-curvature="0" />
      <path
         d="m 352.49045,255.43503 5.49804,-14.31641 2.04102,0 5.85938,14.31641 -2.15821,0 -1.66992,-4.33594 -5.98633,0 -1.57226,4.33594 -2.01172,0 z m 4.13086,-5.87891 4.85351,0 -1.49414,-3.96484 q -0.68359,-1.80664 -1.01562,-2.96875 -0.27344,1.37695 -0.77149,2.73437 l -1.57226,4.19922 z"
         id="path3548"
         inkscape:connector-curvature="0" />
    </g>
    <g
       style="font-style:normal;font-variant:normal;font-weight:normal;font-stretch:normal;font-size:20px;line-height:125%;font-family:Helvetica;-inkscape-font-specification:'Helvetica, Normal';text-align:start;letter-spacing:0px;word-spacing:0px;writing-mode:lr-tb;text-anchor:start;fill:#333333;fill-opacity:1;stroke:none;stroke-width:1px;stroke-linecap:butt;stroke-linejoin:miter;stroke-opacity:1"
       id="text4990">
      <path
         d="m 393.56836,253.89633 0,1.68945 -9.46289,0 q -0.0195,-0.63476 0.20508,-1.2207 0.36132,-0.9668 1.15234,-1.9043 0.80078,-0.9375 2.30469,-2.16796 2.33398,-1.91407 3.15429,-3.02735 0.82032,-1.12304 0.82032,-2.11914 0,-1.04492 -0.75196,-1.75781 -0.74218,-0.72266 -1.94336,-0.72266 -1.26953,0 -2.03125,0.76172 -0.76171,0.76172 -0.77148,2.10938 l -1.80664,-0.18555 q 0.18555,-2.02148 1.39648,-3.07617 1.21094,-1.06446 3.25196,-1.06446 2.06054,0 3.26172,1.14258 1.20117,1.14258 1.20117,2.83203 0,0.85938 -0.35156,1.68946 -0.35157,0.83008 -1.17188,1.74804 -0.81055,0.91797 -2.70508,2.51954 -1.58203,1.32812 -2.03125,1.80664 -0.44922,0.46875 -0.74219,0.94726 l 7.02149,0 z"
         id="path3533"
         inkscape:connector-curvature="0" />
      <path
         d="m 395.46289,248.52524 q 0,-2.53906 0.51758,-4.08203 0.52734,-1.55274 1.55273,-2.39258 1.03516,-0.83985 2.59766,-0.83985 1.15234,0 2.02148,0.46875 0.86914,0.45899 1.43555,1.3379 0.56641,0.86914 0.88867,2.1289 0.32227,1.25 0.32227,3.37891 0,2.51953 -0.51758,4.07226 -0.51758,1.54297 -1.55273,2.39258 -1.0254,0.83985 -2.59766,0.83985 -2.07031,0 -3.25195,-1.48438 -1.41602,-1.78711 -1.41602,-5.82031 z m 1.80664,0 q 0,3.52539 0.82031,4.69726 0.83008,1.16211 2.04102,1.16211 1.21094,0 2.03125,-1.17187 0.83008,-1.17188 0.83008,-4.6875 0,-3.53516 -0.83008,-4.69727 -0.82031,-1.16211 -2.05078,-1.16211 -1.21094,0 -1.9336,1.02539 -0.9082,1.3086 -0.9082,4.83399 z"
         id="path3535"
         inkscape:connector-curvature="0" />
      <path
         d="m 413.2168,255.58578 -1.75782,0 0,-11.20117 q -0.63476,0.60547 -1.66992,1.21094 -1.02539,0.60547 -1.8457,0.9082 l 0,-1.69922 q 1.47461,-0.69335 2.57812,-1.67968 1.10352,-0.98633 1.5625,-1.91407 l 1.13282,0 0,14.375 z"
         id="path3537"
         inkscape:connector-curvature="0" />
      <path
         d="m 418.36328,255.58578 0,-14.3164 5.37109,0 q 1.64063,0 2.62696,0.43945 0.99609,0.42969 1.55273,1.33789 0.56641,0.89844 0.56641,1.88477 0,0.91797 -0.49805,1.72851 -0.49805,0.81055 -1.5039,1.3086 1.29882,0.38086 1.99218,1.29883 0.70313,0.91796 0.70313,2.16796 0,1.00586 -0.42969,1.875 -0.41992,0.85938 -1.04492,1.32813 -0.625,0.46875 -1.57227,0.71289 -0.9375,0.23437 -2.30468,0.23437 l -5.45899,0 z m 1.89453,-8.30078 3.09571,0 q 1.25976,0 1.80664,-0.16601 0.72265,-0.21485 1.08398,-0.71289 0.37109,-0.49805 0.37109,-1.25 0,-0.71289 -0.34179,-1.25 -0.3418,-0.54688 -0.97657,-0.74219 -0.63476,-0.20508 -2.17773,-0.20508 l -2.86133,0 0,4.32617 z m 0,6.61133 3.56446,0 q 0.91796,0 1.28906,-0.0684 0.65429,-0.11719 1.09375,-0.39062 0.43945,-0.27344 0.72265,-0.79102 0.28321,-0.52734 0.28321,-1.21094 0,-0.80078 -0.41016,-1.38671 -0.41016,-0.59571 -1.14258,-0.83008 -0.72265,-0.24414 -2.08984,-0.24414 l -3.31055,0 0,4.92187 z"
         id="path3539"
         inkscape:connector-curvature="0" />
    </g>
    <g
       style="font-style:normal;font-variant:normal;font-weight:normal;font-stretch:normal;font-size:20px;line-height:125%;font-family:Helvetica;-inkscape-font-specification:'Helvetica, Normal';text-align:start;letter-spacing:0px;word-spacing:0px;writing-mode:lr-tb;text-anchor:start;fill:#333333;fill-opacity:1;stroke:none;stroke-width:1px;stroke-linecap:butt;stroke-linejoin:miter;stroke-opacity:1"
       id="text4994">
      <path
         d="m 446.03284,253.48822 0,1.68945 -9.46289,0 q -0.0195,-0.63476 0.20507,-1.2207 0.36133,-0.9668 1.15235,-1.9043 0.80078,-0.9375 2.30469,-2.16797 2.33398,-1.91406 3.15429,-3.02734 0.82032,-1.12305 0.82032,-2.11914 0,-1.04492 -0.75196,-1.75781 -0.74219,-0.72266 -1.94336,-0.72266 -1.26953,0 -2.03125,0.76172 -0.76172,0.76172 -0.77148,2.10938 l -1.80664,-0.18555 q 0.18554,-2.02149 1.39648,-3.07617 1.21094,-1.06446 3.25196,-1.06446 2.06054,0 3.26171,1.14258 1.20118,1.14258 1.20118,2.83203 0,0.85938 -0.35157,1.68946 -0.35156,0.83007 -1.17187,1.74804 -0.81055,0.91797 -2.70508,2.51953 -1.58203,1.32813 -2.03125,1.80664 -0.44922,0.46875 -0.74219,0.94727 l 7.02149,0 z"
         id="path3524"
         inkscape:connector-curvature="0" />
      <path
         d="m 447.92737,248.11713 q 0,-2.53907 0.51758,-4.08203 0.52734,-1.55274 1.55273,-2.39258 1.03516,-0.83985 2.59766,-0.83985 1.15234,0 2.02148,0.46875 0.86914,0.45899 1.43555,1.33789 0.5664,0.86914 0.88867,2.12891 0.32227,1.25 0.32227,3.37891 0,2.51953 -0.51758,4.07226 -0.51758,1.54297 -1.55274,2.39258 -1.02539,0.83984 -2.59765,0.83984 -2.07032,0 -3.25196,-1.48437 -1.41601,-1.78711 -1.41601,-5.82031 z m 1.80664,0 q 0,3.52539 0.82031,4.69726 0.83008,1.16211 2.04102,1.16211 1.21093,0 2.03125,-1.17187 0.83008,-1.17188 0.83008,-4.6875 0,-3.53516 -0.83008,-4.69727 -0.82032,-1.16211 -2.05078,-1.16211 -1.21094,0 -1.9336,1.02539 -0.9082,1.3086 -0.9082,4.83399 z"
         id="path3526"
         inkscape:connector-curvature="0" />
      <path
         d="m 465.68127,255.17767 -1.75781,0 0,-11.20117 q -0.63476,0.60547 -1.66992,1.21094 -1.02539,0.60547 -1.8457,0.9082 l 0,-1.69922 q 1.47461,-0.69336 2.57812,-1.67968 1.10352,-0.98633 1.5625,-1.91407 l 1.13281,0 0,14.375 z"
         id="path3528"
         inkscape:connector-curvature="0" />
      <path
         d="m 481.12073,250.15814 1.89453,0.47852 q -0.5957,2.33398 -2.14844,3.56445 -1.54297,1.2207 -3.7793,1.2207 -2.31445,0 -3.76953,-0.9375 -1.44531,-0.94726 -2.20703,-2.73437 -0.75195,-1.78711 -0.75195,-3.83789 0,-2.23633 0.84961,-3.89649 0.85937,-1.66992 2.43164,-2.52929 1.58203,-0.86914 3.47656,-0.86914 2.14844,0 3.61328,1.09375 1.46485,1.09375 2.04102,3.07617 l -1.86524,0.43945 q -0.49804,-1.5625 -1.44531,-2.27539 -0.94726,-0.71289 -2.38281,-0.71289 -1.65039,0 -2.76367,0.79102 -1.10352,0.79101 -1.55274,2.1289 -0.44922,1.32813 -0.44922,2.74414 0,1.82617 0.52735,3.19336 0.53711,1.35742 1.66015,2.03125 1.12305,0.67383 2.43164,0.67383 1.5918,0 2.69532,-0.91797 1.10351,-0.91797 1.49414,-2.72461 z"
         id="path3530"
         inkscape:connector-curvature="0" />
    </g>
    <g
       style="font-style:normal;font-variant:normal;font-weight:normal;font-stretch:normal;font-size:20px;line-height:125%;font-family:Helvetica;-inkscape-font-specification:'Helvetica, Normal';text-align:start;letter-spacing:0px;word-spacing:0px;writing-mode:lr-tb;text-anchor:start;fill:#333333;fill-opacity:1;stroke:none;stroke-width:1px;stroke-linecap:butt;stroke-linejoin:miter;stroke-opacity:1"
       id="text4998">
      <path
         d="m 87.568359,477.31055 0,1.68945 -9.46289,0 q -0.01953,-0.63477 0.205078,-1.2207 0.361328,-0.9668 1.152344,-1.9043 0.800781,-0.9375 2.304687,-2.16797 2.333984,-1.91406 3.154297,-3.02734 0.820312,-1.12305 0.820312,-2.11914 0,-1.04493 -0.751953,-1.75782 -0.742187,-0.72265 -1.943359,-0.72265 -1.269531,0 -2.03125,0.76172 -0.761719,0.76172 -0.771484,2.10937 L 78.4375,468.76562 q 0.185547,-2.02148 1.396484,-3.07617 1.210938,-1.06445 3.251953,-1.06445 2.060547,0 3.261719,1.14258 1.201172,1.14258 1.201172,2.83203 0,0.85937 -0.351562,1.68945 -0.351563,0.83008 -1.171875,1.74805 -0.810547,0.91797 -2.705079,2.51953 -1.582031,1.32813 -2.03125,1.80664 -0.449218,0.46875 -0.742187,0.94727 l 7.021484,0 z"
         id="path3437"
         inkscape:connector-curvature="0" />
      <path
         d="m 89.462891,471.93945 q 0,-2.53906 0.517578,-4.08203 0.527343,-1.55273 1.552734,-2.39258 1.035156,-0.83984 2.597656,-0.83984 1.152344,0 2.021485,0.46875 0.86914,0.45898 1.435547,1.33789 0.566406,0.86914 0.888671,2.12891 0.322266,1.25 0.322266,3.3789 0,2.51953 -0.517578,4.07227 -0.517578,1.54297 -1.552734,2.39258 -1.025391,0.83984 -2.597657,0.83984 -2.070312,0 -3.251953,-1.48437 -1.416015,-1.78711 -1.416015,-5.82032 z m 1.80664,0 q 0,3.52539 0.820313,4.69727 0.830078,1.16211 2.041015,1.16211 1.210938,0 2.03125,-1.17188 0.830078,-1.17187 0.830078,-4.6875 0,-3.53515 -0.830078,-4.69726 -0.820312,-1.16211 -2.050781,-1.16211 -1.210937,0 -1.933594,1.02539 -0.908203,1.30859 -0.908203,4.83398 z"
         id="path3439"
         inkscape:connector-curvature="0" />
      <path
         d="m 109.83398,477.31055 0,1.68945 -9.46289,0 q -0.0195,-0.63477 0.20508,-1.2207 0.36133,-0.9668 1.15235,-1.9043 0.80078,-0.9375 2.30468,-2.16797 2.33399,-1.91406 3.1543,-3.02734 0.82031,-1.12305 0.82031,-2.11914 0,-1.04493 -0.75195,-1.75782 -0.74219,-0.72265 -1.94336,-0.72265 -1.26953,0 -2.03125,0.76172 -0.76172,0.76172 -0.77148,2.10937 l -1.80664,-0.18555 q 0.18554,-2.02148 1.39648,-3.07617 1.21094,-1.06445 3.25195,-1.06445 2.06055,0 3.26172,1.14258 1.20117,1.14258 1.20117,2.83203 0,0.85937 -0.35156,1.68945 -0.35156,0.83008 -1.17187,1.74805 -0.81055,0.91797 -2.70508,2.51953 -1.58203,1.32813 -2.03125,1.80664 -0.44922,0.46875 -0.74219,0.94727 l 7.02148,0 z"
         id="path3441"
         inkscape:connector-curvature="0" />
      <path
         d="m 110.86914,479 5.49805,-14.31641 2.04101,0 5.85938,14.31641 -2.1582,0 -1.66993,-4.33594 -5.98632,0 -1.57227,4.33594 -2.01172,0 z M 115,473.12109 l 4.85352,0 -1.49414,-3.96484 q -0.6836,-1.80664 -1.01563,-2.96875 -0.27344,1.37695 -0.77148,2.73437 L 115,473.12109 Z"
         id="path3443"
         inkscape:connector-curvature="0" />
    </g>
    <g
       style="font-style:normal;font-variant:normal;font-weight:normal;font-stretch:normal;font-size:20px;line-height:125%;font-family:Helvetica;-inkscape-font-specification:'Helvetica, Normal';text-align:start;letter-spacing:0px;word-spacing:0px;writing-mode:lr-tb;text-anchor:start;fill:#333333;fill-opacity:1;stroke:none;stroke-width:1px;stroke-linecap:butt;stroke-linejoin:miter;stroke-opacity:1"
       id="text5002">
      <path
         d="m 146.06836,477.31055 0,1.68945 -9.46289,0 q -0.0195,-0.63477 0.20508,-1.2207 0.36132,-0.9668 1.15234,-1.9043 0.80078,-0.9375 2.30469,-2.16797 2.33398,-1.91406 3.15429,-3.02734 0.82032,-1.12305 0.82032,-2.11914 0,-1.04493 -0.75196,-1.75782 -0.74218,-0.72265 -1.94336,-0.72265 -1.26953,0 -2.03125,0.76172 -0.76171,0.76172 -0.77148,2.10937 l -1.80664,-0.18555 q 0.18555,-2.02148 1.39648,-3.07617 1.21094,-1.06445 3.25196,-1.06445 2.06054,0 3.26172,1.14258 1.20117,1.14258 1.20117,2.83203 0,0.85937 -0.35156,1.68945 -0.35157,0.83008 -1.17188,1.74805 -0.81055,0.91797 -2.70508,2.51953 -1.58203,1.32813 -2.03125,1.80664 -0.44922,0.46875 -0.74219,0.94727 l 7.02149,0 z"
         id="path3446"
         inkscape:connector-curvature="0" />
      <path
         d="m 147.96289,471.93945 q 0,-2.53906 0.51758,-4.08203 0.52734,-1.55273 1.55273,-2.39258 1.03516,-0.83984 2.59766,-0.83984 1.15234,0 2.02148,0.46875 0.86914,0.45898 1.43555,1.33789 0.56641,0.86914 0.88867,2.12891 0.32227,1.25 0.32227,3.3789 0,2.51953 -0.51758,4.07227 -0.51758,1.54297 -1.55273,2.39258 -1.0254,0.83984 -2.59766,0.83984 -2.07031,0 -3.25195,-1.48437 -1.41602,-1.78711 -1.41602,-5.82032 z m 1.80664,0 q 0,3.52539 0.82031,4.69727 0.83008,1.16211 2.04102,1.16211 1.21094,0 2.03125,-1.17188 0.83008,-1.17187 0.83008,-4.6875 0,-3.53515 -0.83008,-4.69726 -0.82031,-1.16211 -2.05078,-1.16211 -1.21094,0 -1.9336,1.02539 -0.9082,1.30859 -0.9082,4.83398 z"
         id="path3448"
         inkscape:connector-curvature="0" />
      <path
         d="m 168.33398,477.31055 0,1.68945 -9.46289,0 q -0.0195,-0.63477 0.20508,-1.2207 0.36133,-0.9668 1.15235,-1.9043 0.80078,-0.9375 2.30468,-2.16797 2.33399,-1.91406 3.1543,-3.02734 0.82031,-1.12305 0.82031,-2.11914 0,-1.04493 -0.75195,-1.75782 -0.74219,-0.72265 -1.94336,-0.72265 -1.26953,0 -2.03125,0.76172 -0.76172,0.76172 -0.77148,2.10937 l -1.80665,-0.18555 q 0.18555,-2.02148 1.39649,-3.07617 1.21094,-1.06445 3.25195,-1.06445 2.06055,0 3.26172,1.14258 1.20117,1.14258 1.20117,2.83203 0,0.85937 -0.35156,1.68945 -0.35156,0.83008 -1.17187,1.74805 -0.81055,0.91797 -2.70508,2.51953 -1.58203,1.32813 -2.03125,1.80664 -0.44922,0.46875 -0.74219,0.94727 l 7.02148,0 z"
         id="path3450"
         inkscape:connector-curvature="0" />
      <path
         d="m 170.86328,479 0,-14.31641 5.37109,0 q 1.64063,0 2.62696,0.43946 0.99609,0.42968 1.55273,1.33789 0.56641,0.89843 0.56641,1.88476 0,0.91797 -0.49805,1.72852 -0.49805,0.81055 -1.5039,1.30859 1.29882,0.38086 1.99218,1.29883 0.70313,0.91797 0.70313,2.16797 0,1.00586 -0.42969,1.875 -0.41992,0.85937 -1.04492,1.32812 -0.625,0.46875 -1.57227,0.71289 Q 177.68945,479 176.32227,479 l -5.45899,0 z m 1.89453,-8.30078 3.09571,0 q 1.25976,0 1.80664,-0.16602 0.72265,-0.21484 1.08398,-0.71289 0.37109,-0.49804 0.37109,-1.25 0,-0.71289 -0.34179,-1.25 -0.3418,-0.54687 -0.97657,-0.74219 -0.63476,-0.20507 -2.17773,-0.20507 l -2.86133,0 0,4.32617 z m 0,6.61133 3.56446,0 q 0.91796,0 1.28906,-0.0684 0.65429,-0.11719 1.09375,-0.39063 0.43945,-0.27344 0.72265,-0.79101 0.28321,-0.52735 0.28321,-1.21094 0,-0.80078 -0.41016,-1.38672 -0.41016,-0.5957 -1.14258,-0.83008 -0.72265,-0.24414 -2.08984,-0.24414 l -3.31055,0 0,4.92188 z"
         id="path3452"
         inkscape:connector-curvature="0" />
    </g>
    <g
       style="font-style:normal;font-variant:normal;font-weight:normal;font-stretch:normal;font-size:20px;line-height:125%;font-family:Helvetica;-inkscape-font-specification:'Helvetica, Normal';text-align:start;letter-spacing:0px;word-spacing:0px;writing-mode:lr-tb;text-anchor:start;fill:#333333;fill-opacity:1;stroke:none;stroke-width:1px;stroke-linecap:butt;stroke-linejoin:miter;stroke-opacity:1"
       id="text5006">
      <path
         d="m 205.56836,476.81055 0,1.68945 -9.46289,0 q -0.0195,-0.63477 0.20508,-1.2207 0.36132,-0.9668 1.15234,-1.9043 0.80078,-0.9375 2.30469,-2.16797 2.33398,-1.91406 3.15429,-3.02734 0.82032,-1.12305 0.82032,-2.11914 0,-1.04493 -0.75196,-1.75782 -0.74218,-0.72265 -1.94336,-0.72265 -1.26953,0 -2.03125,0.76172 -0.76171,0.76172 -0.77148,2.10937 l -1.80664,-0.18555 q 0.18555,-2.02148 1.39648,-3.07617 1.21094,-1.06445 3.25196,-1.06445 2.06054,0 3.26172,1.14258 1.20117,1.14258 1.20117,2.83203 0,0.85937 -0.35156,1.68945 -0.35157,0.83008 -1.17188,1.74805 -0.81055,0.91797 -2.70508,2.51953 -1.58203,1.32813 -2.03125,1.80664 -0.44922,0.46875 -0.74219,0.94727 l 7.02149,0 z"
         id="path3455"
         inkscape:connector-curvature="0" />
      <path
         d="m 207.46289,471.43945 q 0,-2.53906 0.51758,-4.08203 0.52734,-1.55273 1.55273,-2.39258 1.03516,-0.83984 2.59766,-0.83984 1.15234,0 2.02148,0.46875 0.86914,0.45898 1.43555,1.33789 0.56641,0.86914 0.88867,2.12891 0.32227,1.25 0.32227,3.3789 0,2.51953 -0.51758,4.07227 -0.51758,1.54297 -1.55273,2.39258 -1.0254,0.83984 -2.59766,0.83984 -2.07031,0 -3.25195,-1.48437 -1.41602,-1.78711 -1.41602,-5.82032 z m 1.80664,0 q 0,3.52539 0.82031,4.69727 0.83008,1.16211 2.04102,1.16211 1.21094,0 2.03125,-1.17188 0.83008,-1.17187 0.83008,-4.6875 0,-3.53515 -0.83008,-4.69726 -0.82031,-1.16211 -2.05078,-1.16211 -1.21094,0 -1.9336,1.02539 -0.9082,1.30859 -0.9082,4.83398 z"
         id="path3457"
         inkscape:connector-curvature="0" />
      <path
         d="m 227.83398,476.81055 0,1.68945 -9.46289,0 q -0.0195,-0.63477 0.20508,-1.2207 0.36133,-0.9668 1.15235,-1.9043 0.80078,-0.9375 2.30468,-2.16797 2.33399,-1.91406 3.1543,-3.02734 0.82031,-1.12305 0.82031,-2.11914 0,-1.04493 -0.75195,-1.75782 -0.74219,-0.72265 -1.94336,-0.72265 -1.26953,0 -2.03125,0.76172 -0.76172,0.76172 -0.77148,2.10937 l -1.80665,-0.18555 q 0.18555,-2.02148 1.39649,-3.07617 1.21094,-1.06445 3.25195,-1.06445 2.06055,0 3.26172,1.14258 1.20117,1.14258 1.20117,2.83203 0,0.85937 -0.35156,1.68945 -0.35156,0.83008 -1.17187,1.74805 -0.81055,0.91797 -2.70508,2.51953 -1.58203,1.32813 -2.03125,1.80664 -0.44922,0.46875 -0.74219,0.94727 l 7.02148,0 z"
         id="path3459"
         inkscape:connector-curvature="0" />
      <path
         d="m 240.65625,473.48047 1.89453,0.47851 q -0.5957,2.33399 -2.14844,3.56446 -1.54297,1.2207 -3.77929,1.2207 -2.31446,0 -3.76953,-0.9375 -1.44532,-0.94727 -2.20704,-2.73437 -0.75195,-1.78711 -0.75195,-3.8379 0,-2.23632 0.84961,-3.89648 0.85938,-1.66992 2.43164,-2.5293 1.58203,-0.86914 3.47656,-0.86914 2.14844,0 3.61328,1.09375 1.46485,1.09375 2.04102,3.07617 l -1.86523,0.43946 q -0.49805,-1.5625 -1.44532,-2.27539 -0.94726,-0.71289 -2.38281,-0.71289 -1.65039,0 -2.76367,0.79101 -1.10352,0.79102 -1.55274,2.12891 -0.44921,1.32812 -0.44921,2.74414 0,1.82617 0.52734,3.19336 0.53711,1.35742 1.66016,2.03125 1.12304,0.67383 2.43164,0.67383 1.59179,0 2.69531,-0.91797 1.10351,-0.91797 1.49414,-2.72461 z"
         id="path3461"
         inkscape:connector-curvature="0" />
    </g>
    <g
       style="font-style:normal;font-variant:normal;font-weight:normal;font-stretch:normal;font-size:20px;line-height:125%;font-family:Helvetica;-inkscape-font-specification:'Helvetica, Normal';text-align:start;letter-spacing:0px;word-spacing:0px;writing-mode:lr-tb;text-anchor:start;fill:#333333;fill-opacity:1;stroke:none;stroke-width:1px;stroke-linecap:butt;stroke-linejoin:miter;stroke-opacity:1"
       id="text5010">
      <path
         d="m 268.56836,476.81055 0,1.68945 -9.46289,0 q -0.0195,-0.63477 0.20508,-1.2207 0.36132,-0.9668 1.15234,-1.9043 0.80078,-0.9375 2.30469,-2.16797 2.33398,-1.91406 3.15429,-3.02734 0.82032,-1.12305 0.82032,-2.11914 0,-1.04493 -0.75196,-1.75782 -0.74218,-0.72265 -1.94336,-0.72265 -1.26953,0 -2.03125,0.76172 -0.76171,0.76172 -0.77148,2.10937 l -1.80664,-0.18555 q 0.18555,-2.02148 1.39648,-3.07617 1.21094,-1.06445 3.25196,-1.06445 2.06054,0 3.26172,1.14258 1.20117,1.14258 1.20117,2.83203 0,0.85937 -0.35156,1.68945 -0.35157,0.83008 -1.17188,1.74805 -0.81055,0.91797 -2.70508,2.51953 -1.58203,1.32813 -2.03125,1.80664 -0.44922,0.46875 -0.74219,0.94727 l 7.02149,0 z"
         id="path3464"
         inkscape:connector-curvature="0" />
      <path
         d="m 270.46289,471.43945 q 0,-2.53906 0.51758,-4.08203 0.52734,-1.55273 1.55273,-2.39258 1.03516,-0.83984 2.59766,-0.83984 1.15234,0 2.02148,0.46875 0.86914,0.45898 1.43555,1.33789 0.56641,0.86914 0.88867,2.12891 0.32227,1.25 0.32227,3.3789 0,2.51953 -0.51758,4.07227 -0.51758,1.54297 -1.55273,2.39258 -1.0254,0.83984 -2.59766,0.83984 -2.07031,0 -3.25195,-1.48437 -1.41602,-1.78711 -1.41602,-5.82032 z m 1.80664,0 q 0,3.52539 0.82031,4.69727 0.83008,1.16211 2.04102,1.16211 1.21094,0 2.03125,-1.17188 0.83008,-1.17187 0.83008,-4.6875 0,-3.53515 -0.83008,-4.69726 -0.82031,-1.16211 -2.05078,-1.16211 -1.21094,0 -1.9336,1.02539 -0.9082,1.30859 -0.9082,4.83398 z"
         id="path3466"
         inkscape:connector-curvature="0" />
      <path
         d="m 290.83398,476.81055 0,1.68945 -9.46289,0 q -0.0195,-0.63477 0.20508,-1.2207 0.36133,-0.9668 1.15235,-1.9043 0.80078,-0.9375 2.30468,-2.16797 2.33399,-1.91406 3.1543,-3.02734 0.82031,-1.12305 0.82031,-2.11914 0,-1.04493 -0.75195,-1.75782 -0.74219,-0.72265 -1.94336,-0.72265 -1.26953,0 -2.03125,0.76172 -0.76172,0.76172 -0.77148,2.10937 l -1.80665,-0.18555 q 0.18555,-2.02148 1.39649,-3.07617 1.21094,-1.06445 3.25195,-1.06445 2.06055,0 3.26172,1.14258 1.20117,1.14258 1.20117,2.83203 0,0.85937 -0.35156,1.68945 -0.35156,0.83008 -1.17187,1.74805 -0.81055,0.91797 -2.70508,2.51953 -1.58203,1.32813 -2.03125,1.80664 -0.44922,0.46875 -0.74219,0.94727 l 7.02148,0 z"
         id="path3468"
         inkscape:connector-curvature="0" />
      <path
         d="m 293.44141,478.5 0,-14.31641 4.93164,0 q 1.66992,0 2.54882,0.20508 1.23047,0.2832 2.09961,1.02539 1.13282,0.95703 1.68946,2.45117 0.5664,1.48438 0.5664,3.39844 0,1.63086 -0.38086,2.89063 -0.38086,1.25976 -0.97656,2.08984 -0.5957,0.82031 -1.30859,1.29883 -0.70313,0.46875 -1.70899,0.71289 -0.99609,0.24414 -2.29492,0.24414 l -5.16601,0 z m 1.89453,-1.68945 3.05664,0 q 1.41601,0 2.21679,-0.26368 0.81055,-0.26367 1.28907,-0.74218 0.67383,-0.67383 1.04492,-1.80664 0.38086,-1.14258 0.38086,-2.76368 0,-2.24609 -0.74219,-3.44726 -0.73242,-1.21094 -1.78711,-1.62109 -0.76172,-0.29297 -2.45117,-0.29297 l -3.00781,0 0,10.9375 z"
         id="path3470"
         inkscape:connector-curvature="0" />
    </g>
    <g
       style="font-style:normal;font-variant:normal;font-weight:normal;font-stretch:normal;font-size:20px;line-height:125%;font-family:Helvetica;-inkscape-font-specification:'Helvetica, Normal';text-align:start;letter-spacing:0px;word-spacing:0px;writing-mode:lr-tb;text-anchor:start;fill:#333333;fill-opacity:1;stroke:none;stroke-width:1px;stroke-linecap:butt;stroke-linejoin:miter;stroke-opacity:1"
       id="text5014">
      <path
         d="m 329.56836,475.81055 0,1.68945 -9.46289,0 q -0.0195,-0.63477 0.20508,-1.2207 0.36132,-0.9668 1.15234,-1.9043 0.80078,-0.9375 2.30469,-2.16797 2.33398,-1.91406 3.15429,-3.02734 0.82032,-1.12305 0.82032,-2.11914 0,-1.04493 -0.75196,-1.75782 -0.74218,-0.72265 -1.94336,-0.72265 -1.26953,0 -2.03125,0.76172 -0.76171,0.76172 -0.77148,2.10937 l -1.80664,-0.18555 q 0.18555,-2.02148 1.39648,-3.07617 1.21094,-1.06445 3.25196,-1.06445 2.06054,0 3.26172,1.14258 1.20117,1.14258 1.20117,2.83203 0,0.85937 -0.35156,1.68945 -0.35157,0.83008 -1.17188,1.74805 -0.81055,0.91797 -2.70508,2.51953 -1.58203,1.32813 -2.03125,1.80664 -0.44922,0.46875 -0.74219,0.94727 l 7.02149,0 z"
         id="path3473"
         inkscape:connector-curvature="0" />
      <path
         d="m 331.46289,470.43945 q 0,-2.53906 0.51758,-4.08203 0.52734,-1.55273 1.55273,-2.39258 1.03516,-0.83984 2.59766,-0.83984 1.15234,0 2.02148,0.46875 0.86914,0.45898 1.43555,1.33789 0.56641,0.86914 0.88867,2.12891 0.32227,1.25 0.32227,3.3789 0,2.51953 -0.51758,4.07227 -0.51758,1.54297 -1.55273,2.39258 -1.0254,0.83984 -2.59766,0.83984 -2.07031,0 -3.25195,-1.48437 -1.41602,-1.78711 -1.41602,-5.82032 z m 1.80664,0 q 0,3.52539 0.82031,4.69727 0.83008,1.16211 2.04102,1.16211 1.21094,0 2.03125,-1.17188 0.83008,-1.17187 0.83008,-4.6875 0,-3.53515 -0.83008,-4.69726 -0.82031,-1.16211 -2.05078,-1.16211 -1.21094,0 -1.9336,1.02539 -0.9082,1.30859 -0.9082,4.83398 z"
         id="path3475"
         inkscape:connector-curvature="0" />
      <path
         d="m 351.83398,475.81055 0,1.68945 -9.46289,0 q -0.0195,-0.63477 0.20508,-1.2207 0.36133,-0.9668 1.15235,-1.9043 0.80078,-0.9375 2.30468,-2.16797 2.33399,-1.91406 3.1543,-3.02734 0.82031,-1.12305 0.82031,-2.11914 0,-1.04493 -0.75195,-1.75782 -0.74219,-0.72265 -1.94336,-0.72265 -1.26953,0 -2.03125,0.76172 -0.76172,0.76172 -0.77148,2.10937 l -1.80665,-0.18555 q 0.18555,-2.02148 1.39649,-3.07617 1.21094,-1.06445 3.25195,-1.06445 2.06055,0 3.26172,1.14258 1.20117,1.14258 1.20117,2.83203 0,0.85937 -0.35156,1.68945 -0.35156,0.83008 -1.17187,1.74805 -0.81055,0.91797 -2.70508,2.51953 -1.58203,1.32813 -2.03125,1.80664 -0.44922,0.46875 -0.74219,0.94727 l 7.02148,0 z"
         id="path3477"
         inkscape:connector-curvature="0" />
      <path
         d="m 354.48047,477.5 0,-14.31641 10.35156,0 0,1.68946 -8.45703,0 0,4.38476 7.91992,0 0,1.67969 -7.91992,0 0,4.87305 8.78906,0 0,1.68945 -10.68359,0 z"
         id="path3479"
         inkscape:connector-curvature="0" />
    </g>
    <g
       style="font-style:normal;font-variant:normal;font-weight:normal;font-stretch:normal;font-size:20px;line-height:125%;font-family:Helvetica;-inkscape-font-specification:'Helvetica, Normal';text-align:start;letter-spacing:0px;word-spacing:0px;writing-mode:lr-tb;text-anchor:start;fill:#333333;fill-opacity:1;stroke:none;stroke-width:1px;stroke-linecap:butt;stroke-linejoin:miter;stroke-opacity:1"
       id="text5018">
      <path
         d="m 489.56836,465.81055 0,1.68945 -9.46289,0 q -0.0195,-0.63477 0.20508,-1.2207 0.36132,-0.9668 1.15234,-1.9043 0.80078,-0.9375 2.30469,-2.16797 2.33398,-1.91406 3.15429,-3.02734 0.82032,-1.12305 0.82032,-2.11914 0,-1.04493 -0.75196,-1.75782 -0.74218,-0.72265 -1.94336,-0.72265 -1.26953,0 -2.03125,0.76172 -0.76171,0.76172 -0.77148,2.10937 l -1.80664,-0.18555 q 0.18555,-2.02148 1.39648,-3.07617 1.21094,-1.06445 3.25196,-1.06445 2.06054,0 3.26172,1.14258 1.20117,1.14258 1.20117,2.83203 0,0.85937 -0.35156,1.68945 -0.35157,0.83008 -1.17188,1.74805 -0.81055,0.91797 -2.70508,2.51953 -1.58203,1.32813 -2.03125,1.80664 -0.44922,0.46875 -0.74219,0.94727 l 7.02149,0 z"
         id="path3482"
         inkscape:connector-curvature="0" />
      <path
         d="m 491.46289,460.43945 q 0,-2.53906 0.51758,-4.08203 0.52734,-1.55273 1.55273,-2.39258 1.03516,-0.83984 2.59766,-0.83984 1.15234,0 2.02148,0.46875 0.86914,0.45898 1.43555,1.33789 0.56641,0.86914 0.88867,2.12891 0.32227,1.25 0.32227,3.3789 0,2.51953 -0.51758,4.07227 -0.51758,1.54297 -1.55273,2.39258 -1.0254,0.83984 -2.59766,0.83984 -2.07031,0 -3.25195,-1.48437 -1.41602,-1.78711 -1.41602,-5.82032 z m 1.80664,0 q 0,3.52539 0.82031,4.69727 0.83008,1.16211 2.04102,1.16211 1.21094,0 2.03125,-1.17188 0.83008,-1.17187 0.83008,-4.6875 0,-3.53515 -0.83008,-4.69726 -0.82031,-1.16211 -2.05078,-1.16211 -1.21094,0 -1.9336,1.02539 -0.9082,1.30859 -0.9082,4.83398 z"
         id="path3484"
         inkscape:connector-curvature="0" />
      <path
         d="m 502.60547,463.7207 1.75781,-0.23437 q 0.30274,1.49414 1.02539,2.1582 0.73242,0.6543 1.77735,0.6543 1.24023,0 2.08984,-0.85938 0.85937,-0.85937 0.85937,-2.1289 0,-1.21094 -0.79101,-1.99219 -0.79102,-0.79102 -2.01172,-0.79102 -0.49805,0 -1.24023,0.19532 l 0.19531,-1.54297 q 0.17578,0.0195 0.2832,0.0195 1.12305,0 2.02149,-0.58594 0.89843,-0.58594 0.89843,-1.80664 0,-0.9668 -0.65429,-1.60156 -0.6543,-0.63477 -1.68946,-0.63477 -1.02539,0 -1.70898,0.64453 -0.6836,0.64453 -0.87891,1.9336 l -1.75781,-0.3125 q 0.32227,-1.76758 1.46484,-2.73438 1.14258,-0.97656 2.8418,-0.97656 1.17188,0 2.1582,0.50781 0.98633,0.49805 1.50391,1.36719 0.52734,0.86914 0.52734,1.8457 0,0.92774 -0.49804,1.68946 -0.49805,0.76171 -1.47461,1.21093 1.26953,0.29297 1.97265,1.22071 0.70313,0.91797 0.70313,2.30468 0,1.875 -1.36719,3.1836 -1.36719,1.29883 -3.45703,1.29883 -1.88477,0 -3.13477,-1.12305 -1.24023,-1.12305 -1.41601,-2.91016 z"
         id="path3486"
         inkscape:connector-curvature="0" />
    </g>
    <g
       style="font-style:normal;font-variant:normal;font-weight:normal;font-stretch:normal;font-size:20px;line-height:125%;font-family:Helvetica;-inkscape-font-specification:'Helvetica, Normal';text-align:start;letter-spacing:0px;word-spacing:0px;writing-mode:lr-tb;text-anchor:start;fill:#333333;fill-opacity:1;stroke:none;stroke-width:1px;stroke-linecap:butt;stroke-linejoin:miter;stroke-opacity:1"
       id="text5022">
      <path
         d="m 702.12469,458.81055 0,1.68945 -9.46289,0 q -0.0195,-0.63477 0.20508,-1.2207 0.36133,-0.9668 1.15235,-1.9043 0.80078,-0.9375 2.30468,-2.16797 2.33399,-1.91406 3.1543,-3.02734 0.82031,-1.12305 0.82031,-2.11914 0,-1.04493 -0.75195,-1.75782 -0.74219,-0.72265 -1.94336,-0.72265 -1.26953,0 -2.03125,0.76172 -0.76172,0.76172 -0.77148,2.10937 l -1.80664,-0.18555 q 0.18554,-2.02148 1.39648,-3.07617 1.21094,-1.06445 3.25195,-1.06445 2.06055,0 3.26172,1.14258 1.20117,1.14258 1.20117,2.83203 0,0.85937 -0.35156,1.68945 -0.35156,0.83008 -1.17187,1.74805 -0.81055,0.91797 -2.70508,2.51953 -1.58203,1.32813 -2.03125,1.80664 -0.44922,0.46875 -0.74219,0.94727 l 7.02148,0 z"
         id="path3489"
         inkscape:connector-curvature="0" />
      <path
         d="m 704.01923,453.43945 q 0,-2.53906 0.51757,-4.08203 0.52735,-1.55273 1.55274,-2.39258 1.03515,-0.83984 2.59765,-0.83984 1.15235,0 2.02149,0.46875 0.86914,0.45898 1.43555,1.33789 0.5664,0.86914 0.88867,2.12891 0.32226,1.25 0.32226,3.3789 0,2.51953 -0.51757,4.07227 -0.51758,1.54297 -1.55274,2.39258 -1.02539,0.83984 -2.59766,0.83984 -2.07031,0 -3.25195,-1.48437 -1.41601,-1.78711 -1.41601,-5.82032 z m 1.80664,0 q 0,3.52539 0.82031,4.69727 0.83008,1.16211 2.04101,1.16211 1.21094,0 2.03125,-1.17188 0.83008,-1.17187 0.83008,-4.6875 0,-3.53515 -0.83008,-4.69726 -0.82031,-1.16211 -2.05078,-1.16211 -1.21093,0 -1.93359,1.02539 -0.9082,1.30859 -0.9082,4.83398 z"
         id="path3491"
         inkscape:connector-curvature="0" />
      <path
         d="m 720.7868,460.5 0,-3.42773 -6.21093,0 0,-1.61133 6.5332,-9.27735 1.43555,0 0,9.27735 1.93359,0 0,1.61133 -1.93359,0 0,3.42773 -1.75782,0 z m 0,-5.03906 0,-6.45508 -4.48242,6.45508 4.48242,0 z"
         id="path3493"
         inkscape:connector-curvature="0" />
    </g>
    <g
       style="font-style:normal;font-variant:normal;font-weight:normal;font-stretch:normal;font-size:20px;line-height:125%;font-family:Helvetica;-inkscape-font-specification:'Helvetica, Normal';text-align:start;letter-spacing:0px;word-spacing:0px;writing-mode:lr-tb;text-anchor:start;fill:#333333;fill-opacity:1;stroke:none;stroke-width:1px;stroke-linecap:butt;stroke-linejoin:miter;stroke-opacity:1"
       id="text5026">
      <path
         d="m 865.07446,459.51764 0,1.68945 -9.46289,0 q -0.0195,-0.63476 0.20508,-1.2207 0.36133,-0.9668 1.15234,-1.9043 0.80079,-0.9375 2.30469,-2.16797 2.33399,-1.91406 3.1543,-3.02734 0.82031,-1.12305 0.82031,-2.11914 0,-1.04492 -0.75195,-1.75781 -0.74219,-0.72266 -1.94336,-0.72266 -1.26953,0 -2.03125,0.76172 -0.76172,0.76172 -0.77149,2.10937 l -1.80664,-0.18554 q 0.18555,-2.02149 1.39649,-3.07617 1.21094,-1.06446 3.25195,-1.06446 2.06055,0 3.26172,1.14258 1.20117,1.14258 1.20117,2.83203 0,0.85938 -0.35156,1.68945 -0.35156,0.83008 -1.17188,1.74805 -0.81054,0.91797 -2.70507,2.51953 -1.58204,1.32813 -2.03125,1.80664 -0.44922,0.46875 -0.74219,0.94727 l 7.02148,0 z"
         id="path3496"
         inkscape:connector-curvature="0" />
      <path
         d="m 866.96899,454.14655 q 0,-2.53907 0.51758,-4.08204 0.52735,-1.55273 1.55274,-2.39257 1.03515,-0.83985 2.59765,-0.83985 1.15235,0 2.02149,0.46875 0.86914,0.45899 1.43554,1.33789 0.56641,0.86914 0.88868,2.12891 0.32226,1.25 0.32226,3.37891 0,2.51953 -0.51758,4.07226 -0.51757,1.54297 -1.55273,2.39258 -1.02539,0.83984 -2.59766,0.83984 -2.07031,0 -3.25195,-1.48437 -1.41602,-1.78711 -1.41602,-5.82031 z m 1.80664,0 q 0,3.52539 0.82032,4.69726 0.83008,1.16211 2.04101,1.16211 1.21094,0 2.03125,-1.17187 0.83008,-1.17188 0.83008,-4.6875 0,-3.53516 -0.83008,-4.69727 -0.82031,-1.16211 -2.05078,-1.16211 -1.21094,0 -1.93359,1.02539 -0.90821,1.30859 -0.90821,4.83399 z"
         id="path3498"
         inkscape:connector-curvature="0" />
      <path
         d="m 878.10181,457.45709 1.8457,-0.15625 q 0.20508,1.34766 0.94727,2.03125 0.75195,0.67383 1.80664,0.67383 1.26953,0 2.14843,-0.95703 0.87891,-0.95703 0.87891,-2.53906 0,-1.50391 -0.84961,-2.37305 -0.83984,-0.86914 -2.20703,-0.86914 -0.84961,0 -1.5332,0.39062 -0.6836,0.38086 -1.07422,0.9961 l -1.65039,-0.21485 1.38672,-7.35351 7.11914,0 0,1.67969 -5.71289,0 -0.77149,3.84765 q 1.28906,-0.89844 2.70508,-0.89844 1.875,0 3.16406,1.29883 1.28906,1.29883 1.28906,3.33985 0,1.94336 -1.13281,3.35937 -1.37695,1.73828 -3.75976,1.73828 -1.95313,0 -3.19336,-1.09375 -1.23047,-1.09375 -1.40625,-2.90039 z"
         id="path3500"
         inkscape:connector-curvature="0" />
    </g>
    <g
       style="font-style:normal;font-variant:normal;font-weight:normal;font-stretch:normal;font-size:20px;line-height:125%;font-family:Helvetica;-inkscape-font-specification:'Helvetica, Normal';text-align:start;letter-spacing:0px;word-spacing:0px;writing-mode:lr-tb;text-anchor:start;fill:#333333;fill-opacity:1;stroke:none;stroke-width:1px;stroke-linecap:butt;stroke-linejoin:miter;stroke-opacity:1"
       id="text5030">
      <path
         d="m 672.06836,228.81055 0,1.68945 -9.46289,0 q -0.0195,-0.63477 0.20508,-1.2207 0.36132,-0.9668 1.15234,-1.9043 0.80078,-0.9375 2.30469,-2.16797 2.33398,-1.91406 3.15429,-3.02734 0.82032,-1.12305 0.82032,-2.11914 0,-1.04493 -0.75196,-1.75782 -0.74218,-0.72265 -1.94336,-0.72265 -1.26953,0 -2.03125,0.76172 -0.76171,0.76172 -0.77148,2.10937 l -1.80664,-0.18555 q 0.18555,-2.02148 1.39648,-3.07617 1.21094,-1.06445 3.25196,-1.06445 2.06054,0 3.26172,1.14258 1.20117,1.14258 1.20117,2.83203 0,0.85937 -0.35156,1.68945 -0.35157,0.83008 -1.17188,1.74805 -0.81055,0.91797 -2.70508,2.51953 -1.58203,1.32813 -2.03125,1.80664 -0.44922,0.46875 -0.74219,0.94727 l 7.02149,0 z"
         id="path3517"
         inkscape:connector-curvature="0" />
      <path
         d="m 673.96289,223.43945 q 0,-2.53906 0.51758,-4.08203 0.52734,-1.55273 1.55273,-2.39258 1.03516,-0.83984 2.59766,-0.83984 1.15234,0 2.02148,0.46875 0.86914,0.45898 1.43555,1.33789 0.56641,0.86914 0.88867,2.12891 0.32227,1.25 0.32227,3.3789 0,2.51953 -0.51758,4.07227 -0.51758,1.54297 -1.55273,2.39258 -1.0254,0.83984 -2.59766,0.83984 -2.07031,0 -3.25195,-1.48437 -1.41602,-1.78711 -1.41602,-5.82032 z m 1.80664,0 q 0,3.52539 0.82031,4.69727 0.83008,1.16211 2.04102,1.16211 1.21094,0 2.03125,-1.17188 0.83008,-1.17187 0.83008,-4.6875 0,-3.53515 -0.83008,-4.69726 -0.82031,-1.16211 -2.05078,-1.16211 -1.21094,0 -1.9336,1.02539 -0.9082,1.30859 -0.9082,4.83398 z"
         id="path3519"
         inkscape:connector-curvature="0" />
      <path
         d="m 685.35937,227.18945 1.68946,-0.15625 q 0.21484,1.19141 0.82031,1.72852 0.60547,0.53711 1.55273,0.53711 0.81055,0 1.41602,-0.3711 0.61523,-0.37109 1.00586,-0.98632 0.39062,-0.625 0.6543,-1.67969 0.26367,-1.05469 0.26367,-2.14844 0,-0.11719 -0.01,-0.35156 -0.52734,0.83984 -1.44531,1.36719 -0.9082,0.51757 -1.97266,0.51757 -1.77734,0 -3.00781,-1.28906 -1.23047,-1.28906 -1.23047,-3.39844 0,-2.17773 1.2793,-3.50586 1.28906,-1.32812 3.22266,-1.32812 1.39648,0 2.54882,0.75195 1.16211,0.75196 1.75782,2.14844 0.60547,1.38672 0.60547,4.02344 0,2.74414 -0.59571,4.375 -0.5957,1.62109 -1.77734,2.4707 -1.17188,0.84961 -2.75391,0.84961 -1.67969,0 -2.74414,-0.92773 -1.06445,-0.9375 -1.2793,-2.62696 z m 7.19727,-6.31836 q 0,-1.51367 -0.81055,-2.40234 -0.80078,-0.88867 -1.93359,-0.88867 -1.17188,0 -2.04102,0.95703 -0.86914,0.95703 -0.86914,2.48047 0,1.36719 0.82032,2.22656 0.83007,0.84961 2.04101,0.84961 1.2207,0 2.00195,-0.84961 0.79102,-0.85937 0.79102,-2.37305 z"
         id="path3521"
         inkscape:connector-curvature="0" />
    </g>
    <g
       style="font-style:normal;font-variant:normal;font-weight:normal;font-stretch:normal;font-size:20px;line-height:125%;font-family:Helvetica;-inkscape-font-specification:'Helvetica, Normal';text-align:start;letter-spacing:0px;word-spacing:0px;writing-mode:lr-tb;text-anchor:start;fill:#333333;fill-opacity:1;stroke:none;stroke-width:1px;stroke-linecap:butt;stroke-linejoin:miter;stroke-opacity:1"
       id="text5034">
      <path
         d="m 789.51813,253.63898 0,1.68945 -9.46289,0 q -0.0195,-0.63477 0.20507,-1.2207 0.36133,-0.9668 1.15235,-1.9043 0.80078,-0.9375 2.30469,-2.16797 2.33398,-1.91406 3.15429,-3.02734 0.82032,-1.12305 0.82032,-2.11914 0,-1.04492 -0.75196,-1.75782 -0.74219,-0.72265 -1.94336,-0.72265 -1.26953,0 -2.03125,0.76172 -0.76172,0.76172 -0.77148,2.10937 l -1.80664,-0.18554 q 0.18554,-2.02149 1.39648,-3.07618 1.21094,-1.06445 3.25196,-1.06445 2.06054,0 3.26171,1.14258 1.20118,1.14258 1.20118,2.83203 0,0.85937 -0.35157,1.68945 -0.35156,0.83008 -1.17187,1.74805 -0.81055,0.91797 -2.70508,2.51953 -1.58203,1.32813 -2.03125,1.80664 -0.44922,0.46875 -0.74219,0.94727 l 7.02149,0 z"
         id="path3510"
         inkscape:connector-curvature="0" />
      <path
         d="m 791.41266,248.26788 q 0,-2.53906 0.51758,-4.08203 0.52734,-1.55273 1.55273,-2.39258 1.03516,-0.83984 2.59766,-0.83984 1.15234,0 2.02148,0.46875 0.86914,0.45898 1.43555,1.33789 0.5664,0.86914 0.88867,2.12891 0.32227,1.25 0.32227,3.3789 0,2.51953 -0.51758,4.07227 -0.51758,1.54297 -1.55274,2.39258 -1.02539,0.83984 -2.59765,0.83984 -2.07032,0 -3.25196,-1.48437 -1.41601,-1.78711 -1.41601,-5.82032 z m 1.80664,0 q 0,3.52539 0.82031,4.69727 0.83008,1.16211 2.04102,1.16211 1.21093,0 2.03125,-1.17188 0.83008,-1.17187 0.83008,-4.6875 0,-3.53515 -0.83008,-4.69726 -0.82032,-1.16211 -2.05078,-1.16211 -1.21094,0 -1.9336,1.02539 -0.9082,1.30859 -0.9082,4.83398 z"
         id="path3512"
         inkscape:connector-curvature="0" />
      <path
         d="m 802.66266,242.88702 0,-1.68945 9.26758,0 0,1.36719 q -1.36719,1.45508 -2.71485,3.86719 -1.33789,2.41211 -2.07031,4.96093 -0.52734,1.79688 -0.67383,3.93555 l -1.80664,0 q 0.0293,-1.68945 0.66406,-4.08203 0.63477,-2.39258 1.81641,-4.60938 1.19141,-2.22656 2.5293,-3.75 l -7.01172,0 z"
         id="path3514"
         inkscape:connector-curvature="0" />
    </g>
    <g
       style="font-style:normal;font-variant:normal;font-weight:normal;font-stretch:normal;font-size:20px;line-height:125%;font-family:Helvetica;-inkscape-font-specification:'Helvetica, Normal';text-align:start;letter-spacing:0px;word-spacing:0px;writing-mode:lr-tb;text-anchor:start;fill:#333333;fill-opacity:1;stroke:none;stroke-width:1px;stroke-linecap:butt;stroke-linejoin:miter;stroke-opacity:1"
       id="text5038">
      <path
         d="m 880.73993,252.79582 0,1.68946 -9.46289,0 q -0.0195,-0.63477 0.20508,-1.22071 0.36132,-0.96679 1.15234,-1.90429 0.80078,-0.9375 2.30469,-2.16797 2.33398,-1.91407 3.15429,-3.02735 0.82032,-1.12304 0.82032,-2.11914 0,-1.04492 -0.75196,-1.75781 -0.74218,-0.72266 -1.94336,-0.72266 -1.26953,0 -2.03125,0.76172 -0.76171,0.76172 -0.77148,2.10938 l -1.80664,-0.18555 q 0.18555,-2.02148 1.39648,-3.07617 1.21094,-1.06445 3.25196,-1.06445 2.06054,0 3.26172,1.14257 1.20117,1.14258 1.20117,2.83203 0,0.85938 -0.35156,1.68946 -0.35157,0.83008 -1.17188,1.74804 -0.81055,0.91797 -2.70508,2.51954 -1.58203,1.32812 -2.03125,1.80664 -0.44922,0.46875 -0.74219,0.94726 l 7.02149,0 z"
         id="path3503"
         inkscape:connector-curvature="0" />
      <path
         d="m 882.63446,247.42473 q 0,-2.53906 0.51758,-4.08203 0.52734,-1.55274 1.55273,-2.39258 1.03516,-0.83984 2.59766,-0.83984 1.15234,0 2.02148,0.46875 0.86914,0.45898 1.43555,1.33789 0.56641,0.86914 0.88867,2.1289 0.32227,1.25 0.32227,3.37891 0,2.51953 -0.51758,4.07226 -0.51758,1.54297 -1.55273,2.39258 -1.0254,0.83985 -2.59766,0.83985 -2.07031,0 -3.25195,-1.48438 -1.41602,-1.78711 -1.41602,-5.82031 z m 1.80664,0 q 0,3.52539 0.82031,4.69726 0.83008,1.16211 2.04102,1.16211 1.21094,0 2.03125,-1.17187 0.83008,-1.17188 0.83008,-4.6875 0,-3.53516 -0.83008,-4.69727 -0.82031,-1.16211 -2.05078,-1.16211 -1.21094,0 -1.9336,1.02539 -0.9082,1.3086 -0.9082,4.83399 z"
         id="path3505"
         inkscape:connector-curvature="0" />
      <path
         d="m 902.88837,243.67473 -1.74805,0.13672 q -0.23438,-1.03516 -0.66406,-1.50391 -0.71289,-0.75195 -1.75782,-0.75195 -0.83984,0 -1.4746,0.46875 -0.83008,0.60547 -1.3086,1.76758 -0.47851,1.16211 -0.49805,3.31054 0.63477,-0.96679 1.55274,-1.43554 0.91797,-0.46875 1.92383,-0.46875 1.75781,0 2.98828,1.29882 1.24023,1.28907 1.24023,3.33985 0,1.34765 -0.58593,2.50976 -0.57618,1.15235 -1.5918,1.76758 -1.01563,0.61524 -2.30469,0.61524 -2.19726,0 -3.58398,-1.61133 -1.38672,-1.6211 -1.38672,-5.33203 0,-4.15039 1.5332,-6.03516 1.33789,-1.64062 3.60352,-1.64062 1.68945,0 2.76367,0.94726 1.08398,0.94727 1.29883,2.61719 z m -7.17774,6.17187 q 0,0.90821 0.38086,1.73828 0.39063,0.83008 1.08399,1.26954 0.69336,0.42968 1.45507,0.42968 1.11329,0 1.91407,-0.89843 0.80078,-0.89844 0.80078,-2.44141 0,-1.48438 -0.79102,-2.33398 -0.79101,-0.85938 -1.99219,-0.85938 -1.1914,0 -2.02148,0.85938 -0.83008,0.8496 -0.83008,2.23632 z"
         id="path3507"
         inkscape:connector-curvature="0" />
    </g>
  </g>
</svg>
