<?xml version="1.0" encoding="UTF-8" standalone="no"?>
<!-- Created with Inkscape (http://www.inkscape.org/) -->

<svg
   xmlns:dc="http://purl.org/dc/elements/1.1/"
   xmlns:cc="http://creativecommons.org/ns#"
   xmlns:rdf="http://www.w3.org/1999/02/22-rdf-syntax-ns#"
   xmlns:svg="http://www.w3.org/2000/svg"
   xmlns="http://www.w3.org/2000/svg"
   xmlns:sodipodi="http://sodipodi.sourceforge.net/DTD/sodipodi-0.dtd"
   xmlns:inkscape="http://www.inkscape.org/namespaces/inkscape"
   id="svg4432"
   version="1.1"
   inkscape:version="0.91 r13725"
   width="856.96204"
   height="380.52039"
   viewBox="0 0 856.96204 380.52039"
   sodipodi:docname="Stratton Hall 1.svg"
   inkscape:export-filename="E:\DragonShadesX Data\My Documents\WPI floorplans\Stratton Hall 1 Redo.png"
   inkscape:export-xdpi="90"
   inkscape:export-ydpi="90">
  <metadata
     id="metadata4438">
    <rdf:RDF>
      <cc:Work
         rdf:about="">
        <dc:format>image/svg+xml</dc:format>
        <dc:type
           rdf:resource="http://purl.org/dc/dcmitype/StillImage" />
        <dc:title></dc:title>
      </cc:Work>
    </rdf:RDF>
  </metadata>
  <defs
     id="defs4436" />
  <sodipodi:namedview
     pagecolor="#ffffff"
     bordercolor="#666666"
     borderopacity="1"
     objecttolerance="10"
     gridtolerance="10"
     guidetolerance="10"
     inkscape:pageopacity="0"
     inkscape:pageshadow="2"
     inkscape:window-width="1920"
     inkscape:window-height="1018"
     id="namedview4434"
     showgrid="false"
     inkscape:zoom="0.60352684"
     inkscape:cx="717.07754"
     inkscape:cy="54.417808"
     inkscape:window-x="-8"
     inkscape:window-y="-8"
     inkscape:window-maximized="1"
     inkscape:current-layer="layer1"
     fit-margin-top="0"
     fit-margin-left="0"
     fit-margin-right="0"
     fit-margin-bottom="0" />
  <g
     inkscape:groupmode="layer"
     id="layer1"
     inkscape:label="Floor"
     transform="translate(-58.227848,-177.13786)" />
  <g
     inkscape:groupmode="layer"
     id="layer6"
     inkscape:label="Rooms"
     style="display:inline"
     transform="translate(-58.227848,-177.13786)">
    <rect
       style="opacity:1;fill:#eeeeee;fill-opacity:1;fill-rule:nonzero;stroke:none;stroke-width:2;stroke-miterlimit:4;stroke-dasharray:none;stroke-opacity:1"
       id="rect5241"
       width="414.59729"
       height="127.81627"
       x="62.297001"
       y="182.84525" />
    <rect
       style="opacity:1;fill:#eeeeee;fill-opacity:1;fill-rule:nonzero;stroke:none;stroke-width:2;stroke-miterlimit:4;stroke-dasharray:none;stroke-opacity:1"
       id="rect5243"
       width="239.87926"
       height="130.68053"
       x="65.161232"
       y="423.08255" />
    <rect
       style="opacity:1;fill:#eeeeee;fill-opacity:1;fill-rule:nonzero;stroke:none;stroke-width:2;stroke-miterlimit:4;stroke-dasharray:none;stroke-opacity:1"
       id="rect5245"
       width="73.753922"
       height="51.556141"
       x="487.63516"
       y="376.89682" />
    <rect
       style="opacity:1;fill:#eeeeee;fill-opacity:1;fill-rule:nonzero;stroke:none;stroke-width:2;stroke-miterlimit:4;stroke-dasharray:none;stroke-opacity:1"
       id="rect5247"
       width="128.17429"
       height="123.87794"
       x="487.99319"
       y="427.37888" />
    <rect
       style="opacity:1;fill:#eeeeee;fill-opacity:1;fill-rule:nonzero;stroke:none;stroke-width:2;stroke-miterlimit:4;stroke-dasharray:none;stroke-opacity:1"
       id="rect5249"
       width="47.975853"
       height="50.840084"
       x="612.94519"
       y="503.28098" />
    <rect
       style="opacity:1;fill:#eeeeee;fill-opacity:1;fill-rule:nonzero;stroke:none;stroke-width:2;stroke-miterlimit:4;stroke-dasharray:none;stroke-opacity:1"
       id="rect5251"
       width="74.828011"
       height="80.914497"
       x="659.48895"
       y="466.40402" />
    <rect
       style="opacity:1;fill:#eeeeee;fill-opacity:1;fill-rule:nonzero;stroke:none;stroke-width:2;stroke-miterlimit:4;stroke-dasharray:none;stroke-opacity:1"
       id="rect5253"
       width="249.90407"
       height="176.8662"
       x="661.63715"
       y="377.25485" />
    <rect
       style="opacity:1;fill:#eeeeee;fill-opacity:1;fill-rule:nonzero;stroke:none;stroke-width:2;stroke-miterlimit:4;stroke-dasharray:none;stroke-opacity:1"
       id="rect5255"
       width="111.34694"
       height="196.91582"
       x="800.19427"
       y="184.63539" />
    <rect
       style="opacity:1;fill:#eeeeee;fill-opacity:1;fill-rule:nonzero;stroke:none;stroke-width:2;stroke-miterlimit:4;stroke-dasharray:none;stroke-opacity:1"
       id="rect5257"
       width="71.247719"
       height="128.53232"
       x="730.02063"
       y="183.20328" />
    <rect
       style="opacity:1;fill:#eeeeee;fill-opacity:1;fill-rule:nonzero;stroke:none;stroke-width:2;stroke-miterlimit:4;stroke-dasharray:none;stroke-opacity:1"
       id="rect5259"
       width="106.69257"
       height="129.60641"
       x="621.17987"
       y="182.48723" />
    <rect
       style="opacity:1;fill:#eeeeee;fill-opacity:1;fill-rule:nonzero;stroke:none;stroke-width:2;stroke-miterlimit:4;stroke-dasharray:none;stroke-opacity:1"
       id="rect5261"
       width="182.9527"
       height="181.16255"
       x="304.32443"
       y="371.5264" />
  </g>
  <g
     inkscape:groupmode="layer"
     id="layer7"
     inkscape:label="Walls"
     style="display:inline"
     transform="translate(-58.227848,-177.13786)">
    <rect
       style="display:inline;opacity:1;fill:#ac2b37;fill-opacity:1;fill-rule:nonzero;stroke:none;stroke-width:2;stroke-miterlimit:4;stroke-dasharray:none;stroke-opacity:1"
       id="rect4987"
       width="8.607605"
       height="153.77576"
       x="906.58228"
       y="178.56601" />
    <rect
       style="display:inline;opacity:1;fill:#ac2b37;fill-opacity:1;fill-rule:nonzero;stroke:none;stroke-width:2;stroke-miterlimit:4;stroke-dasharray:none;stroke-opacity:1"
       id="rect4989"
       width="377.54132"
       height="10.024807"
       x="535.61102"
       y="178.72792" />
    <rect
       style="display:inline;opacity:1;fill:#ac2b37;fill-opacity:1;fill-rule:nonzero;stroke:none;stroke-width:2;stroke-miterlimit:4;stroke-dasharray:none;stroke-opacity:1"
       id="rect4993"
       width="8.2278204"
       height="196.20255"
       x="906.83545"
       y="361.3291" />
    <rect
       style="display:inline;opacity:1;fill:#ac2b37;fill-opacity:1;fill-rule:nonzero;stroke:none;stroke-width:2;stroke-miterlimit:4;stroke-dasharray:none;stroke-opacity:1"
       id="rect4995"
       width="854.17725"
       height="8.6075945"
       x="58.227848"
       y="549.05066" />
    <rect
       style="display:inline;opacity:1;fill:#ac2b37;fill-opacity:1;fill-rule:nonzero;stroke:none;stroke-width:2;stroke-miterlimit:4;stroke-dasharray:none;stroke-opacity:1"
       id="rect4997"
       width="8.8607597"
       height="207.34177"
       x="58.227848"
       y="349.81012" />
    <rect
       style="display:inline;opacity:1;fill:#ac2b37;fill-opacity:1;fill-rule:nonzero;stroke:none;stroke-width:2;stroke-miterlimit:4;stroke-dasharray:none;stroke-opacity:1"
       id="rect4999"
       width="8.3544312"
       height="148.11531"
       x="58.734177"
       y="177.13786" />
    <rect
       style="display:inline;opacity:1;fill:#ac2b37;fill-opacity:1;fill-rule:nonzero;stroke:none;stroke-width:2;stroke-miterlimit:4;stroke-dasharray:none;stroke-opacity:1"
       id="rect5001"
       width="426.58228"
       height="9.8734179"
       x="62.278481"
       y="177.1519" />
    <rect
       style="display:inline;opacity:1;fill:#ac2b37;fill-opacity:1;fill-rule:nonzero;stroke:none;stroke-width:2;stroke-miterlimit:4;stroke-dasharray:none;stroke-opacity:1"
       id="rect5003"
       width="7.3417721"
       height="4.6835442"
       x="900"
       y="375.6329" />
    <rect
       style="display:inline;opacity:1;fill:#ac2b37;fill-opacity:1;fill-rule:nonzero;stroke:none;stroke-width:2;stroke-miterlimit:4;stroke-dasharray:none;stroke-opacity:1"
       id="rect5005"
       width="13.797468"
       height="4.1772151"
       x="864.55695"
       y="375.6329" />
    <rect
       style="display:inline;opacity:1;fill:#ac2b37;fill-opacity:1;fill-rule:nonzero;stroke:none;stroke-width:2;stroke-miterlimit:4;stroke-dasharray:none;stroke-opacity:1"
       id="rect5007"
       width="148.93996"
       height="14.589671"
       x="724.29218"
       y="365.26089" />
    <rect
       style="display:inline;opacity:1;fill:#ac2b37;fill-opacity:1;fill-rule:nonzero;stroke:none;stroke-width:2;stroke-miterlimit:4;stroke-dasharray:none;stroke-opacity:1"
       id="rect5009"
       width="20.407639"
       height="4.5648665"
       x="707.73334"
       y="375.28571" />
    <rect
       style="display:inline;opacity:1;fill:#ac2b37;fill-opacity:1;fill-rule:nonzero;stroke:none;stroke-width:2;stroke-miterlimit:4;stroke-dasharray:none;stroke-opacity:1"
       id="rect5011"
       width="7.1605749"
       height="22.734825"
       x="724.73969"
       y="346.55389" />
    <rect
       style="display:inline;opacity:1;fill:#ac2b37;fill-opacity:1;fill-rule:nonzero;stroke:none;stroke-width:2;stroke-miterlimit:4;stroke-dasharray:none;stroke-opacity:1"
       id="rect5013"
       width="4.6202531"
       height="25.759493"
       x="798.35443"
       y="342.97467" />
    <rect
       style="display:inline;opacity:1;fill:#ac2b37;fill-opacity:1;fill-rule:nonzero;stroke:none;stroke-width:2;stroke-miterlimit:4;stroke-dasharray:none;stroke-opacity:1"
       id="rect5015"
       width="4.3037972"
       height="133.67088"
       x="798.48102"
       y="184.74684" />
    <rect
       style="display:inline;opacity:1;fill:#ac2b37;fill-opacity:1;fill-rule:nonzero;stroke:none;stroke-width:2;stroke-miterlimit:4;stroke-dasharray:none;stroke-opacity:1"
       id="rect5017"
       width="10.126582"
       height="77.721519"
       x="721.51898"
       y="187.53165" />
    <rect
       style="display:inline;opacity:1;fill:#ac2b37;fill-opacity:1;fill-rule:nonzero;stroke:none;stroke-width:2;stroke-miterlimit:4;stroke-dasharray:none;stroke-opacity:1"
       id="rect5019"
       width="6.835443"
       height="63.544304"
       x="724.81012"
       y="258.41772" />
    <rect
       style="display:inline;opacity:1;fill:#ac2b37;fill-opacity:1;fill-rule:nonzero;stroke:none;stroke-width:2;stroke-miterlimit:4;stroke-dasharray:none;stroke-opacity:1"
       id="rect5021"
       width="6.329114"
       height="4.050633"
       x="795.44305"
       y="310.31647" />
    <rect
       style="display:inline;opacity:1;fill:#ac2b37;fill-opacity:1;fill-rule:nonzero;stroke:none;stroke-width:2;stroke-miterlimit:4;stroke-dasharray:none;stroke-opacity:1"
       id="rect5023"
       width="48.354431"
       height="4.556962"
       x="720.50635"
       y="309.81012" />
    <rect
       style="display:inline;opacity:1;fill:#ac2b37;fill-opacity:1;fill-rule:nonzero;stroke:none;stroke-width:2;stroke-miterlimit:4;stroke-dasharray:none;stroke-opacity:1"
       id="rect5025"
       width="10.886076"
       height="4.050633"
       x="684.05066"
       y="310.56961" />
    <rect
       style="display:inline;opacity:1;fill:#ac2b37;fill-opacity:1;fill-rule:nonzero;stroke:none;stroke-width:2;stroke-miterlimit:4;stroke-dasharray:none;stroke-opacity:1"
       id="rect5027"
       width="4.8101268"
       height="54.683544"
       x="689.11395"
       y="258.41772" />
    <rect
       style="display:inline;opacity:1;fill:#ac2b37;fill-opacity:1;fill-rule:nonzero;stroke:none;stroke-width:2;stroke-miterlimit:4;stroke-dasharray:none;stroke-opacity:1"
       id="rect5029"
       width="30.886076"
       height="6.835443"
       x="691.89874"
       y="258.41772" />
    <rect
       style="display:inline;opacity:1;fill:#ac2b37;fill-opacity:1;fill-rule:nonzero;stroke:none;stroke-width:2;stroke-miterlimit:4;stroke-dasharray:none;stroke-opacity:1"
       id="rect5031"
       width="50.482056"
       height="5.1914167"
       x="608.46985"
       y="309.2294" />
    <rect
       style="display:inline;opacity:1;fill:#ac2b37;fill-opacity:1;fill-rule:nonzero;stroke:none;stroke-width:2;stroke-miterlimit:4;stroke-dasharray:none;stroke-opacity:1"
       id="rect5033"
       width="18.796509"
       height="112.77905"
       x="608.46985"
       y="199.31458" />
    <rect
       style="display:inline;opacity:1;fill:#ac2b37;fill-opacity:1;fill-rule:nonzero;stroke:none;stroke-width:2;stroke-miterlimit:4;stroke-dasharray:none;stroke-opacity:1"
       id="rect5035"
       width="14.321171"
       height="18.572739"
       x="608.46985"
       y="186.29128" />
    <rect
       style="display:inline;opacity:1;fill:#ac2b37;fill-opacity:1;fill-rule:nonzero;stroke:none;stroke-width:2;stroke-miterlimit:4;stroke-dasharray:none;stroke-opacity:1"
       id="rect5039"
       width="12.172977"
       height="98.815933"
       x="470.09174"
       y="185.35146" />
    <rect
       style="display:inline;opacity:1;fill:#ac2b37;fill-opacity:1;fill-rule:nonzero;stroke:none;stroke-width:2;stroke-miterlimit:4;stroke-dasharray:none;stroke-opacity:1"
       id="rect5041"
       width="8.9507189"
       height="18.617495"
       x="546.35187"
       y="217.93207" />
    <rect
       style="display:inline;opacity:1;fill:#ac2b37;fill-opacity:1;fill-rule:nonzero;stroke:none;stroke-width:2;stroke-miterlimit:4;stroke-dasharray:none;stroke-opacity:1"
       id="rect5043"
       width="9.3087473"
       height="7.8766327"
       x="546.7099"
       y="184.63539" />
    <rect
       style="display:inline;opacity:1;fill:#ac2b37;fill-opacity:1;fill-rule:nonzero;stroke:none;stroke-width:2;stroke-miterlimit:4;stroke-dasharray:none;stroke-opacity:1"
       id="rect5045"
       width="69.457581"
       height="9.6667767"
       x="480.83261"
       y="226.88278" />
    <rect
       style="display:inline;opacity:1;fill:#ac2b37;fill-opacity:1;fill-rule:nonzero;stroke:none;stroke-width:2;stroke-miterlimit:4;stroke-dasharray:none;stroke-opacity:1"
       id="rect5047"
       width="9.3087473"
       height="39.025135"
       x="472.95599"
       y="281.48218" />
    <rect
       style="display:inline;opacity:1;fill:#ac2b37;fill-opacity:1;fill-rule:nonzero;stroke:none;stroke-width:2;stroke-miterlimit:4;stroke-dasharray:none;stroke-opacity:1"
       id="rect5049"
       width="11.45692"
       height="30.253429"
       x="465.79541"
       y="283.45132" />
    <rect
       style="display:inline;opacity:1;fill:#ac2b37;fill-opacity:1;fill-rule:nonzero;stroke:none;stroke-width:2;stroke-miterlimit:4;stroke-dasharray:none;stroke-opacity:1"
       id="rect5051"
       width="17.364395"
       height="5.0124025"
       x="453.44342"
       y="308.87137" />
    <rect
       style="display:inline;opacity:1;fill:#ac2b37;fill-opacity:1;fill-rule:nonzero;stroke:none;stroke-width:2;stroke-miterlimit:4;stroke-dasharray:none;stroke-opacity:1"
       id="rect5053"
       width="23.808912"
       height="4.2963452"
       x="403.85645"
       y="309.2294" />
    <rect
       style="display:inline;opacity:1;fill:#ac2b37;fill-opacity:1;fill-rule:nonzero;stroke:none;stroke-width:2;stroke-miterlimit:4;stroke-dasharray:none;stroke-opacity:1"
       id="rect5055"
       width="5.0124025"
       height="127.63725"
       x="420.68378"
       y="183.74033" />
    <rect
       style="display:inline;opacity:1;fill:#ac2b37;fill-opacity:1;fill-rule:nonzero;stroke:none;stroke-width:2;stroke-miterlimit:4;stroke-dasharray:none;stroke-opacity:1"
       id="rect5057"
       width="7.8766327"
       height="4.4753594"
       x="422.29492"
       y="219.90123" />
    <rect
       style="display:inline;opacity:1;fill:#ac2b37;fill-opacity:1;fill-rule:nonzero;stroke:none;stroke-width:2;stroke-miterlimit:4;stroke-dasharray:none;stroke-opacity:1"
       id="rect5059"
       width="34.01273"
       height="4.1173306"
       x="344.78168"
       y="309.2294" />
    <rect
       style="display:inline;opacity:1;fill:#ac2b37;fill-opacity:1;fill-rule:nonzero;stroke:none;stroke-width:2;stroke-miterlimit:4;stroke-dasharray:none;stroke-opacity:1"
       id="rect5061"
       width="28.284271"
       height="4.1173306"
       x="291.07736"
       y="309.05038" />
    <rect
       style="display:inline;opacity:1;fill:#ac2b37;fill-opacity:1;fill-rule:nonzero;stroke:none;stroke-width:2;stroke-miterlimit:4;stroke-dasharray:none;stroke-opacity:1"
       id="rect5063"
       width="30.969486"
       height="4.4753594"
       x="235.4039"
       y="308.69235" />
    <rect
       style="display:inline;opacity:1;fill:#ac2b37;fill-opacity:1;fill-rule:nonzero;stroke:none;stroke-width:2;stroke-miterlimit:4;stroke-dasharray:none;stroke-opacity:1"
       id="rect5065"
       width="28.463285"
       height="3.5802875"
       x="213.74316"
       y="309.94547" />
    <rect
       style="display:inline;opacity:1;fill:#ac2b37;fill-opacity:1;fill-rule:nonzero;stroke:none;stroke-width:2;stroke-miterlimit:4;stroke-dasharray:none;stroke-opacity:1"
       id="rect5067"
       width="3.0432444"
       height="15.93228"
       x="220.54572"
       y="311.91461" />
    <rect
       style="display:inline;opacity:1;fill:#ac2b37;fill-opacity:1;fill-rule:nonzero;stroke:none;stroke-width:2;stroke-miterlimit:4;stroke-dasharray:none;stroke-opacity:1"
       id="rect5069"
       width="4.8333883"
       height="127.63725"
       x="356.59665"
       y="184.09836" />
    <rect
       style="display:inline;opacity:1;fill:#ac2b37;fill-opacity:1;fill-rule:nonzero;stroke:none;stroke-width:2;stroke-miterlimit:4;stroke-dasharray:none;stroke-opacity:1"
       id="rect5071"
       width="4.4753594"
       height="129.24838"
       x="302.17627"
       y="182.30821" />
    <rect
       style="display:inline;opacity:1;fill:#ac2b37;fill-opacity:1;fill-rule:nonzero;stroke:none;stroke-width:2;stroke-miterlimit:4;stroke-dasharray:none;stroke-opacity:1"
       id="rect5073"
       width="5.3704314"
       height="128.3533"
       x="235.4039"
       y="182.84525" />
    <rect
       style="display:inline;opacity:1;fill:#ac2b37;fill-opacity:1;fill-rule:nonzero;stroke:none;stroke-width:2;stroke-miterlimit:4;stroke-dasharray:none;stroke-opacity:1"
       id="rect5075"
       width="35.802876"
       height="2.8642299"
       x="153.2363"
       y="310.12448" />
    <rect
       style="display:inline;opacity:1;fill:#ac2b37;fill-opacity:1;fill-rule:nonzero;stroke:none;stroke-width:2;stroke-miterlimit:4;stroke-dasharray:none;stroke-opacity:1"
       id="rect5079"
       width="6.2655029"
       height="2.8642299"
       x="121.90879"
       y="310.3035" />
    <rect
       style="display:inline;opacity:1;fill:#ac2b37;fill-opacity:1;fill-rule:nonzero;stroke:none;stroke-width:2;stroke-miterlimit:4;stroke-dasharray:none;stroke-opacity:1"
       id="rect5081"
       width="31.327517"
       height="2.6852157"
       x="65.340248"
       y="310.12448" />
    <rect
       style="display:inline;opacity:1;fill:#ac2b37;fill-opacity:1;fill-rule:nonzero;stroke:none;stroke-width:2;stroke-miterlimit:4;stroke-dasharray:none;stroke-opacity:1"
       id="rect5083"
       width="2.8642299"
       height="129.24838"
       x="184.74283"
       y="183.56131" />
    <rect
       style="display:inline;opacity:1;fill:#ac2b37;fill-opacity:1;fill-rule:nonzero;stroke:none;stroke-width:2;stroke-miterlimit:4;stroke-dasharray:none;stroke-opacity:1"
       id="rect5085"
       width="3.0432444"
       height="129.24838"
       x="123.87794"
       y="183.02426" />
    <rect
       style="display:inline;opacity:1;fill:#ac2b37;fill-opacity:1;fill-rule:nonzero;stroke:none;stroke-width:2;stroke-miterlimit:4;stroke-dasharray:none;stroke-opacity:1"
       id="rect5087"
       width="5.0632935"
       height="59.49366"
       x="244.55696"
       y="311.3291" />
    <rect
       style="display:inline;opacity:1;fill:#ac2b37;fill-opacity:1;fill-rule:nonzero;stroke:none;stroke-width:2;stroke-miterlimit:4;stroke-dasharray:none;stroke-opacity:1"
       id="rect5089"
       width="161.26582"
       height="9.6202536"
       x="107.59494"
       y="364.74683" />
    <rect
       style="display:inline;opacity:1;fill:#ac2b37;fill-opacity:1;fill-rule:nonzero;stroke:none;stroke-width:2;stroke-miterlimit:4;stroke-dasharray:none;stroke-opacity:1"
       id="rect5091"
       width="171.64557"
       height="4.8101268"
       x="102.53165"
       y="369.3038" />
    <rect
       style="display:inline;opacity:1;fill:#ac2b37;fill-opacity:1;fill-rule:nonzero;stroke:none;stroke-width:2;stroke-miterlimit:4;stroke-dasharray:none;stroke-opacity:1"
       id="rect5093"
       width="3.8869619"
       height="13.57872"
       x="302.94846"
       y="372.18073" />
    <rect
       style="display:inline;opacity:1;fill:#ac2b37;fill-opacity:1;fill-rule:nonzero;stroke:none;stroke-width:2;stroke-miterlimit:4;stroke-dasharray:none;stroke-opacity:1"
       id="rect5095"
       width="140.75949"
       height="4.556962"
       x="292.15189"
       y="370.56961" />
    <rect
       style="display:inline;opacity:1;fill:#ac2b37;fill-opacity:1;fill-rule:nonzero;stroke:none;stroke-width:2;stroke-miterlimit:4;stroke-dasharray:none;stroke-opacity:1"
       id="rect5097"
       width="9.8734179"
       height="27.341772"
       x="472.91141"
       y="347.27847" />
    <rect
       style="display:inline;opacity:1;fill:#ac2b37;fill-opacity:1;fill-rule:nonzero;stroke:none;stroke-width:2;stroke-miterlimit:4;stroke-dasharray:none;stroke-opacity:1"
       id="rect5099"
       width="35.949368"
       height="3.7974684"
       x="455.18988"
       y="371.07596" />
    <rect
       style="display:inline;opacity:1;fill:#ac2b37;fill-opacity:1;fill-rule:nonzero;stroke:none;stroke-width:2;stroke-miterlimit:4;stroke-dasharray:none;stroke-opacity:1"
       id="rect5101"
       width="75.443039"
       height="15.189874"
       x="477.97467"
       y="360.94937" />
    <rect
       style="display:inline;opacity:1;fill:#ac2b37;fill-opacity:1;fill-rule:nonzero;stroke:none;stroke-width:2;stroke-miterlimit:4;stroke-dasharray:none;stroke-opacity:1"
       id="rect5103"
       width="85.063293"
       height="13.670886"
       x="484.81012"
       y="365.75949" />
    <rect
       style="display:inline;opacity:1;fill:#ac2b37;fill-opacity:1;fill-rule:nonzero;stroke:none;stroke-width:2;stroke-miterlimit:4;stroke-dasharray:none;stroke-opacity:1"
       id="rect5105"
       width="35.189873"
       height="5.8227849"
       x="535.18988"
       y="424.24051" />
    <rect
       style="display:inline;opacity:1;fill:#ac2b37;fill-opacity:1;fill-rule:nonzero;stroke:none;stroke-width:2;stroke-miterlimit:4;stroke-dasharray:none;stroke-opacity:1"
       id="rect5107"
       width="4.050633"
       height="50.379745"
       x="558.98737"
       y="378.16455" />
    <rect
       style="display:inline;opacity:1;fill:#ac2b37;fill-opacity:1;fill-rule:nonzero;stroke:none;stroke-width:2;stroke-miterlimit:4;stroke-dasharray:none;stroke-opacity:1"
       id="rect5109"
       width="25.316456"
       height="4.556962"
       x="486.83545"
       y="424.74683" />
    <rect
       style="display:inline;opacity:1;fill:#ac2b37;fill-opacity:1;fill-rule:nonzero;stroke:none;stroke-width:2;stroke-miterlimit:4;stroke-dasharray:none;stroke-opacity:1"
       id="rect5111"
       width="5.3164558"
       height="175.44304"
       x="484.55698"
       y="379.43039" />
    <rect
       style="display:inline;opacity:1;fill:#ac2b37;fill-opacity:1;fill-rule:nonzero;stroke:none;stroke-width:2;stroke-miterlimit:4;stroke-dasharray:none;stroke-opacity:1"
       id="rect5113"
       width="25.062012"
       height="3.5802875"
       x="710.68707"
       y="463.18176" />
    <rect
       style="display:inline;opacity:1;fill:#ac2b37;fill-opacity:1;fill-rule:nonzero;stroke:none;stroke-width:2;stroke-miterlimit:4;stroke-dasharray:none;stroke-opacity:1"
       id="rect5115"
       width="3.7593019"
       height="84.136757"
       x="732.34784"
       y="464.79291" />
    <rect
       style="display:inline;opacity:1;fill:#ac2b37;fill-opacity:1;fill-rule:nonzero;stroke:none;stroke-width:2;stroke-miterlimit:4;stroke-dasharray:none;stroke-opacity:1"
       id="rect5117"
       width="7.3395896"
       height="11.814949"
       x="658.05682"
       y="541.05304" />
    <rect
       style="display:inline;opacity:1;fill:#ac2b37;fill-opacity:1;fill-rule:nonzero;stroke:none;stroke-width:2;stroke-miterlimit:4;stroke-dasharray:none;stroke-opacity:1"
       id="rect5119"
       width="6.6235318"
       height="145.53868"
       x="658.23584"
       y="370.0943" />
    <rect
       style="display:inline;opacity:1;fill:#ac2b37;fill-opacity:1;fill-rule:nonzero;stroke:none;stroke-width:2;stroke-miterlimit:4;stroke-dasharray:none;stroke-opacity:1"
       id="rect5121"
       width="20.04961"
       height="6.802546"
       x="661.81616"
       y="372.95853" />
    <rect
       style="display:inline;opacity:1;fill:#ac2b37;fill-opacity:1;fill-rule:nonzero;stroke:none;stroke-width:2;stroke-miterlimit:4;stroke-dasharray:none;stroke-opacity:1"
       id="rect5123"
       width="82.346611"
       height="13.605092"
       x="594.50671"
       y="366.33499" />
    <rect
       style="display:inline;opacity:1;fill:#ac2b37;fill-opacity:1;fill-rule:nonzero;stroke:none;stroke-width:2;stroke-miterlimit:4;stroke-dasharray:none;stroke-opacity:1"
       id="rect5125"
       width="9.8457909"
       height="23.450884"
       x="610.61804"
       y="352.19284" />
    <rect
       style="display:inline;opacity:1;fill:#ac2b37;fill-opacity:1;fill-rule:nonzero;stroke:none;stroke-width:2;stroke-miterlimit:4;stroke-dasharray:none;stroke-opacity:1"
       id="rect5127"
       width="28.6423"
       height="5.3704314"
       x="591.4635"
       y="424.87268" />
    <rect
       style="display:inline;opacity:1;fill:#ac2b37;fill-opacity:1;fill-rule:nonzero;stroke:none;stroke-width:2;stroke-miterlimit:4;stroke-dasharray:none;stroke-opacity:1"
       id="rect5129"
       width="7.1605749"
       height="79.840408"
       x="612.58722"
       y="427.37888" />
    <rect
       style="display:inline;opacity:1;fill:#ac2b37;fill-opacity:1;fill-rule:nonzero;stroke:none;stroke-width:2;stroke-miterlimit:4;stroke-dasharray:none;stroke-opacity:1"
       id="rect5131"
       width="42.605423"
       height="7.1605749"
       x="617.24158"
       y="500.41675" />
    <rect
       style="display:inline;opacity:1;fill:#ac2b37;fill-opacity:1;fill-rule:nonzero;stroke:none;stroke-width:2;stroke-miterlimit:4;stroke-dasharray:none;stroke-opacity:1"
       id="rect5133"
       width="24.345955"
       height="3.5802875"
       x="661.27911"
       y="463.36078" />
    <rect
       style="display:inline;opacity:1;fill:#ac2b37;fill-opacity:1;fill-rule:nonzero;stroke:none;stroke-width:2;stroke-miterlimit:4;stroke-dasharray:none;stroke-opacity:1"
       id="rect5135"
       width="3.9383163"
       height="144.64362"
       x="303.07135"
       y="408.76138" />
    <rect
       style="display:inline;opacity:1;fill:#ac2b37;fill-opacity:1;fill-rule:nonzero;stroke:none;stroke-width:2;stroke-miterlimit:4;stroke-dasharray:none;stroke-opacity:1"
       id="rect5137"
       width="27.210184"
       height="5.0124025"
       x="277.65131"
       y="421.82944" />
    <rect
       style="display:inline;opacity:1;fill:#ac2b37;fill-opacity:1;fill-rule:nonzero;stroke:none;stroke-width:2;stroke-miterlimit:4;stroke-dasharray:none;stroke-opacity:1"
       id="rect5139"
       width="37.234989"
       height="4.8333883"
       x="216.07036"
       y="421.65042" />
    <rect
       style="display:inline;opacity:1;fill:#ac2b37;fill-opacity:1;fill-rule:nonzero;stroke:none;stroke-width:2;stroke-miterlimit:4;stroke-dasharray:none;stroke-opacity:1"
       id="rect5141"
       width="5.0124025"
       height="126.20513"
       x="240.23729"
       y="424.15662" />
    <rect
       style="display:inline;opacity:1;fill:#ac2b37;fill-opacity:1;fill-rule:nonzero;stroke:none;stroke-width:2;stroke-miterlimit:4;stroke-dasharray:none;stroke-opacity:1"
       id="rect5143"
       width="13.963121"
       height="5.1914167"
       x="176.32916"
       y="420.93436" />
    <rect
       style="display:inline;opacity:1;fill:#ac2b37;fill-opacity:1;fill-rule:nonzero;stroke:none;stroke-width:2;stroke-miterlimit:4;stroke-dasharray:none;stroke-opacity:1"
       id="rect5145"
       width="4.8333883"
       height="128.89035"
       x="181.16255"
       y="423.6196" />
    <rect
       style="display:inline;opacity:1;fill:#ac2b37;fill-opacity:1;fill-rule:nonzero;stroke:none;stroke-width:2;stroke-miterlimit:4;stroke-dasharray:none;stroke-opacity:1"
       id="rect5147"
       width="54.241356"
       height="4.6543736"
       x="96.667763"
       y="421.47141" />
    <rect
       style="display:inline;opacity:1;fill:#ac2b37;fill-opacity:1;fill-rule:nonzero;stroke:none;stroke-width:2;stroke-miterlimit:4;stroke-dasharray:none;stroke-opacity:1"
       id="rect5149"
       width="6.9815607"
       height="4.2963452"
       x="65.877289"
       y="421.29239" />
    <rect
       style="display:inline;opacity:1;fill:#ac2b37;fill-opacity:1;fill-rule:nonzero;stroke:none;stroke-width:2;stroke-miterlimit:4;stroke-dasharray:none;stroke-opacity:1"
       id="rect5151"
       width="5.3704314"
       height="129.78542"
       x="119.5816"
       y="423.79861" />
    <rect
       style="opacity:1;fill:#ac2b37;fill-opacity:1;fill-rule:nonzero;stroke:none;stroke-width:2;stroke-miterlimit:4;stroke-dasharray:none;stroke-opacity:1"
       id="rect5235"
       width="3.0432444"
       height="15.395236"
       x="220.54572"
       y="352.90891" />
    <rect
       style="opacity:1;fill:#ac2b37;fill-opacity:1;fill-rule:nonzero;stroke:none;stroke-width:2;stroke-miterlimit:4;stroke-dasharray:none;stroke-opacity:1"
       id="rect5237"
       width="13.068049"
       height="4.8333883"
       x="63.37109"
       y="369.19922" />
    <rect
       style="opacity:1;fill:#ac2b37;fill-opacity:1;fill-rule:nonzero;stroke:none;stroke-width:2;stroke-miterlimit:4;stroke-dasharray:none;stroke-opacity:1"
       id="rect5239"
       width="7.5186038"
       height="6.2655029"
       x="64.624191"
       y="364.00781" />
  </g>
  <g
     inkscape:groupmode="layer"
     id="layer8"
     inkscape:label="Labels"
     transform="translate(-58.227848,-177.13786)">
    <rect
       style="display:inline;opacity:1;fill:none;fill-opacity:1;fill-rule:nonzero;stroke:#333333;stroke-width:0.82426953;stroke-miterlimit:4;stroke-dasharray:none;stroke-opacity:1"
       id="rect4426-5"
       width="32.308163"
       height="32.308163"
       x="620.42102"
       y="388.66901" />
    <path
       style="display:inline;fill:none;fill-rule:evenodd;stroke:#333333;stroke-width:0.82426953;stroke-linecap:butt;stroke-linejoin:miter;stroke-miterlimit:4;stroke-dasharray:none;stroke-opacity:1"
       d="m 624.87734,413.73568 6.03457,0 0,-5.94173 5.84889,0 0,-6.03457 6.22025,0 0,-5.57037 5.47753,0"
       id="path4430-1"
       inkscape:connector-curvature="0" />
    <g
       style="font-style:normal;font-variant:normal;font-weight:normal;font-stretch:normal;font-size:30px;line-height:125%;font-family:Sans;-inkscape-font-specification:'Sans, Normal';text-align:start;letter-spacing:0px;word-spacing:0px;writing-mode:lr-tb;text-anchor:start;fill:#333333;fill-opacity:1;stroke:none;stroke-width:1px;stroke-linecap:butt;stroke-linejoin:miter;stroke-opacity:1"
       id="text5279">
      <path
         d="m 73.985886,251.00594 2.819824,0 0,-9.73267 -3.067627,0.61523 0,-1.57226 3.050537,-0.61524 1.726074,0 0,11.30494 2.819824,0 0,1.45263 -7.348632,0 0,-1.45263 z"
         style="font-style:normal;font-variant:normal;font-weight:normal;font-stretch:normal;font-size:17.5px;line-height:125%;font-family:Sans;-inkscape-font-specification:'Sans, Normal';text-align:start;writing-mode:lr-tb;text-anchor:start;fill:#333333;fill-opacity:1"
         id="path3624"
         inkscape:connector-curvature="0" />
      <path
         d="m 88.520798,240.83748 q -1.333008,0 -2.008057,1.31592 -0.666504,1.30737 -0.666504,3.93921 0,2.62329 0.666504,3.9392 0.675049,1.30738 2.008057,1.30738 1.341552,0 2.008056,-1.30738 0.675049,-1.31591 0.675049,-3.9392 0,-2.63184 -0.675049,-3.93921 -0.666504,-1.31592 -2.008056,-1.31592 z m 0,-1.36719 q 2.144775,0 3.272705,1.70044 1.136474,1.6919 1.136474,4.92188 0,3.22143 -1.136474,4.92187 -1.12793,1.6919 -3.272705,1.6919 -2.144776,0 -3.28125,-1.6919 -1.12793,-1.70044 -1.12793,-4.92187 0,-3.22998 1.12793,-4.92188 1.136474,-1.70044 3.28125,-1.70044 z"
         style="font-style:normal;font-variant:normal;font-weight:normal;font-stretch:normal;font-size:17.5px;line-height:125%;font-family:Sans;-inkscape-font-specification:'Sans, Normal';text-align:start;writing-mode:lr-tb;text-anchor:start;fill:#333333;fill-opacity:1"
         id="path3626"
         inkscape:connector-curvature="0" />
      <path
         d="m 100.7144,241.20491 -4.357909,6.8103 4.357909,0 0,-6.8103 z m -0.45288,-1.50391 2.17041,0 0,8.31421 1.82007,0 0,1.43555 -1.82007,0 0,3.00781 -1.71753,0 0,-3.00781 -5.759276,0 0,-1.66626 5.306396,-8.0835 z"
         style="font-style:normal;font-variant:normal;font-weight:normal;font-stretch:normal;font-size:17.5px;line-height:125%;font-family:Sans;-inkscape-font-specification:'Sans, Normal';text-align:start;writing-mode:lr-tb;text-anchor:start;fill:#333333;fill-opacity:1"
         id="path3628"
         inkscape:connector-curvature="0" />
      <path
         d="m 111.22466,241.40144 -2.34131,6.34888 4.69116,0 -2.34985,-6.34888 z m -0.97413,-1.70044 1.95679,0 4.86206,12.75757 -1.79443,0 -1.16211,-3.2727 -5.75073,0 -1.16211,3.2727 -1.82007,0 4.8706,-12.75757 z"
         style="font-style:normal;font-variant:normal;font-weight:normal;font-stretch:normal;font-size:17.5px;line-height:125%;font-family:Sans;-inkscape-font-specification:'Sans, Normal';text-align:start;writing-mode:lr-tb;text-anchor:start;fill:#333333;fill-opacity:1"
         id="path3630"
         inkscape:connector-curvature="0" />
    </g>
    <g
       style="font-style:normal;font-variant:normal;font-weight:normal;font-stretch:normal;font-size:17.5px;line-height:125%;font-family:Sans;-inkscape-font-specification:'Sans, Normal';text-align:start;letter-spacing:0px;word-spacing:0px;writing-mode:lr-tb;text-anchor:start;fill:#333333;fill-opacity:1;stroke:none;stroke-width:1px;stroke-linecap:butt;stroke-linejoin:miter;stroke-opacity:1"
       id="text5283">
      <path
         d="m 135.77655,251.80142 2.81982,0 0,-9.73266 -3.06762,0.61523 0,-1.57227 3.05053,-0.61523 1.72608,0 0,11.30493 2.81982,0 0,1.45264 -7.34863,0 0,-1.45264 z"
         id="path3615"
         inkscape:connector-curvature="0" />
      <path
         d="m 150.31146,241.63297 q -1.33301,0 -2.00805,1.31591 -0.66651,1.30738 -0.66651,3.93921 0,2.62329 0.66651,3.93921 0.67504,1.30737 2.00805,1.30737 1.34156,0 2.00806,-1.30737 0.67505,-1.31592 0.67505,-3.93921 0,-2.63183 -0.67505,-3.93921 -0.6665,-1.31591 -2.00806,-1.31591 z m 0,-1.36719 q 2.14478,0 3.27271,1.70044 1.13647,1.69189 1.13647,4.92187 0,3.22144 -1.13647,4.92188 -1.12793,1.69189 -3.27271,1.69189 -2.14477,0 -3.28125,-1.69189 -1.12793,-1.70044 -1.12793,-4.92188 0,-3.22998 1.12793,-4.92187 1.13648,-1.70044 3.28125,-1.70044 z"
         id="path3617"
         inkscape:connector-curvature="0" />
      <path
         d="m 162.50507,242.0004 -4.35791,6.8103 4.35791,0 0,-6.8103 z m -0.45288,-1.50391 2.17041,0 0,8.31421 1.82006,0 0,1.43555 -1.82006,0 0,3.00781 -1.71753,0 0,-3.00781 -5.75928,0 0,-1.66626 5.3064,-8.0835 z"
         id="path3619"
         inkscape:connector-curvature="0" />
      <path
         d="m 170.47748,247.16153 0,4.67407 2.76855,0 q 1.39282,0 2.05933,-0.57251 0.67505,-0.58105 0.67505,-1.7688 0,-1.19629 -0.67505,-1.76025 -0.66651,-0.57251 -2.05933,-0.57251 l -2.76855,0 z m 0,-5.24658 0,3.84521 2.55493,0 q 1.26465,0 1.87988,-0.46997 0.62378,-0.47851 0.62378,-1.45264 0,-0.96557 -0.62378,-1.44409 -0.61523,-0.47851 -1.87988,-0.47851 l -2.55493,0 z m -1.72608,-1.41846 4.40918,0 q 1.97388,0 3.042,0.82031 1.06811,0.82032 1.06811,2.33277 0,1.17065 -0.54687,1.86279 -0.54688,0.69214 -1.60645,0.86304 1.27319,0.27343 1.97388,1.14502 0.70923,0.86303 0.70923,2.16186 0,1.70899 -1.16211,2.64038 -1.16211,0.9314 -3.30689,0.9314 l -4.58008,0 0,-12.75757 z"
         id="path3621"
         inkscape:connector-curvature="0" />
    </g>
    <g
       style="font-style:normal;font-variant:normal;font-weight:normal;font-stretch:normal;font-size:17.5px;line-height:125%;font-family:Sans;-inkscape-font-specification:'Sans, Normal';text-align:start;letter-spacing:0px;word-spacing:0px;writing-mode:lr-tb;text-anchor:start;fill:#333333;fill-opacity:1;stroke:none;stroke-width:1px;stroke-linecap:butt;stroke-linejoin:miter;stroke-opacity:1"
       id="text5287">
      <path
         d="m 191.11526,252.0546 2.81983,0 0,-9.73267 -3.06763,0.61523 0,-1.57226 3.05054,-0.61524 1.72607,0 0,11.30494 2.81983,0 0,1.45263 -7.34864,0 0,-1.45263 z"
         id="path3606"
         inkscape:connector-curvature="0" />
      <path
         d="m 205.65018,241.88614 q -1.33301,0 -2.00806,1.31592 -0.6665,1.30737 -0.6665,3.93921 0,2.62329 0.6665,3.9392 0.67505,1.30738 2.00806,1.30738 1.34155,0 2.00805,-1.30738 0.67505,-1.31591 0.67505,-3.9392 0,-2.63184 -0.67505,-3.93921 -0.6665,-1.31592 -2.00805,-1.31592 z m 0,-1.36719 q 2.14477,0 3.2727,1.70044 1.13648,1.6919 1.13648,4.92188 0,3.22143 -1.13648,4.92187 -1.12793,1.6919 -3.2727,1.6919 -2.14478,0 -3.28125,-1.6919 -1.12793,-1.70044 -1.12793,-4.92187 0,-3.22998 1.12793,-4.92188 1.13647,-1.70044 3.28125,-1.70044 z"
         id="path3608"
         inkscape:connector-curvature="0" />
      <path
         d="m 217.84378,242.25357 -4.35791,6.8103 4.35791,0 0,-6.8103 z m -0.45288,-1.50391 2.17041,0 0,8.31421 1.82007,0 0,1.43555 -1.82007,0 0,3.00781 -1.71753,0 0,-3.00781 -5.75928,0 0,-1.66626 5.3064,-8.0835 z"
         id="path3610"
         inkscape:connector-curvature="0" />
      <path
         d="m 233.64334,241.73233 0,1.82007 q -0.87158,-0.81177 -1.86279,-1.21338 -0.98267,-0.40161 -2.09351,-0.40161 -2.1875,0 -3.34961,1.34155 -1.16211,1.33301 -1.16211,3.86231 0,2.52075 1.16211,3.8623 1.16211,1.33301 3.34961,1.33301 1.11084,0 2.09351,-0.40161 0.99121,-0.40161 1.86279,-1.21338 l 0,1.80298 q -0.90576,0.61523 -1.92261,0.92285 -1.0083,0.30762 -2.13623,0.30762 -2.89673,0 -4.56299,-1.7688 -1.66625,-1.77735 -1.66625,-4.84497 0,-3.07618 1.66625,-4.84497 1.66626,-1.77735 4.56299,-1.77735 1.14502,0 2.15332,0.30762 1.01685,0.29907 1.90552,0.90576 z"
         id="path3612"
         inkscape:connector-curvature="0" />
    </g>
    <g
       style="font-style:normal;font-variant:normal;font-weight:normal;font-stretch:normal;font-size:17.5px;line-height:125%;font-family:Sans;-inkscape-font-specification:'Sans, Normal';text-align:start;letter-spacing:0px;word-spacing:0px;writing-mode:lr-tb;text-anchor:start;fill:#333333;fill-opacity:1;stroke:none;stroke-width:1px;stroke-linecap:butt;stroke-linejoin:miter;stroke-opacity:1"
       id="text5291">
      <path
         d="m 256.08168,251.96028 2.81982,0 0,-9.73266 -3.06762,0.61523 0,-1.57227 3.05053,-0.61523 1.72608,0 0,11.30493 2.81982,0 0,1.45264 -7.34863,0 0,-1.45264 z"
         id="path3599"
         inkscape:connector-curvature="0" />
      <path
         d="m 270.61659,241.79182 q -1.33301,0 -2.00805,1.31592 -0.66651,1.30738 -0.66651,3.93921 0,2.62329 0.66651,3.93921 0.67504,1.30737 2.00805,1.30737 1.34156,0 2.00806,-1.30737 0.67505,-1.31592 0.67505,-3.93921 0,-2.63183 -0.67505,-3.93921 -0.6665,-1.31592 -2.00806,-1.31592 z m 0,-1.36718 q 2.14478,0 3.27271,1.70044 1.13647,1.69189 1.13647,4.92187 0,3.22144 -1.13647,4.92188 -1.12793,1.69189 -3.27271,1.69189 -2.14477,0 -3.28125,-1.69189 -1.12793,-1.70044 -1.12793,-4.92188 0,-3.22998 1.12793,-4.92187 1.13648,-1.70044 3.28125,-1.70044 z"
         id="path3601"
         inkscape:connector-curvature="0" />
      <path
         d="m 283.29726,246.53426 q 1.23901,0.26489 1.93115,1.10229 0.70068,0.8374 0.70068,2.06787 0,1.88843 -1.29883,2.92237 -1.29882,1.03393 -3.6914,1.03393 -0.80322,0 -1.65772,-0.16235 -0.84594,-0.15381 -1.75171,-0.46997 l 0,-1.66626 q 0.71778,0.4187 1.57227,0.63232 0.85449,0.21362 1.78589,0.21362 1.62353,0 2.46948,-0.64087 0.85449,-0.64086 0.85449,-1.86279 0,-1.12793 -0.79467,-1.76025 -0.78614,-0.64087 -2.19605,-0.64087 l -1.48682,0 0,-1.41846 1.55518,0 q 1.27319,0 1.94824,-0.50415 0.67505,-0.51269 0.67505,-1.46973 0,-0.98266 -0.70068,-1.5039 -0.69214,-0.52979 -1.99097,-0.52979 -0.70923,0 -1.521,0.15381 -0.81176,0.15381 -1.78588,0.47852 l 0,-1.53809 q 0.98266,-0.27344 1.83715,-0.41015 0.86304,-0.13672 1.62354,-0.13672 1.96533,0 3.11035,0.89721 1.14502,0.88868 1.14502,2.40967 0,1.05957 -0.60669,1.79444 -0.60669,0.72631 -1.72607,1.0083 z"
         id="path3603"
         inkscape:connector-curvature="0" />
    </g>
    <g
       style="font-style:normal;font-variant:normal;font-weight:normal;font-stretch:normal;font-size:17.5px;line-height:125%;font-family:Sans;-inkscape-font-specification:'Sans, Normal';text-align:start;letter-spacing:0px;word-spacing:0px;writing-mode:lr-tb;text-anchor:start;fill:#333333;fill-opacity:1;stroke:none;stroke-width:1px;stroke-linecap:butt;stroke-linejoin:miter;stroke-opacity:1"
       id="text5295">
      <path
         d="m 310.41824,251.30562 2.81983,0 0,-9.73267 -3.06763,0.61524 0,-1.57227 3.05054,-0.61523 1.72607,0 0,11.30493 2.81983,0 0,1.45264 -7.34864,0 0,-1.45264 z"
         id="path3590"
         inkscape:connector-curvature="0" />
      <path
         d="m 324.95316,241.13716 q -1.33301,0 -2.00806,1.31592 -0.66651,1.30737 -0.66651,3.93921 0,2.62329 0.66651,3.93921 0.67505,1.30737 2.00806,1.30737 1.34155,0 2.00805,-1.30737 0.67505,-1.31592 0.67505,-3.93921 0,-2.63184 -0.67505,-3.93921 -0.6665,-1.31592 -2.00805,-1.31592 z m 0,-1.36719 q 2.14477,0 3.2727,1.70044 1.13648,1.6919 1.13648,4.92188 0,3.22143 -1.13648,4.92187 -1.12793,1.6919 -3.2727,1.6919 -2.14478,0 -3.28125,-1.6919 -1.12793,-1.70044 -1.12793,-4.92187 0,-3.22998 1.12793,-4.92188 1.13647,-1.70044 3.28125,-1.70044 z"
         id="path3592"
         inkscape:connector-curvature="0" />
      <path
         d="m 333.89114,251.30562 6.02417,0 0,1.45264 -8.10058,0 0,-1.45264 q 0.98266,-1.01685 2.67456,-2.72583 1.70044,-1.71753 2.13623,-2.21314 0.82886,-0.93139 1.15356,-1.57226 0.33326,-0.64942 0.33326,-1.2732 0,-1.01684 -0.71778,-1.65771 -0.70923,-0.64087 -1.85425,-0.64087 -0.81176,0 -1.71753,0.28198 -0.89721,0.28199 -1.9226,0.8545 l 0,-1.74317 q 1.04248,-0.4187 1.94824,-0.63232 0.90576,-0.21363 1.65771,-0.21363 1.98243,0 3.16163,0.99121 1.17919,0.99122 1.17919,2.64893 0,0.78613 -0.29907,1.49536 -0.29053,0.70069 -1.06811,1.65772 -0.21363,0.2478 -1.35865,1.43554 -1.14502,1.1792 -3.22998,3.30689 z"
         id="path3594"
         inkscape:connector-curvature="0" />
      <path
         d="m 345.11917,246.66573 0,4.67407 2.76856,0 q 1.39282,0 2.05932,-0.57251 0.67505,-0.58106 0.67505,-1.7688 0,-1.19629 -0.67505,-1.76025 -0.6665,-0.57251 -2.05932,-0.57251 l -2.76856,0 z m 0,-5.24659 0,3.84522 2.55493,0 q 1.26465,0 1.87989,-0.46997 0.62377,-0.47852 0.62377,-1.45264 0,-0.96558 -0.62377,-1.44409 -0.61524,-0.47852 -1.87989,-0.47852 l -2.55493,0 z m -1.72607,-1.41845 4.40918,0 q 1.97387,0 3.04199,0.82031 1.06811,0.82031 1.06811,2.33276 0,1.17066 -0.54687,1.8628 -0.54688,0.69213 -1.60645,0.86303 1.2732,0.27344 1.97388,1.14502 0.70923,0.86304 0.70923,2.16187 0,1.70898 -1.16211,2.64038 -1.16211,0.9314 -3.30688,0.9314 l -4.58008,0 0,-12.75757 z"
         id="path3596"
         inkscape:connector-curvature="0" />
    </g>
    <g
       style="font-style:normal;font-variant:normal;font-weight:normal;font-stretch:normal;font-size:17.5px;line-height:125%;font-family:Sans;-inkscape-font-specification:'Sans, Normal';text-align:start;letter-spacing:0px;word-spacing:0px;writing-mode:lr-tb;text-anchor:start;fill:#333333;fill-opacity:1;stroke:none;stroke-width:1px;stroke-linecap:butt;stroke-linejoin:miter;stroke-opacity:1"
       id="text5299">
      <path
         d="m 370.3468,251.58733 2.81983,0 0,-9.73267 -3.06763,0.61523 0,-1.57226 3.05054,-0.61524 1.72607,0 0,11.30494 2.81982,0 0,1.45263 -7.34863,0 0,-1.45263 z"
         id="path3581"
         inkscape:connector-curvature="0" />
      <path
         d="m 384.88171,241.41887 q -1.333,0 -2.00805,1.31592 -0.66651,1.30737 -0.66651,3.93921 0,2.62329 0.66651,3.9392 0.67505,1.30738 2.00805,1.30738 1.34156,0 2.00806,-1.30738 0.67505,-1.31591 0.67505,-3.9392 0,-2.63184 -0.67505,-3.93921 -0.6665,-1.31592 -2.00806,-1.31592 z m 0,-1.36719 q 2.14478,0 3.27271,1.70044 1.13647,1.6919 1.13647,4.92188 0,3.22143 -1.13647,4.92187 -1.12793,1.6919 -3.27271,1.6919 -2.14477,0 -3.28125,-1.6919 -1.12793,-1.70044 -1.12793,-4.92187 0,-3.22998 1.12793,-4.92188 1.13648,-1.70044 3.28125,-1.70044 z"
         id="path3583"
         inkscape:connector-curvature="0" />
      <path
         d="m 393.8197,251.58733 6.02417,0 0,1.45263 -8.10058,0 0,-1.45263 q 0.98266,-1.01685 2.67456,-2.72583 1.70044,-1.71753 2.13623,-2.21314 0.82885,-0.9314 1.15356,-1.57226 0.33325,-0.64942 0.33325,-1.2732 0,-1.01684 -0.71777,-1.65771 -0.70923,-0.64087 -1.85425,-0.64087 -0.81177,0 -1.71753,0.28198 -0.89721,0.28198 -1.9226,0.85449 l 0,-1.74316 q 1.04248,-0.4187 1.94824,-0.63233 0.90576,-0.21362 1.65771,-0.21362 1.98242,0 3.16162,0.99121 1.1792,0.99121 1.1792,2.64893 0,0.78613 -0.29907,1.49536 -0.29053,0.70068 -1.06811,1.65771 -0.21363,0.24781 -1.35865,1.43555 -1.14502,1.1792 -3.22998,3.30689 z"
         id="path3585"
         inkscape:connector-curvature="0" />
      <path
         d="m 407.58557,241.98283 -2.34131,6.34888 4.69116,0 -2.34985,-6.34888 z m -0.97412,-1.70044 1.95679,0 4.86206,12.75757 -1.79444,0 -1.16211,-3.2727 -5.75073,0 -1.16211,3.2727 -1.82007,0 4.87061,-12.75757 z"
         id="path3587"
         inkscape:connector-curvature="0" />
    </g>
    <g
       style="font-style:normal;font-variant:normal;font-weight:normal;font-stretch:normal;font-size:17.5px;line-height:125%;font-family:Sans;-inkscape-font-specification:'Sans, Normal';text-align:start;letter-spacing:0px;word-spacing:0px;writing-mode:lr-tb;text-anchor:start;fill:#333333;fill-opacity:1;stroke:none;stroke-width:1px;stroke-linecap:butt;stroke-linejoin:miter;stroke-opacity:1"
       id="text5303">
      <path
         d="m 433.41077,251.51535 2.81982,0 0,-9.73267 -3.06763,0.61524 0,-1.57227 3.05054,-0.61523 1.72608,0 0,11.30493 2.81982,0 0,1.45264 -7.34863,0 0,-1.45264 z"
         id="path3574"
         inkscape:connector-curvature="0" />
      <path
         d="m 447.94568,241.34689 q -1.33301,0 -2.00806,1.31592 -0.6665,1.30737 -0.6665,3.93921 0,2.62329 0.6665,3.93921 0.67505,1.30737 2.00806,1.30737 1.34155,0 2.00806,-1.30737 0.67504,-1.31592 0.67504,-3.93921 0,-2.63184 -0.67504,-3.93921 -0.66651,-1.31592 -2.00806,-1.31592 z m 0,-1.36718 q 2.14477,0 3.2727,1.70044 1.13648,1.69189 1.13648,4.92187 0,3.22144 -1.13648,4.92188 -1.12793,1.69189 -3.2727,1.69189 -2.14478,0 -3.28125,-1.69189 -1.12793,-1.70044 -1.12793,-4.92188 0,-3.22998 1.12793,-4.92187 1.13647,-1.70044 3.28125,-1.70044 z"
         id="path3576"
         inkscape:connector-curvature="0" />
      <path
         d="m 455.69592,251.51535 2.81983,0 0,-9.73267 -3.06763,0.61524 0,-1.57227 3.05054,-0.61523 1.72607,0 0,11.30493 2.81983,0 0,1.45264 -7.34864,0 0,-1.45264 z"
         id="path3578"
         inkscape:connector-curvature="0" />
    </g>
    <g
       style="font-style:normal;font-variant:normal;font-weight:normal;font-stretch:normal;font-size:17.5px;line-height:125%;font-family:Sans;-inkscape-font-specification:'Sans, Normal';text-align:start;letter-spacing:0px;word-spacing:0px;writing-mode:lr-tb;text-anchor:start;fill:#333333;fill-opacity:1;stroke:none;stroke-width:1px;stroke-linecap:butt;stroke-linejoin:miter;stroke-opacity:1"
       id="text5307">
      <path
         d="m 71.986023,493.23569 2.819824,0 0,-9.73267 -3.067627,0.61524 0,-1.57227 3.050537,-0.61523 1.726075,0 0,11.30493 2.819824,0 0,1.45263 -7.348633,0 0,-1.45263 z"
         id="path3474"
         inkscape:connector-curvature="0" />
      <path
         d="m 86.520935,483.06723 q -1.333008,0 -2.008057,1.31592 -0.666503,1.30737 -0.666503,3.93921 0,2.62329 0.666503,3.93921 0.675049,1.30737 2.008057,1.30737 1.341553,0 2.008057,-1.30737 0.675049,-1.31592 0.675049,-3.93921 0,-2.63184 -0.675049,-3.93921 -0.666504,-1.31592 -2.008057,-1.31592 z m 0,-1.36719 q 2.144775,0 3.272705,1.70044 1.136475,1.6919 1.136475,4.92188 0,3.22143 -1.136475,4.92187 -1.12793,1.6919 -3.272705,1.6919 -2.144775,0 -3.28125,-1.6919 -1.12793,-1.70044 -1.12793,-4.92187 0,-3.22998 1.12793,-4.92188 1.136475,-1.70044 3.28125,-1.70044 z"
         id="path3476"
         inkscape:connector-curvature="0" />
      <path
         d="m 93.989197,481.93076 6.776123,0 0,1.45263 -5.195313,0 0,3.12744 q 0.375977,-0.12817 0.751953,-0.18798 0.375977,-0.0684 0.751954,-0.0684 2.13623,0 3.383786,1.17065 1.24756,1.17065 1.24756,3.17017 0,2.05932 -1.28174,3.20434 -1.281735,1.13648 -3.614499,1.13648 -0.803223,0 -1.640625,-0.13672 -0.828857,-0.13672 -1.717529,-0.41016 l 0,-1.73462 q 0.769043,0.4187 1.589355,0.62378 0.820313,0.20508 1.734619,0.20508 1.478272,0 2.341309,-0.77759 0.863037,-0.77759 0.863037,-2.11059 0,-1.33301 -0.863037,-2.1106 -0.863037,-0.77759 -2.341309,-0.77759 -0.692138,0 -1.384277,0.15381 -0.683594,0.15381 -1.401367,0.47852 l 0,-6.40869 z"
         id="path3478"
         inkscape:connector-curvature="0" />
      <path
         d="m 106.68695,483.34921 0,9.92066 2.08496,0 q 2.64038,0 3.86231,-1.19629 1.23047,-1.19629 1.23047,-3.77686 0,-2.56347 -1.23047,-3.75122 -1.22193,-1.19629 -3.86231,-1.19629 l -2.08496,0 z m -1.72607,-1.41845 3.54614,0 q 3.7085,0 5.44311,1.54663 1.73462,1.53808 1.73462,4.81933 0,3.29834 -1.74316,4.84497 -1.74316,1.54663 -5.43457,1.54663 l -3.54614,0 0,-12.75756 z"
         id="path3480"
         inkscape:connector-curvature="0" />
    </g>
    <g
       style="font-style:normal;font-variant:normal;font-weight:normal;font-stretch:normal;font-size:17.5px;line-height:125%;font-family:Sans;-inkscape-font-specification:'Sans, Normal';text-align:start;letter-spacing:0px;word-spacing:0px;writing-mode:lr-tb;text-anchor:start;fill:#333333;fill-opacity:1;stroke:none;stroke-width:1px;stroke-linecap:butt;stroke-linejoin:miter;stroke-opacity:1"
       id="text5311">
      <path
         d="m 131.06076,493.23566 2.81982,0 0,-9.73267 -3.06762,0.61524 0,-1.57227 3.05053,-0.61523 1.72608,0 0,11.30493 2.81982,0 0,1.45263 -7.34863,0 0,-1.45263 z"
         id="path3483"
         inkscape:connector-curvature="0" />
      <path
         d="m 145.59567,483.0672 q -1.33301,0 -2.00805,1.31592 -0.66651,1.30737 -0.66651,3.93921 0,2.62329 0.66651,3.93921 0.67504,1.30737 2.00805,1.30737 1.34156,0 2.00806,-1.30737 0.67505,-1.31592 0.67505,-3.93921 0,-2.63184 -0.67505,-3.93921 -0.6665,-1.31592 -2.00806,-1.31592 z m 0,-1.36719 q 2.14478,0 3.27271,1.70044 1.13647,1.6919 1.13647,4.92188 0,3.22143 -1.13647,4.92187 -1.12793,1.6919 -3.27271,1.6919 -2.14477,0 -3.28125,-1.6919 -1.12793,-1.70044 -1.12793,-4.92187 0,-3.22998 1.12793,-4.92188 1.13648,-1.70044 3.28125,-1.70044 z"
         id="path3485"
         inkscape:connector-curvature="0" />
      <path
         d="m 153.06393,481.93073 6.77613,0 0,1.45263 -5.19532,0 0,3.12744 q 0.37598,-0.12817 0.75196,-0.18799 0.37597,-0.0684 0.75195,-0.0684 2.13623,0 3.38379,1.17065 1.24756,1.17065 1.24756,3.17017 0,2.05932 -1.28174,3.20434 -1.28174,1.13648 -3.6145,1.13648 -0.80322,0 -1.64063,-0.13672 -0.82885,-0.13672 -1.71753,-0.41016 l 0,-1.73462 q 0.76905,0.4187 1.58936,0.62378 0.82031,0.20508 1.73462,0.20508 1.47827,0 2.34131,-0.77759 0.86303,-0.77759 0.86303,-2.11059 0,-1.33301 -0.86303,-2.1106 -0.86304,-0.77759 -2.34131,-0.77759 -0.69214,0 -1.38428,0.15381 -0.68359,0.15381 -1.40137,0.47852 l 0,-6.40869 z"
         id="path3487"
         inkscape:connector-curvature="0" />
      <path
         d="m 173.58884,482.91339 0,1.82007 q -0.87159,-0.81177 -1.8628,-1.21338 -0.98266,-0.40161 -2.0935,-0.40161 -2.1875,0 -3.34961,1.34155 -1.16211,1.33301 -1.16211,3.86231 0,2.52075 1.16211,3.8623 1.16211,1.33301 3.34961,1.33301 1.11084,0 2.0935,-0.40161 0.99121,-0.40161 1.8628,-1.21338 l 0,1.80298 q -0.90577,0.61523 -1.92261,0.92285 -1.0083,0.30762 -2.13623,0.30762 -2.89673,0 -4.56299,-1.7688 -1.66626,-1.77735 -1.66626,-4.84497 0,-3.07618 1.66626,-4.84497 1.66626,-1.77735 4.56299,-1.77735 1.14502,0 2.15332,0.30762 1.01684,0.29907 1.90552,0.90576 z"
         id="path3489"
         inkscape:connector-curvature="0" />
    </g>
    <g
       style="font-style:normal;font-variant:normal;font-weight:normal;font-stretch:normal;font-size:17.5px;line-height:125%;font-family:Sans;-inkscape-font-specification:'Sans, Normal';text-align:start;letter-spacing:0px;word-spacing:0px;writing-mode:lr-tb;text-anchor:start;fill:#333333;fill-opacity:1;stroke:none;stroke-width:1px;stroke-linecap:butt;stroke-linejoin:miter;stroke-opacity:1"
       id="text5315">
      <path
         d="m 192.64169,493.23566 2.81983,0 0,-9.73267 -3.06763,0.61524 0,-1.57227 3.05054,-0.61523 1.72607,0 0,11.30493 2.81983,0 0,1.45263 -7.34864,0 0,-1.45263 z"
         id="path3492"
         inkscape:connector-curvature="0" />
      <path
         d="m 207.17661,483.0672 q -1.33301,0 -2.00806,1.31592 -0.66651,1.30737 -0.66651,3.93921 0,2.62329 0.66651,3.93921 0.67505,1.30737 2.00806,1.30737 1.34155,0 2.00805,-1.30737 0.67505,-1.31592 0.67505,-3.93921 0,-2.63184 -0.67505,-3.93921 -0.6665,-1.31592 -2.00805,-1.31592 z m 0,-1.36719 q 2.14477,0 3.2727,1.70044 1.13647,1.6919 1.13647,4.92188 0,3.22143 -1.13647,4.92187 -1.12793,1.6919 -3.2727,1.6919 -2.14478,0 -3.28125,-1.6919 -1.12793,-1.70044 -1.12793,-4.92187 0,-3.22998 1.12793,-4.92188 1.13647,-1.70044 3.28125,-1.70044 z"
         id="path3494"
         inkscape:connector-curvature="0" />
      <path
         d="m 214.64487,481.93073 6.77612,0 0,1.45263 -5.19531,0 0,3.12744 q 0.37597,-0.12817 0.75195,-0.18799 0.37598,-0.0684 0.75195,-0.0684 2.13623,0 3.38379,1.17065 1.24756,1.17065 1.24756,3.17017 0,2.05932 -1.28174,3.20434 -1.28174,1.13648 -3.6145,1.13648 -0.80322,0 -1.64062,-0.13672 -0.82886,-0.13672 -1.71753,-0.41016 l 0,-1.73462 q 0.76904,0.4187 1.58935,0.62378 0.82031,0.20508 1.73462,0.20508 1.47827,0 2.34131,-0.77759 0.86304,-0.77759 0.86304,-2.11059 0,-1.33301 -0.86304,-2.1106 -0.86304,-0.77759 -2.34131,-0.77759 -0.69214,0 -1.38428,0.15381 -0.68359,0.15381 -1.40136,0.47852 l 0,-6.40869 z"
         id="path3496"
         inkscape:connector-curvature="0" />
      <path
         d="m 227.34262,488.59576 0,4.67408 2.76856,0 q 1.39282,0 2.05932,-0.57251 0.67505,-0.58106 0.67505,-1.7688 0,-1.19629 -0.67505,-1.76026 -0.6665,-0.57251 -2.05932,-0.57251 l -2.76856,0 z m 0,-5.24658 0,3.84522 2.55493,0 q 1.26465,0 1.87989,-0.46997 0.62377,-0.47852 0.62377,-1.45264 0,-0.96558 -0.62377,-1.44409 -0.61524,-0.47852 -1.87989,-0.47852 l -2.55493,0 z m -1.72607,-1.41845 4.40918,0 q 1.97387,0 3.04199,0.82031 1.06811,0.82031 1.06811,2.33276 0,1.17066 -0.54687,1.86279 -0.54688,0.69214 -1.60645,0.86304 1.2732,0.27344 1.97388,1.14502 0.70923,0.86304 0.70923,2.16187 0,1.70898 -1.16211,2.64038 -1.16211,0.93139 -3.30689,0.93139 l -4.58007,0 0,-12.75756 z"
         id="path3498"
         inkscape:connector-curvature="0" />
    </g>
    <g
       style="font-style:normal;font-variant:normal;font-weight:normal;font-stretch:normal;font-size:17.5px;line-height:125%;font-family:Sans;-inkscape-font-specification:'Sans, Normal';text-align:start;letter-spacing:0px;word-spacing:0px;writing-mode:lr-tb;text-anchor:start;fill:#333333;fill-opacity:1;stroke:none;stroke-width:1px;stroke-linecap:butt;stroke-linejoin:miter;stroke-opacity:1"
       id="text5319">
      <path
         d="m 252.79053,493.23566 2.81982,0 0,-9.73267 -3.06763,0.61524 0,-1.57227 3.05054,-0.61523 1.72608,0 0,11.30493 2.81982,0 0,1.45263 -7.34863,0 0,-1.45263 z"
         id="path3501"
         inkscape:connector-curvature="0" />
      <path
         d="m 267.32544,483.0672 q -1.33301,0 -2.00806,1.31592 -0.6665,1.30737 -0.6665,3.93921 0,2.62329 0.6665,3.93921 0.67505,1.30737 2.00806,1.30737 1.34155,0 2.00806,-1.30737 0.67504,-1.31592 0.67504,-3.93921 0,-2.63184 -0.67504,-3.93921 -0.66651,-1.31592 -2.00806,-1.31592 z m 0,-1.36719 q 2.14477,0 3.2727,1.70044 1.13648,1.6919 1.13648,4.92188 0,3.22143 -1.13648,4.92187 -1.12793,1.6919 -3.2727,1.6919 -2.14478,0 -3.28125,-1.6919 -1.12793,-1.70044 -1.12793,-4.92187 0,-3.22998 1.12793,-4.92188 1.13647,-1.70044 3.28125,-1.70044 z"
         id="path3503"
         inkscape:connector-curvature="0" />
      <path
         d="m 274.7937,481.93073 6.77612,0 0,1.45263 -5.19531,0 0,3.12744 q 0.37598,-0.12817 0.75195,-0.18799 0.37598,-0.0684 0.75196,-0.0684 2.13623,0 3.38379,1.17065 1.24756,1.17065 1.24756,3.17017 0,2.05932 -1.28174,3.20434 -1.28174,1.13648 -3.6145,1.13648 -0.80323,0 -1.64063,-0.13672 -0.82886,-0.13672 -1.71753,-0.41016 l 0,-1.73462 q 0.76904,0.4187 1.58936,0.62378 0.82031,0.20508 1.73462,0.20508 1.47827,0 2.3413,-0.77759 0.86304,-0.77759 0.86304,-2.11059 0,-1.33301 -0.86304,-2.1106 -0.86303,-0.77759 -2.3413,-0.77759 -0.69214,0 -1.38428,0.15381 -0.6836,0.15381 -1.40137,0.47852 l 0,-6.40869 z"
         id="path3505"
         inkscape:connector-curvature="0" />
      <path
         d="m 290.0293,483.63116 -2.34131,6.34888 4.69116,0 -2.34985,-6.34888 z m -0.97412,-1.70043 1.95678,0 4.86206,12.75756 -1.79443,0 -1.16211,-3.2727 -5.75073,0 -1.16211,3.2727 -1.82007,0 4.87061,-12.75756 z"
         id="path3507"
         inkscape:connector-curvature="0" />
    </g>
    <g
       style="font-style:normal;font-variant:normal;font-weight:normal;font-stretch:normal;font-size:17.5px;line-height:125%;font-family:Sans;-inkscape-font-specification:'Sans, Normal';text-align:start;letter-spacing:0px;word-spacing:0px;writing-mode:lr-tb;text-anchor:start;fill:#333333;fill-opacity:1;stroke:none;stroke-width:1px;stroke-linecap:butt;stroke-linejoin:miter;stroke-opacity:1"
       id="text5323">
      <path
         d="m 385.6192,463.51929 2.81983,0 0,-9.73267 -3.06763,0.61524 0,-1.57227 3.05054,-0.61523 1.72607,0 0,11.30493 2.81982,0 0,1.45263 -7.34863,0 0,-1.45263 z"
         id="path3510"
         inkscape:connector-curvature="0" />
      <path
         d="m 400.15411,453.35083 q -1.333,0 -2.00805,1.31592 -0.66651,1.30737 -0.66651,3.93921 0,2.62329 0.66651,3.93921 0.67505,1.30737 2.00805,1.30737 1.34156,0 2.00806,-1.30737 0.67505,-1.31592 0.67505,-3.93921 0,-2.63184 -0.67505,-3.93921 -0.6665,-1.31592 -2.00806,-1.31592 z m 0,-1.36719 q 2.14478,0 3.27271,1.70044 1.13647,1.6919 1.13647,4.92188 0,3.22143 -1.13647,4.92187 -1.12793,1.6919 -3.27271,1.6919 -2.14477,0 -3.28125,-1.6919 -1.12793,-1.70044 -1.12793,-4.92187 0,-3.22998 1.12793,-4.92188 1.13648,-1.70044 3.28125,-1.70044 z"
         id="path3512"
         inkscape:connector-curvature="0" />
      <path
         d="m 411.51031,457.90527 q -1.1621,0 -1.8457,0.79468 -0.67505,0.79468 -0.67505,2.17896 0,1.37573 0.67505,2.17895 0.6836,0.79468 1.8457,0.79468 1.16211,0 1.83716,-0.79468 0.6836,-0.80322 0.6836,-2.17895 0,-1.38428 -0.6836,-2.17896 -0.67505,-0.79468 -1.83716,-0.79468 z m 3.42652,-5.40893 0,1.57226 q -0.64942,-0.30761 -1.31592,-0.46997 -0.65796,-0.16235 -1.30737,-0.16235 -1.70899,0 -2.61475,1.15356 -0.89722,1.15357 -1.02539,3.48633 0.50415,-0.74341 1.26465,-1.13647 0.7605,-0.40161 1.6748,-0.40161 1.92261,0 3.03345,1.17065 1.11939,1.16211 1.11939,3.17017 0,1.96533 -1.16211,3.15307 -1.16211,1.18775 -3.09327,1.18775 -2.21313,0 -3.38378,-1.6919 -1.17066,-1.70044 -1.17066,-4.92187 0,-3.02491 1.43555,-4.81934 1.43555,-1.80298 3.85376,-1.80298 0.64941,0 1.30737,0.12818 0.66651,0.12817 1.38428,0.38452 z"
         id="path3514"
         inkscape:connector-curvature="0" />
    </g>
    <g
       style="font-style:normal;font-variant:normal;font-weight:normal;font-stretch:normal;font-size:17.5px;line-height:125%;font-family:Sans;-inkscape-font-specification:'Sans, Normal';text-align:start;letter-spacing:0px;word-spacing:0px;writing-mode:lr-tb;text-anchor:start;fill:#333333;fill-opacity:1;stroke:none;stroke-width:1px;stroke-linecap:butt;stroke-linejoin:miter;stroke-opacity:1"
       id="text5327">
      <path
         d="m 539.57153,490.01343 2.81983,0 0,-9.73267 -3.06763,0.61524 0,-1.57227 3.05054,-0.61523 1.72607,0 0,11.30493 2.81983,0 0,1.45263 -7.34864,0 0,-1.45263 z"
         id="path3526"
         inkscape:connector-curvature="0" />
      <path
         d="m 554.10645,479.84497 q -1.33301,0 -2.00806,1.31592 -0.66651,1.30737 -0.66651,3.93921 0,2.62329 0.66651,3.93921 0.67505,1.30737 2.00806,1.30737 1.34155,0 2.00805,-1.30737 0.67505,-1.31592 0.67505,-3.93921 0,-2.63184 -0.67505,-3.93921 -0.6665,-1.31592 -2.00805,-1.31592 z m 0,-1.36719 q 2.14477,0 3.2727,1.70044 1.13647,1.6919 1.13647,4.92188 0,3.22143 -1.13647,4.92187 -1.12793,1.6919 -3.2727,1.6919 -2.14478,0 -3.28125,-1.6919 -1.12793,-1.70044 -1.12793,-4.92187 0,-3.22998 1.12793,-4.92188 1.13647,-1.70044 3.28125,-1.70044 z"
         id="path3528"
         inkscape:connector-curvature="0" />
      <path
         d="m 561.12183,478.7085 8.20312,0 0,0.73486 -4.63135,12.0227 -1.80298,0 4.35792,-11.30493 -6.12671,0 0,-1.45263 z"
         id="path3530"
         inkscape:connector-curvature="0" />
    </g>
    <g
       style="font-style:normal;font-variant:normal;font-weight:normal;font-stretch:normal;font-size:17.5px;line-height:125%;font-family:Sans;-inkscape-font-specification:'Sans, Normal';text-align:start;letter-spacing:0px;word-spacing:0px;writing-mode:lr-tb;text-anchor:start;fill:#333333;fill-opacity:1;stroke:none;stroke-width:1px;stroke-linecap:butt;stroke-linejoin:miter;stroke-opacity:1"
       id="text5331">
      <path
         d="m 503.76871,406.59271 2.81982,0 0,-9.73266 -3.06763,0.61523 0,-1.57226 3.05054,-0.61524 1.72608,0 0,11.30493 2.81982,0 0,1.45264 -7.34863,0 0,-1.45264 z"
         id="path3517"
         inkscape:connector-curvature="0" />
      <path
         d="m 518.30362,396.42426 q -1.33301,0 -2.00806,1.31591 -0.6665,1.30738 -0.6665,3.93921 0,2.62329 0.6665,3.93921 0.67505,1.30737 2.00806,1.30737 1.34155,0 2.00806,-1.30737 0.67504,-1.31592 0.67504,-3.93921 0,-2.63183 -0.67504,-3.93921 -0.66651,-1.31591 -2.00806,-1.31591 z m 0,-1.36719 q 2.14477,0 3.2727,1.70044 1.13648,1.69189 1.13648,4.92187 0,3.22144 -1.13648,4.92188 -1.12793,1.69189 -3.2727,1.69189 -2.14478,0 -3.28125,-1.69189 -1.12793,-1.70044 -1.12793,-4.92188 0,-3.22998 1.12793,-4.92187 1.13647,-1.70044 3.28125,-1.70044 z"
         id="path3519"
         inkscape:connector-curvature="0" />
      <path
         d="m 525.319,395.28778 8.20313,0 0,0.73486 -4.63135,12.02271 -1.80298,0 4.35791,-11.30493 -6.12671,0 0,-1.45264 z"
         id="path3521"
         inkscape:connector-curvature="0" />
      <path
         d="m 541.00748,396.98822 -2.34131,6.34888 4.69116,0 -2.34985,-6.34888 z m -0.97412,-1.70044 1.95678,0 4.86206,12.75757 -1.79443,0 -1.16211,-3.27271 -5.75073,0 -1.16211,3.27271 -1.82007,0 4.87061,-12.75757 z"
         id="path3523"
         inkscape:connector-curvature="0" />
    </g>
    <g
       style="font-style:normal;font-variant:normal;font-weight:normal;font-stretch:normal;font-size:17.5px;line-height:125%;font-family:Sans;-inkscape-font-specification:'Sans, Normal';text-align:start;letter-spacing:0px;word-spacing:0px;writing-mode:lr-tb;text-anchor:start;fill:#333333;fill-opacity:1;stroke:none;stroke-width:1px;stroke-linecap:butt;stroke-linejoin:miter;stroke-opacity:1"
       id="text5335">
      <path
         d="m 676.69659,511.49512 2.81983,0 0,-9.73267 -3.06763,0.61524 0,-1.57227 3.05054,-0.61523 1.72607,0 0,11.30493 2.81983,0 0,1.45263 -7.34864,0 0,-1.45263 z"
         id="path3533"
         inkscape:connector-curvature="0" />
      <path
         d="m 691.23151,501.32666 q -1.33301,0 -2.00806,1.31592 -0.6665,1.30737 -0.6665,3.93921 0,2.62329 0.6665,3.93921 0.67505,1.30737 2.00806,1.30737 1.34155,0 2.00805,-1.30737 0.67505,-1.31592 0.67505,-3.93921 0,-2.63184 -0.67505,-3.93921 -0.6665,-1.31592 -2.00805,-1.31592 z m 0,-1.36719 q 2.14477,0 3.2727,1.70044 1.13648,1.6919 1.13648,4.92188 0,3.22143 -1.13648,4.92187 -1.12793,1.6919 -3.2727,1.6919 -2.14478,0 -3.28125,-1.6919 -1.12793,-1.70044 -1.12793,-4.92187 0,-3.22998 1.12793,-4.92188 1.13647,-1.70044 3.28125,-1.70044 z"
         id="path3535"
         inkscape:connector-curvature="0" />
      <path
         d="m 702.37408,506.8894 q -1.23046,0 -1.93969,0.65796 -0.70069,0.65796 -0.70069,1.81153 0,1.15356 0.70069,1.81152 0.70923,0.65796 1.93969,0.65796 1.23047,0 1.9397,-0.65796 0.70923,-0.6665 0.70923,-1.81152 0,-1.15357 -0.70923,-1.81153 -0.70068,-0.65796 -1.9397,-0.65796 z m -1.72607,-0.73486 q -1.11084,-0.27344 -1.73462,-1.03393 -0.61523,-0.7605 -0.61523,-1.85425 0,-1.52954 1.0852,-2.41822 1.09375,-0.88867 2.99072,-0.88867 1.90552,0 2.99073,0.88867 1.0852,0.88868 1.0852,2.41822 0,1.09375 -0.62378,1.85425 -0.61523,0.76049 -1.71753,1.03393 1.24756,0.29053 1.9397,1.13648 0.70068,0.84594 0.70068,2.06787 0,1.85424 -1.13647,2.84546 -1.12793,0.99121 -3.23853,0.99121 -2.11059,0 -3.24707,-0.99121 -1.12793,-0.99122 -1.12793,-2.84546 0,-1.22193 0.70069,-2.06787 0.70068,-0.84595 1.94824,-1.13648 z m -0.63232,-2.72583 q 0,0.99121 0.61523,1.54663 0.62378,0.55542 1.74316,0.55542 1.11084,0 1.73462,-0.55542 0.63233,-0.55542 0.63233,-1.54663 0,-0.99121 -0.63233,-1.54663 -0.62378,-0.55542 -1.73462,-0.55542 -1.11938,0 -1.74316,0.55542 -0.61523,0.55542 -0.61523,1.54663 z"
         id="path3537"
         inkscape:connector-curvature="0" />
      <path
         d="m 713.93536,501.89062 -2.3413,6.34888 4.69116,0 -2.34986,-6.34888 z m -0.97412,-1.70043 1.95679,0 4.86206,12.75756 -1.79443,0 -1.16211,-3.2727 -5.75074,0 -1.1621,3.2727 -1.82007,0 4.8706,-12.75756 z"
         id="path3539"
         inkscape:connector-curvature="0" />
    </g>
    <g
       style="font-style:normal;font-variant:normal;font-weight:normal;font-stretch:normal;font-size:17.5px;line-height:125%;font-family:Sans;-inkscape-font-specification:'Sans, Normal';text-align:start;letter-spacing:0px;word-spacing:0px;writing-mode:lr-tb;text-anchor:start;fill:#333333;fill-opacity:1;stroke:none;stroke-width:1px;stroke-linecap:butt;stroke-linejoin:miter;stroke-opacity:1"
       id="text5339">
      <path
         d="m 807.73511,466.74155 2.81982,0 0,-9.73267 -3.06763,0.61523 0,-1.57226 3.05054,-0.61524 1.72608,0 0,11.30494 2.81982,0 0,1.45263 -7.34863,0 0,-1.45263 z"
         id="path3542"
         inkscape:connector-curvature="0" />
      <path
         d="m 822.27002,456.57309 q -1.33301,0 -2.00806,1.31592 -0.6665,1.30737 -0.6665,3.93921 0,2.62329 0.6665,3.93921 0.67505,1.30737 2.00806,1.30737 1.34155,0 2.00806,-1.30737 0.67504,-1.31592 0.67504,-3.93921 0,-2.63184 -0.67504,-3.93921 -0.66651,-1.31592 -2.00806,-1.31592 z m 0,-1.36719 q 2.14477,0 3.2727,1.70044 1.13648,1.6919 1.13648,4.92188 0,3.22143 -1.13648,4.92187 -1.12793,1.6919 -3.2727,1.6919 -2.14478,0 -3.28125,-1.6919 -1.12793,-1.70044 -1.12793,-4.92187 0,-3.22998 1.12793,-4.92188 1.13647,-1.70044 3.28125,-1.70044 z"
         id="path3544"
         inkscape:connector-curvature="0" />
      <path
         d="m 833.4126,462.13583 q -1.23047,0 -1.9397,0.65796 -0.70068,0.65796 -0.70068,1.81153 0,1.15356 0.70068,1.81152 0.70923,0.65796 1.9397,0.65796 1.23047,0 1.93969,-0.65796 0.70923,-0.6665 0.70923,-1.81152 0,-1.15357 -0.70923,-1.81153 -0.70068,-0.65796 -1.93969,-0.65796 z m -1.72608,-0.73486 q -1.11084,-0.27344 -1.73462,-1.03394 -0.61523,-0.76049 -0.61523,-1.85424 0,-1.52954 1.0852,-2.41822 1.09375,-0.88867 2.99073,-0.88867 1.90552,0 2.99072,0.88867 1.08521,0.88868 1.08521,2.41822 0,1.09375 -0.62378,1.85424 -0.61524,0.7605 -1.71753,1.03394 1.24756,0.29053 1.93969,1.13648 0.70069,0.84594 0.70069,2.06787 0,1.85424 -1.13648,2.84546 -1.12793,0.99121 -3.23852,0.99121 -2.1106,0 -3.24707,-0.99121 -1.12793,-0.99122 -1.12793,-2.84546 0,-1.22193 0.70068,-2.06787 0.70068,-0.84595 1.94824,-1.13648 z m -0.63232,-2.72583 q 0,0.99121 0.61523,1.54663 0.62378,0.55542 1.74317,0.55542 1.11084,0 1.73462,-0.55542 0.63232,-0.55542 0.63232,-1.54663 0,-0.99121 -0.63232,-1.54663 -0.62378,-0.55542 -1.73462,-0.55542 -1.11939,0 -1.74317,0.55542 -0.61523,0.55542 -0.61523,1.54663 z"
         id="path3546"
         inkscape:connector-curvature="0" />
    </g>
    <g
       style="font-style:normal;font-variant:normal;font-weight:normal;font-stretch:normal;font-size:17.5px;line-height:125%;font-family:Sans;-inkscape-font-specification:'Sans, Normal';text-align:start;letter-spacing:0px;word-spacing:0px;writing-mode:lr-tb;text-anchor:start;fill:#333333;fill-opacity:1;stroke:none;stroke-width:1px;stroke-linecap:butt;stroke-linejoin:miter;stroke-opacity:1"
       id="text5343">
      <path
         d="m 658.0791,227.22029 2.81983,0 0,-9.73266 -3.06763,0.61523 0,-1.57227 3.05054,-0.61523 1.72607,0 0,11.30493 2.81982,0 0,1.45264 -7.34863,0 0,-1.45264 z"
         id="path3567"
         inkscape:connector-curvature="0" />
      <path
         d="m 669.22168,227.22029 2.81982,0 0,-9.73266 -3.06762,0.61523 0,-1.57227 3.05053,-0.61523 1.72608,0 0,11.30493 2.81982,0 0,1.45264 -7.34863,0 0,-1.45264 z"
         id="path3569"
         inkscape:connector-curvature="0" />
      <path
         d="m 680.36426,227.22029 2.81982,0 0,-9.73266 -3.06762,0.61523 0,-1.57227 3.05053,-0.61523 1.72608,0 0,11.30493 2.81982,0 0,1.45264 -7.34863,0 0,-1.45264 z"
         id="path3571"
         inkscape:connector-curvature="0" />
    </g>
    <g
       style="font-style:normal;font-variant:normal;font-weight:normal;font-stretch:normal;font-size:17.5px;line-height:125%;font-family:Sans;-inkscape-font-specification:'Sans, Normal';text-align:start;letter-spacing:0px;word-spacing:0px;writing-mode:lr-tb;text-anchor:start;fill:#333333;fill-opacity:1;stroke:none;stroke-width:1px;stroke-linecap:butt;stroke-linejoin:miter;stroke-opacity:1"
       id="text5347">
      <path
         d="m 742.57385,256.57864 2.81983,0 0,-9.73266 -3.06763,0.61523 0,-1.57226 3.05054,-0.61524 1.72607,0 0,11.30493 2.81983,0 0,1.45264 -7.34864,0 0,-1.45264 z"
         id="path3558"
         inkscape:connector-curvature="0" />
      <path
         d="m 757.10876,246.41019 q -1.333,0 -2.00805,1.31591 -0.66651,1.30738 -0.66651,3.93921 0,2.62329 0.66651,3.93921 0.67505,1.30738 2.00805,1.30738 1.34156,0 2.00806,-1.30738 0.67505,-1.31592 0.67505,-3.93921 0,-2.63183 -0.67505,-3.93921 -0.6665,-1.31591 -2.00806,-1.31591 z m 0,-1.36719 q 2.14478,0 3.27271,1.70044 1.13647,1.69189 1.13647,4.92187 0,3.22144 -1.13647,4.92188 -1.12793,1.69189 -3.27271,1.69189 -2.14477,0 -3.28125,-1.69189 -1.12793,-1.70044 -1.12793,-4.92188 0,-3.22998 1.12793,-4.92187 1.13648,-1.70044 3.28125,-1.70044 z"
         id="path3560"
         inkscape:connector-curvature="0" />
      <path
         d="m 764.61121,257.76639 0,-1.57227 q 0.64941,0.30762 1.31591,0.46997 0.66651,0.16236 1.30738,0.16236 1.70898,0 2.6062,-1.14502 0.90576,-1.15357 1.03393,-3.49488 -0.4956,0.73487 -1.2561,1.12793 -0.7605,0.39307 -1.68335,0.39307 -1.91406,0 -3.03345,-1.15356 -1.11084,-1.16211 -1.11084,-3.17017 0,-1.96533 1.16211,-3.15308 1.16211,-1.18774 3.09326,-1.18774 2.21314,0 3.37525,1.70044 1.17065,1.69189 1.17065,4.92187 0,3.01636 -1.43554,4.81934 -1.42701,1.79443 -3.84522,1.79443 -0.64941,0 -1.31592,-0.12817 -0.6665,-0.12817 -1.38427,-0.38452 z m 3.43505,-5.40894 q 1.16211,0 1.83716,-0.79468 0.6836,-0.79467 0.6836,-2.17895 0,-1.37573 -0.6836,-2.17041 -0.67505,-0.80322 -1.83716,-0.80322 -1.1621,0 -1.8457,0.80322 -0.67505,0.79468 -0.67505,2.17041 0,1.38428 0.67505,2.17895 0.6836,0.79468 1.8457,0.79468 z"
         id="path3562"
         inkscape:connector-curvature="0" />
      <path
         d="m 777.27478,251.93875 0,4.67407 2.76855,0 q 1.39283,0 2.05933,-0.57251 0.67505,-0.58105 0.67505,-1.7688 0,-1.19628 -0.67505,-1.76025 -0.6665,-0.57251 -2.05933,-0.57251 l -2.76855,0 z m 0,-5.24658 0,3.84521 2.55493,0 q 1.26465,0 1.87988,-0.46997 0.62378,-0.47851 0.62378,-1.45263 0,-0.96558 -0.62378,-1.4441 -0.61523,-0.47851 -1.87988,-0.47851 l -2.55493,0 z m -1.72607,-1.41846 4.40918,0 q 1.97387,0 3.04199,0.82031 1.06811,0.82032 1.06811,2.33277 0,1.17065 -0.54687,1.86279 -0.54688,0.69214 -1.60645,0.86304 1.2732,0.27344 1.97388,1.14502 0.70923,0.86304 0.70923,2.16186 0,1.70899 -1.16211,2.64038 -1.16211,0.9314 -3.30689,0.9314 l -4.58007,0 0,-12.75757 z"
         id="path3564"
         inkscape:connector-curvature="0" />
    </g>
    <g
       style="font-style:normal;font-variant:normal;font-weight:normal;font-stretch:normal;font-size:17.5px;line-height:125%;font-family:Sans;-inkscape-font-specification:'Sans, Normal';text-align:start;letter-spacing:0px;word-spacing:0px;writing-mode:lr-tb;text-anchor:start;fill:#333333;fill-opacity:1;stroke:none;stroke-width:1px;stroke-linecap:butt;stroke-linejoin:miter;stroke-opacity:1"
       id="text5351">
      <path
         d="m 833.15515,276.27023 2.81983,0 0,-9.73266 -3.06763,0.61523 0,-1.57226 3.05054,-0.61524 1.72607,0 0,11.30493 2.81982,0 0,1.45264 -7.34863,0 0,-1.45264 z"
         id="path3549"
         inkscape:connector-curvature="0" />
      <path
         d="m 847.69006,266.10178 q -1.333,0 -2.00805,1.31591 -0.66651,1.30738 -0.66651,3.93921 0,2.62329 0.66651,3.93921 0.67505,1.30738 2.00805,1.30738 1.34156,0 2.00806,-1.30738 0.67505,-1.31592 0.67505,-3.93921 0,-2.63183 -0.67505,-3.93921 -0.6665,-1.31591 -2.00806,-1.31591 z m 0,-1.36719 q 2.14478,0 3.27271,1.70044 1.13647,1.69189 1.13647,4.92187 0,3.22144 -1.13647,4.92188 -1.12793,1.69189 -3.27271,1.69189 -2.14477,0 -3.28125,-1.69189 -1.12793,-1.70044 -1.12793,-4.92188 0,-3.22998 1.12793,-4.92187 1.13648,-1.70044 3.28125,-1.70044 z"
         id="path3551"
         inkscape:connector-curvature="0" />
      <path
         d="m 855.1925,277.45798 0,-1.57227 q 0.64942,0.30762 1.31592,0.46997 0.66651,0.16236 1.30738,0.16236 1.70898,0 2.6062,-1.14502 0.90576,-1.15357 1.03393,-3.49488 -0.4956,0.73487 -1.2561,1.12793 -0.7605,0.39307 -1.68335,0.39307 -1.91406,0 -3.03345,-1.15357 -1.11084,-1.1621 -1.11084,-3.17016 0,-1.96533 1.16211,-3.15308 1.16211,-1.18774 3.09326,-1.18774 2.21314,0 3.37525,1.70044 1.17065,1.69189 1.17065,4.92187 0,3.01636 -1.43554,4.81934 -1.42701,1.79443 -3.84522,1.79443 -0.64941,0 -1.31592,-0.12817 -0.6665,-0.12818 -1.38428,-0.38452 z m 3.43506,-5.40894 q 1.16211,0 1.83716,-0.79468 0.6836,-0.79467 0.6836,-2.17895 0,-1.37573 -0.6836,-2.17041 -0.67505,-0.80322 -1.83716,-0.80322 -1.16211,0 -1.8457,0.80322 -0.67505,0.79468 -0.67505,2.17041 0,1.38428 0.67505,2.17895 0.68359,0.79468 1.8457,0.79468 z"
         id="path3553"
         inkscape:connector-curvature="0" />
      <path
         d="m 870.39392,266.66574 -2.34131,6.34888 4.69116,0 -2.34985,-6.34888 z m -0.97412,-1.70044 1.95679,0 4.86206,12.75757 -1.79444,0 -1.16211,-3.27271 -5.75073,0 -1.16211,3.27271 -1.82007,0 4.87061,-12.75757 z"
         id="path3555"
         inkscape:connector-curvature="0" />
    </g>
  </g>
</svg>
